SplineFontDB: 3.1
FontName: Combermere
FullName: Combermere
FamilyName: Combermere
Weight: Regular
Copyright: Copyright (c) 2018, J Hudson\nThis file may be used, copied, modified, and distributed under the terms of the SIL Open Font License, version 1.1.
UComments: "2018-5-30: Created with FontForge (http://fontforge.org)"
Version: 001.000
ItalicAngle: 0
UnderlinePosition: -90
UnderlineWidth: 40
Ascent: 800
Descent: 300
InvalidEm: 0
LayerCount: 2
Layer: 0 0 "Back" 1
Layer: 1 0 "Fore" 0
XUID: [1021 221 1603365728 11179765]
StyleMap: 0x0000
FSType: 0
OS2Version: 0
OS2_WeightWidthSlopeOnly: 0
OS2_UseTypoMetrics: 1
CreationTime: 1527732842
ModificationTime: 1529625610
OS2TypoAscent: 0
OS2TypoAOffset: 1
OS2TypoDescent: 0
OS2TypoDOffset: 1
OS2TypoLinegap: 99
OS2WinAscent: 0
OS2WinAOffset: 1
OS2WinDescent: 0
OS2WinDOffset: 1
HheadAscent: 0
HheadAOffset: 1
HheadDescent: 0
HheadDOffset: 1
OS2Vendor: 'PfEd'
MarkAttachClasses: 1
DEI: 91125
Encoding: AdobeStandard
UnicodeInterp: none
NameList: AGL For New Fonts
DisplaySize: -48
AntiAlias: 1
FitToEm: 1
WidthSeparation: 1
WinInfo: 64 16 9
BeginPrivate: 0
EndPrivate
BeginChars: 342 225

StartChar: a
Encoding: 97 97 0
Width: 370
VWidth: 0
Flags: HW
LayerCount: 2
UndoRedoHistory
Layer: 1
Undoes
UndoOperation
Index: 0
Type: 1
WasModified: 1
WasOrder2: 0
Layer: 2
Width: 370
VWidth: 0
LBearingChange: 0
UnicodeEnc: 0
InstructionsLength: 0
SplineSet
195 550 m 1
 205 540 l 1
 208 538 l 1
 207 537 l 1
 355 385 l 1
 340 370 l 1
 340 225 l 1
 340 200 l 1
 340 100 l 1
 340 100 351 93 366 93 c 0
 373 93 382 95 390 100 c 1
 373 70 315 2 240 0 c 1
 240 95 l 1
 145 0 l 1
 -5 138 l 1
 5 147 l 1
 5 335 l 1
 -5 325 l 1
 -17 337 l 1
 195 550 l 1
110 440 m 1
 110 225 l 1
 229 111 l 1
 240 123 l 1
 240 301 l 1
 110 440 l 1
EndSplineSet
EndUndoOperation
EndUndoes
Redoes
EndRedoes
EndUndoRedoHistory
Fore
SplineSet
195 550 m 1
 205 540 l 1
 208 538 l 1
 207 537 l 1
 355 385 l 1
 340 370 l 1
 340 225 l 1
 340 200 l 1
 340 100 l 1
 340 100 351 93 366 93 c 0
 373 93 382 95 390 100 c 1
 373 70 315 2 240 0 c 1
 240 95 l 1
 145 0 l 1
 -5 138 l 1
 5 147 l 1
 5 335 l 1
 -5 325 l 1
 -17 337 l 1
 195 550 l 1
110 440 m 1
 110 225 l 1
 229 111 l 1
 240 123 l 1
 240 301 l 1
 110 440 l 1
EndSplineSet
Validated: 1
EndChar

StartChar: b
Encoding: 98 98 1
Width: 370
VWidth: 0
Flags: HW
LayerCount: 2
UndoRedoHistory
Layer: 1
Undoes
UndoOperation
Index: 0
Type: 1
WasModified: 1
WasOrder2: 0
Layer: 2
Width: 370
VWidth: 0
LBearingChange: 0
UnicodeEnc: 0
InstructionsLength: 0
SplineSet
10 800 m 1
 59 751 l 1
 110 800 l 1
 110 460 l 1
 146.512461135 496.512461135 172.284141563 521.141236762 210 560 c 1
 370 400 l 1
 360 390 l 1
 360 204 l 1
 363 208 l 1
 376 195 l 1
 163 -18 l 1
 151 -5 l 1
 158 2 l 1
 0 160 l 1
 10 170 l 1
 10 360 l 2
 10 800 l 1
123 447 m 1
 110 435 l 1
 110 250 l 1
 258 102 l 1
 260 104 l 1
 260 310 l 1
 123 447 l 1
EndSplineSet
EndUndoOperation
EndUndoes
Redoes
EndRedoes
EndUndoRedoHistory
Fore
SplineSet
10 800 m 1
 59 751 l 1
 110 800 l 1
 110 460 l 1
 147 497 172 521 210 560 c 1
 370 400 l 1
 360 390 l 1
 360 204 l 1
 363 208 l 1
 376 195 l 1
 163 -18 l 1
 151 -5 l 1
 158 2 l 1
 0 160 l 1
 10 170 l 1
 10 360 l 2
 10 800 l 1
123 447 m 1
 110 435 l 1
 110 250 l 1
 258 102 l 1
 260 104 l 1
 260 310 l 1
 123 447 l 1
EndSplineSet
Validated: 1
EndChar

StartChar: c
Encoding: 99 99 2
Width: 390
VWidth: 0
Flags: HW
LayerCount: 2
UndoRedoHistory
Layer: 1
Undoes
UndoOperation
Index: 0
Type: 1
WasModified: 1
WasOrder2: 0
Layer: 2
Width: 390
VWidth: 0
LBearingChange: 0
UnicodeEnc: 0
InstructionsLength: 0
SplineSet
230 559 m 5
 395 407 l 5
 295 307 l 5
 142 463 l 5
 135 456 l 5
 135 257 l 5
 281 111 l 5
 358 184 l 5
 372 170 l 5
 192 0 l 5
 185 7 l 5
 185 7 l 5
 25 167 l 5
 35 177 l 5
 35 364 l 5
 25 354 l 5
 10 369 l 5
 230 559 l 5
EndSplineSet
EndUndoOperation
EndUndoes
Redoes
EndRedoes
EndUndoRedoHistory
Fore
SplineSet
230 559 m 1
 395 407 l 1
 295 307 l 1
 142 463 l 1
 135 456 l 1
 135 257 l 1
 281 111 l 1
 358 184 l 1
 372 170 l 1
 192 0 l 1
 185 7 l 1
 185 7 l 1
 25 167 l 1
 35 177 l 1
 35 364 l 1
 25 354 l 1
 10 369 l 1
 230 559 l 1
EndSplineSet
Validated: 1
EndChar

StartChar: d
Encoding: 100 100 3
Width: 430
VWidth: 0
Flags: HW
LayerCount: 2
UndoRedoHistory
Layer: 1
Undoes
UndoOperation
Index: 0
Type: 1
WasModified: 1
WasOrder2: 0
Layer: 2
Width: 430
VWidth: 0
LBearingChange: 0
UnicodeEnc: 0
InstructionsLength: 0
SplineSet
58 777 m 1
 103 727 l 1
 403 402 l 1
 393 393 l 1
 393 221 l 1
 406 234 l 1
 420 220 l 1
 200 0 l 1
 193 7 l 1
 33 167 l 1
 43 177 l 1
 43 353 l 1
 30 340 l 1
 16 354 l 1
 141 480 l 1
 3 627 l 1
 -57 687 l 1
 53 678 l 1
 58 777 l 1
155 465 m 1
 143 453 l 1
 143 257 l 1
 286 114 l 1
 293 121 l 1
 293 311 l 1
 293 317 l 1
 155 465 l 1
EndSplineSet
EndUndoOperation
EndUndoes
Redoes
EndRedoes
EndUndoRedoHistory
Fore
SplineSet
58 777 m 1
 103 727 l 1
 403 402 l 1
 393 393 l 1
 393 221 l 1
 406 234 l 1
 420 220 l 1
 200 0 l 1
 193 7 l 1
 33 167 l 1
 43 177 l 1
 43 353 l 1
 30 340 l 1
 16 354 l 1
 141 480 l 1
 3 627 l 1
 -57 687 l 1
 53 678 l 1
 58 777 l 1
155 465 m 1
 143 453 l 1
 143 257 l 1
 286 114 l 1
 293 121 l 1
 293 311 l 1
 293 317 l 1
 155 465 l 1
EndSplineSet
Validated: 1
EndChar

StartChar: e
Encoding: 101 101 4
Width: 360
VWidth: 0
Flags: HW
LayerCount: 2
UndoRedoHistory
Layer: 1
Undoes
UndoOperation
Index: 0
Type: 1
WasModified: 1
WasOrder2: 0
Layer: 2
Width: 360
VWidth: 0
LBearingChange: 0
UnicodeEnc: 0
InstructionsLength: 0
SplineSet
230 574 m 1
 276.314323335 527.685676665 327.089385614 485.705177981 374 440 c 1
 164 230 l 1
 283 111 l 1
 360 184 l 1
 374 170 l 1
 194 0 l 1
 138.333333333 55.6666666667 82.6666666667 111.333333333 27 167 c 1
 37 177 l 1
 37 353 l 1
 24 340 l 1
 10 354 l 1
 230 574 l 1
144 460 m 1
 137 453 l 1
 137 257 l 1
 150 244 l 1
 260 354 l 1
 144 460 l 1
EndSplineSet
EndUndoOperation
EndUndoes
Redoes
EndRedoes
EndUndoRedoHistory
Fore
SplineSet
230 574 m 1
 276 528 327 486 374 440 c 1
 164 230 l 1
 283 111 l 1
 360 184 l 1
 374 170 l 1
 194 0 l 1
 138 56 83 111 27 167 c 1
 37 177 l 1
 37 353 l 1
 24 340 l 1
 10 354 l 1
 230 574 l 1
144 460 m 1
 137 453 l 1
 137 257 l 1
 150 244 l 1
 260 354 l 1
 144 460 l 1
EndSplineSet
Validated: 1
EndChar

StartChar: f
Encoding: 102 102 5
Width: 330
VWidth: 0
Flags: HW
LayerCount: 2
UndoRedoHistory
Layer: 1
Undoes
UndoOperation
Index: 0
Type: 1
WasModified: 1
WasOrder2: 0
Layer: 2
Width: 330
VWidth: 0
LBearingChange: 0
UnicodeEnc: 0
InstructionsLength: 0
SplineSet
227 804 m 5
 329 704 l 5
 229 604 l 5
 141 692 l 5
 139 691 l 5
 139 366 l 5
 229 459 l 5
 239 449 l 5
 279 409 l 5
 189 314 l 5
 149 354 l 5
 139 343 l 5
 139 111 l 5
 170 80 l 5
 90 0 l 5
 10 80 l 5
 39 109 l 5
 39 591 l 5
 39 616 l 5
 227 804 l 5
EndSplineSet
EndUndoOperation
EndUndoes
Redoes
EndRedoes
EndUndoRedoHistory
Fore
SplineSet
227 804 m 1
 329 704 l 1
 229 604 l 1
 141 692 l 1
 139 691 l 1
 139 366 l 1
 229 459 l 1
 239 449 l 1
 279 409 l 1
 189 314 l 1
 149 354 l 1
 139 343 l 1
 139 111 l 1
 170 80 l 1
 90 0 l 1
 10 80 l 1
 39 109 l 1
 39 591 l 1
 39 616 l 1
 227 804 l 1
EndSplineSet
Validated: 1
EndChar

StartChar: g
Encoding: 103 103 6
Width: 440
VWidth: 0
Flags: HW
LayerCount: 2
UndoRedoHistory
Layer: 1
Undoes
UndoOperation
Index: 0
Type: 1
WasModified: 1
WasOrder2: 0
Layer: 2
Width: 440
VWidth: 0
LBearingChange: 0
UnicodeEnc: 0
InstructionsLength: 0
SplineSet
263 574 m 1
 318 519 375 462 430 407 c 1
 420 397 l 1
 420 221 l 1
 433 234 l 1
 447 220 l 1
 420 193 l 1
 420 104 420 16 420 -73 c 1
 360 -133 286 -207 220 -273 c 1
 70 -123 l 2
 69.027027027 -122.135135135 67.6800584368 -121.749452155 66.051329635 -121.749452155 c 0
 52.6143170197 -121.749452155 20 -148 20 -148 c 1
 20 -148 121.026489629 -10.1587726252 153.550603034 -10.1587726252 c 0
 156.176773682 -10.1587726252 158.356321839 -11.0574712644 160 -13 c 2
 306 -159 l 1
 320 -145 l 1
 320 93 l 1
 227 0 l 1
 217 10 l 1
 60 167 l 1
 70 177 l 1
 70 353 l 1
 57 340 l 1
 43 354 l 1
 263 574 l 1
177 460 m 1
 170 453 l 1
 170 257 l 1
 313 114 l 1
 320 121 l 1
 320 317 l 1
 177 460 l 1
EndSplineSet
EndUndoOperation
EndUndoes
Redoes
EndRedoes
EndUndoRedoHistory
Fore
SplineSet
263 574 m 1
 318 519 375 462 430 407 c 1
 420 397 l 1
 420 221 l 1
 433 234 l 1
 447 220 l 1
 420 193 l 1
 420 104 420 16 420 -73 c 1
 360 -133 286 -207 220 -273 c 1
 70 -123 l 2
 69 -122 68 -122 66 -122 c 0
 53 -122 20 -148 20 -148 c 1
 20 -148 121 -10 154 -10 c 0
 157 -10 158 -11 160 -13 c 2
 306 -159 l 1
 320 -145 l 1
 320 93 l 1
 227 0 l 1
 217 10 l 1
 60 167 l 1
 70 177 l 1
 70 353 l 1
 57 340 l 1
 43 354 l 1
 263 574 l 1
177 460 m 1
 170 453 l 1
 170 257 l 1
 313 114 l 1
 320 121 l 1
 320 317 l 1
 177 460 l 1
EndSplineSet
Validated: 1
EndChar

StartChar: h
Encoding: 104 104 7
Width: 370
VWidth: 0
Flags: HW
LayerCount: 2
UndoRedoHistory
Layer: 1
Undoes
UndoOperation
Index: 0
Type: 1
WasModified: 1
WasOrder2: 0
Layer: 2
Width: 370
VWidth: 0
LBearingChange: 0
UnicodeEnc: 0
InstructionsLength: 0
SplineSet
24.05859375 800 m 1
 71.6796875 747.619140625 l 1
 124.060546875 800 l 1
 124.060546875 440 l 1
 224.060546875 540 l 1
 238.234375 525.900390625 l 1
 238.197265625 525.86328125 l 1
 364.0625 400 l 1
 354.0625 390 l 1
 354.0625 120 l 2
 354.0625 70 229.060546875 -45 214.060546875 -45 c 1
 224.060546875 -40 254.060546875 10 254.060546875 20 c 2
 254.060546875 310 l 1
 138.197265625 425.86328125 l 1
 124.060546875 411.7265625 l 1
 124.060546875 112.384765625 l 1
 160 76.4453125 l 1
 80 -3.5546875 l 1
 0 76.4453125 l 1
 24.05859375 100.50390625 l 1
 24.05859375 660 l 1
 24.05859375 800 l 1
EndSplineSet
EndUndoOperation
EndUndoes
Redoes
EndRedoes
EndUndoRedoHistory
Fore
SplineSet
24 800 m 1
 72 748 l 1
 124 800 l 1
 124 440 l 1
 224 540 l 1
 238 526 l 1
 238 526 l 1
 364 400 l 1
 354 390 l 1
 354 120 l 2
 354 70 229 -45 214 -45 c 1
 224 -40 254 10 254 20 c 2
 254 310 l 1
 138 426 l 1
 124 412 l 1
 124 112 l 1
 160 76 l 1
 80 -4 l 1
 0 76 l 1
 24 101 l 1
 24 660 l 1
 24 800 l 1
EndSplineSet
Validated: 1
EndChar

StartChar: i
Encoding: 105 105 8
Width: 170
VWidth: 0
Flags: HW
LayerCount: 2
UndoRedoHistory
Layer: 1
Undoes
UndoOperation
Index: 0
Type: 1
WasModified: 1
WasOrder2: 0
Layer: 2
Width: 170
VWidth: 0
LBearingChange: 0
UnicodeEnc: 0
InstructionsLength: 0
SplineSet
80 741 m 1
 160 661 l 1
 80 581 l 1
 0 661 l 1
 80 741 l 1
80 539 m 1
 160 459 l 1
 130 428 l 1
 130 111 l 1
 129 111 l 1
 160 80 l 1
 80 0 l 1
 0 80 l 1
 30 110 l 1
 30 429 l 1
 0 459 l 1
 80 539 l 1
EndSplineSet
EndUndoOperation
EndUndoes
Redoes
EndRedoes
EndUndoRedoHistory
Fore
SplineSet
80 741 m 1
 160 661 l 1
 80 581 l 1
 0 661 l 1
 80 741 l 1
80 539 m 1
 160 459 l 1
 130 428 l 1
 130 111 l 1
 129 111 l 1
 160 80 l 1
 80 0 l 1
 0 80 l 1
 30 110 l 1
 30 429 l 1
 0 459 l 1
 80 539 l 1
EndSplineSet
Validated: 1
EndChar

StartChar: j
Encoding: 106 106 9
Width: 170
VWidth: 0
Flags: HW
LayerCount: 2
UndoRedoHistory
Layer: 1
Undoes
UndoOperation
Index: 0
Type: 1
WasModified: 1
WasOrder2: 0
Layer: 2
Width: 170
VWidth: 0
LBearingChange: 0
UnicodeEnc: 0
InstructionsLength: 0
SplineSet
120 720 m 5
 200 640 l 5
 120 560 l 5
 40 640 l 5
 120 720 l 5
120 518 m 5
 200 438 l 5
 170 408 l 5
 170 -110 l 5
 90 -190 l 5
 70 -210 l 5
 -10 -290 l 5
 -70 -230 l 6
 -71 -229 -72 -229 -74 -229 c 0
 -87 -229 -120 -255 -120 -255 c 5
 -120 -255 -19 -117 14 -117 c 0
 17 -117 18 -118 20 -120 c 6
 70 -170 l 5
 70 407 l 5
 40 438 l 5
 120 518 l 5
EndSplineSet
EndUndoOperation
EndUndoes
Redoes
EndRedoes
EndUndoRedoHistory
Fore
SplineSet
120 720 m 1
 200 640 l 1
 120 560 l 1
 40 640 l 1
 120 720 l 1
120 518 m 1
 200 438 l 1
 170 408 l 1
 170 -110 l 1
 90 -190 l 1
 70 -210 l 1
 -10 -290 l 1
 -70 -230 l 2
 -71 -229 -72 -229 -74 -229 c 0
 -87 -229 -120 -255 -120 -255 c 1
 -120 -255 -19 -117 14 -117 c 0
 17 -117 18 -118 20 -120 c 2
 70 -170 l 1
 70 407 l 1
 40 438 l 1
 120 518 l 1
EndSplineSet
Validated: 1
EndChar

StartChar: k
Encoding: 107 107 10
Width: 390
VWidth: 0
Flags: HW
LayerCount: 2
UndoRedoHistory
Layer: 1
Undoes
UndoOperation
Index: 0
Type: 1
WasModified: 1
WasOrder2: 0
Layer: 2
Width: 390
VWidth: 0
LBearingChange: 0
UnicodeEnc: 0
InstructionsLength: 0
SplineSet
40 800 m 1
 90 750 l 1
 140 800 l 1
 140 420 l 1
 175 455 l 1
 275 555 l 1
 365 475 l 1
 290 400 l 1
 364 306 l 1
 365 307 l 1
 365 100 l 2
 365 50 240 -65 225 -65 c 1
 235 -60 265 -10 265 0 c 2
 265 205 l 1
 191 299 l 1
 140 247 l 1
 140 104 l 1
 170 73 l 1
 90 -7 l 1
 10 73 l 1
 40 103 l 1
 40 690 l 1
 40 700 l 1
 40 800 l 1
183 448 m 1
 140 405 l 1
 140 267 l 1
 255 384 l 1
 183 448 l 1
EndSplineSet
EndUndoOperation
EndUndoes
Redoes
EndRedoes
EndUndoRedoHistory
Fore
SplineSet
40 800 m 1
 90 750 l 1
 140 800 l 1
 140 420 l 1
 175 455 l 1
 275 555 l 1
 365 475 l 1
 290 400 l 1
 364 306 l 1
 365 307 l 1
 365 100 l 2
 365 50 240 -65 225 -65 c 1
 235 -60 265 -10 265 0 c 2
 265 205 l 1
 191 299 l 1
 140 247 l 1
 140 104 l 1
 170 73 l 1
 90 -7 l 1
 10 73 l 1
 40 103 l 1
 40 690 l 1
 40 700 l 1
 40 800 l 1
183 448 m 1
 140 405 l 1
 140 267 l 1
 255 384 l 1
 183 448 l 1
EndSplineSet
Validated: 1
EndChar

StartChar: l
Encoding: 108 108 11
Width: 170
VWidth: 0
Flags: HW
LayerCount: 2
UndoRedoHistory
Layer: 1
Undoes
UndoOperation
Index: 0
Type: 1
WasModified: 1
WasOrder2: 0
Layer: 2
Width: 170
VWidth: 0
LBearingChange: 0
UnicodeEnc: 0
InstructionsLength: 0
SplineSet
35 800 m 1
 85 750 l 1
 135 800 l 1
 135 101 l 1
 170 66 l 1
 90 -14 l 1
 10 66 l 1
 35 91 l 1
 35 695 l 1
 35 700 l 1
 35 800 l 1
EndSplineSet
EndUndoOperation
EndUndoes
Redoes
EndRedoes
EndUndoRedoHistory
Fore
SplineSet
35 800 m 1
 85 750 l 1
 135 800 l 1
 135 101 l 1
 170 66 l 1
 90 -14 l 1
 10 66 l 1
 35 91 l 1
 35 695 l 1
 35 700 l 1
 35 800 l 1
EndSplineSet
Validated: 1
EndChar

StartChar: m
Encoding: 109 109 12
Width: 490
VWidth: 0
Flags: HW
LayerCount: 2
UndoRedoHistory
Layer: 1
Undoes
UndoOperation
Index: 0
Type: 1
WasModified: 1
WasOrder2: 0
Layer: 2
Width: 490
VWidth: 0
LBearingChange: 0
UnicodeEnc: 0
InstructionsLength: 0
SplineSet
206 573 m 1
 293 486 l 1
 380 570 l 1
 392 557 l 1
 485 465 l 1
 460 443 l 1
 460 110 l 1
 490 80 l 1
 410 0 l 1
 330 80 l 1
 360 110 l 1
 360 395 l 1
 291 459 l 1
 290 458 l 1
 290 110 l 1
 320 80 l 1
 240 0 l 1
 160 80 l 1
 190 110 l 1
 190 395 l 1
 120 460 l 1
 120 110 l 1
 149 80 l 1
 69 0 l 1
 -11 80 l 1
 20 110 l 1
 20 460 l 1
 5 455 -20 435 -20 435 c 1
 -20 435 81 572 113 572 c 0
 116 572 118 569 120 567 c 5
 120 489 l 1
 206 573 l 1
EndSplineSet
EndUndoOperation
EndUndoes
Redoes
EndRedoes
EndUndoRedoHistory
Fore
SplineSet
206 573 m 1
 293 486 l 1
 380 570 l 1
 392 557 l 1
 485 465 l 1
 460 443 l 1
 460 110 l 1
 490 80 l 1
 410 0 l 1
 330 80 l 1
 360 110 l 1
 360 395 l 1
 291 459 l 1
 290 458 l 1
 290 110 l 1
 320 80 l 1
 240 0 l 1
 160 80 l 1
 190 110 l 1
 190 395 l 1
 120 460 l 1
 120 110 l 1
 149 80 l 1
 69 0 l 1
 -11 80 l 1
 20 110 l 1
 20 460 l 1
 5 455 -20 435 -20 435 c 1
 -20 435 81 572 113 572 c 0
 116 572 120 570 120 567 c 1
 120 489 l 1
 206 573 l 1
EndSplineSet
Validated: 1
EndChar

StartChar: n
Encoding: 110 110 13
Width: 380
VWidth: 0
Flags: HW
LayerCount: 2
UndoRedoHistory
Layer: 1
Undoes
UndoOperation
Index: 0
Type: 1
WasModified: 1
WasOrder2: 0
Layer: 2
Width: 380
VWidth: 0
LBearingChange: 0
UnicodeEnc: 0
InstructionsLength: 0
SplineSet
340 474 m 1
 360 459 l 1
 340 439 l 1
 340 110 l 1
 370 80 l 1
 290 0 l 1
 210 80 l 1
 240 110 l 1
 240 389 l 1
 149 450 l 1
 140 441 l 1
 140 113 l 1
 173 80 l 1
 93 0 l 1
 13 80 l 1
 40 107 l 1
 40 454 l 1
 25 449 0 429 0 429 c 1
 25 463 85.8948691968 563.530581496 134.085247374 563.530581496 c 4
 136.079803179 563.530581496 138 563 140 563 c 1
 140 466 l 1
 230 556 l 1
 340 474 l 1
EndSplineSet
EndUndoOperation
UndoOperation
Index: 1
Type: 1
WasModified: 0
WasOrder2: 0
Layer: 2
Width: 380
VWidth: 0
LBearingChange: 0
UnicodeEnc: 0
InstructionsLength: 0
SplineSet
340 474 m 1
 360 459 l 1
 340 439 l 1
 340 110 l 1
 370 80 l 1
 290 0 l 1
 210 80 l 1
 240 110 l 1
 240 389 l 1
 149 450 l 1
 140 441 l 1
 140 113 l 1
 173 80 l 1
 93 0 l 1
 13 80 l 1
 40 107 l 1
 40 454 l 1
 25 449 0 429 0 429 c 1
 25 463 85.8948691968 563.530581496 134.085247374 563.530581496 c 0
 136.079803179 563.530581496 138 563 140 563 c 1
 140 466 l 1
 230 556 l 1
 340 474 l 1
EndSplineSet
EndUndoOperation
UndoOperation
Index: 2
Type: 1
WasModified: 0
WasOrder2: 0
Layer: 2
Width: 380
VWidth: 0
LBearingChange: 0
UnicodeEnc: 0
InstructionsLength: 0
SplineSet
340 474 m 5
 340 474 l 1
 360 459 l 1
 340 439 l 1
 340 110 l 1
 370 80 l 1
 290 0 l 1
 210 80 l 1
 240 110 l 1
 240 389 l 1
 149 450 l 1
 140 441 l 1
 140 113 l 1
 173 80 l 1
 93 0 l 1
 13 80 l 1
 40 107 l 1
 40 454 l 1
 25 449 0 429 0 429 c 1
 25 463 85.8948691968 563.530581496 134.085247374 563.530581496 c 0
 136.079803179 563.530581496 138 563 140 563 c 1
 140 466 l 1
 230 556 l 1
 340 474 l 5
EndSplineSet
EndUndoOperation
UndoOperation
Index: 3
Type: 1
WasModified: 1
WasOrder2: 0
Layer: 2
Width: 380
VWidth: 0
LBearingChange: 0
UnicodeEnc: 0
InstructionsLength: 0
SplineSet
0 429 m 5
 0 429 l 5
 25 463 85.8948691968 563.530581496 134.085247374 563.530581496 c 0
 136.079803179 563.530581496 138 563 140 563 c 5
 140 466 l 5
 230 556 l 5
 340 474 l 5
 340 474 l 5
 340 474 l 5
 360 459 l 5
 340 439 l 5
 340 110 l 5
 370 80 l 5
 290 0 l 5
 210 80 l 5
 240 110 l 5
 240 389 l 5
 149 450 l 5
 140 441 l 5
 140 113 l 5
 173 80 l 5
 93 0 l 5
 13 80 l 5
 40 107 l 5
 40 454 l 5
 25 449 0 429 0 429 c 5
EndSplineSet
EndUndoOperation
UndoOperation
Index: 4
Type: 1
WasModified: 1
WasOrder2: 0
Layer: 2
Width: 380
VWidth: 0
LBearingChange: 0
UnicodeEnc: 0
InstructionsLength: 0
SplineSet
0 429 m 5
 0 429 l 5
 24.9666530007 462.608955962 85.8948691968 563.530581496 134.085247374 563.530581496 c 0
 136.079803179 563.530581496 138.052538347 563.357697038 140 563 c 5
 140 466 l 5
 230 556 l 5
 340 474 l 5
 340 474 l 5
 340 474 l 5
 360 459 l 5
 340 439 l 5
 340 110 l 5
 370 80 l 5
 290 0 l 5
 210 80 l 5
 240 110 l 5
 240 389 l 5
 149 450 l 5
 140 441 l 5
 140 113 l 5
 173 80 l 5
 93 0 l 5
 13 80 l 5
 40 107 l 5
 40 454 l 5
 25 449 0 429 0 429 c 5
EndSplineSet
EndUndoOperation
UndoOperation
Index: 5
Type: 1
WasModified: 1
WasOrder2: 0
Layer: 2
Width: 380
VWidth: 0
LBearingChange: 0
UnicodeEnc: 0
InstructionsLength: 0
SplineSet
0 429 m 5
 0 429 l 5
 26 464 91 572 140 563 c 5
 140 466 l 5
 230 556 l 5
 340 474 l 5
 340 474 l 5
 340 474 l 5
 360 459 l 5
 340 439 l 5
 340 110 l 5
 370 80 l 5
 290 0 l 5
 210 80 l 5
 240 110 l 5
 240 389 l 5
 149 450 l 5
 140 441 l 5
 140 113 l 5
 173 80 l 5
 93 0 l 5
 13 80 l 5
 40 107 l 5
 40 454 l 5
 25 449 0 429 0 429 c 5
EndSplineSet
EndUndoOperation
UndoOperation
Index: 6
Type: 1
WasModified: 1
WasOrder2: 0
Layer: 2
Width: 380
VWidth: 0
LBearingChange: 0
UnicodeEnc: 0
InstructionsLength: 0
SplineSet
0 428.654296875 m 5
 0 428.654296875 l 5
 26.294921875 464.08203125 91.0146484375 572.413085938 139.607421875 563.173828125 c 5
 139.607421875 466.130859375 l 5
 229.607421875 556.130859375 l 5
 339.970703125 473.62890625 l 5
 340.001953125 473.654296875 l 5
 340.001953125 473.60546875 l 5
 360.001953125 458.654296875 l 5
 339.966796875 438.618164062 l 5
 339.630859375 110.37109375 l 5
 370.001953125 80 l 5
 290.001953125 0 l 5
 210.001953125 80 l 5
 239.662109375 109.66015625 l 5
 240 388.654296875 l 5
 148.5546875 450.1171875 l 5
 139.607421875 441.172851562 l 5
 139.607421875 113.4140625 l 5
 173.021484375 80 l 5
 93.021484375 0 l 5
 13.01953125 80 l 5
 39.60546875 106.584960938 l 5
 39.60546875 453.514648438 l 5
 24.3408203125 448.133789062 0 428.654296875 0 428.654296875 c 5
EndSplineSet
EndUndoOperation
UndoOperation
Index: 7
Type: 1
WasModified: 1
WasOrder2: 0
Layer: 2
Width: 380
VWidth: 0
LBearingChange: 0
UnicodeEnc: 0
InstructionsLength: 0
SplineSet
0 664.923828125 m 5
 0 664.923828125 l 5
 26.294921875 700.3515625 91.0146484375 808.682617188 139.607421875 799.443359375 c 5
 139.607421875 702.400390625 l 5
 229.607421875 792.400390625 l 5
 339.970703125 709.8984375 l 5
 340.001953125 709.923828125 l 5
 340.001953125 709.875 l 5
 360.001953125 694.923828125 l 5
 339.966796875 674.887695312 l 5
 339.630859375 346.640625 l 5
 370.001953125 316.26953125 l 5
 290.001953125 236.26953125 l 5
 210.001953125 316.26953125 l 5
 239.662109375 345.9296875 l 5
 240 624.923828125 l 5
 148.5546875 686.38671875 l 5
 139.607421875 677.442382812 l 5
 139.607421875 349.68359375 l 5
 173.021484375 316.26953125 l 5
 93.021484375 236.26953125 l 5
 13.01953125 316.26953125 l 5
 39.60546875 342.854492188 l 5
 39.60546875 689.784179688 l 5
 24.3408203125 684.403320312 0 664.923828125 0 664.923828125 c 5
EndSplineSet
EndUndoOperation
UndoOperation
Index: 8
Type: 1
WasModified: 1
WasOrder2: 0
Layer: 2
Width: 380
VWidth: 0
LBearingChange: 0
UnicodeEnc: 0
InstructionsLength: 0
EndUndoOperation
UndoOperation
Index: 9
Type: 3
WasModified: 1
WasOrder2: 0
Layer: 2
EndUndoOperation
UndoOperation
Index: 10
Type: 1
WasModified: 1
WasOrder2: 0
Layer: 2
Width: 380
VWidth: 0
LBearingChange: 0
UnicodeEnc: 0
InstructionsLength: 0
SplineSet
166 499 m 1052
134 566 m 5,0,1
 136 566 138 565 140 563 c 5,2,-1
 140 466 l 5,3,-1
 166 492 l 4,0,0
 230 556 l 5,4,-1
 360 459 l 5,5,-1
 340 439 l 5,6,-1
 340 110 l 5,7,-1
 370 80 l 5,8,-1
 290 0 l 5,9,-1
 210 80 l 5,10,-1
 240 110 l 5,11,-1
 240 389 l 5,12,-1
 149 450 l 5,13,-1
 140 441 l 5,14,-1
 140 113 l 5,15,-1
 173 80 l 5,16,-1
 93 0 l 5,17,-1
 13 80 l 5,18,-1
 40 107 l 5,19,-1
 40 454 l 5,20,21
 25 449 0 429 0 429 c 5,22,23
 0 429 101 566 134 566 c 5,24,25
 134 566 134 566 134 566 c 5,0,1
EndSplineSet
EndUndoOperation
UndoOperation
Index: 11
Type: 1
WasModified: 1
WasOrder2: 0
Layer: 2
Width: 380
VWidth: 0
LBearingChange: 0
UnicodeEnc: 0
InstructionsLength: 0
SplineSet
166 499 m 1052
134 566 m 1,0,1
 136 566 138 565 140 563 c 1,2,-1
 140 466 l 1,3,-1
 166 492 l 0,0,0
 230 556 l 1,4,-1
 360 459 l 1,5,-1
 340 439 l 1,6,-1
 340 110 l 1,7,-1
 370 80 l 1,8,-1
 290 0 l 1,9,-1
 210 80 l 1,10,-1
 240 110 l 1,11,-1
 240 389 l 1,12,-1
 149 450 l 1,13,-1
 140 441 l 1,14,-1
 140 113 l 1,15,-1
 173 80 l 1,16,-1
 93 0 l 1,17,-1
 13 80 l 1,18,-1
 40 107 l 1,19,-1
 40 454 l 1,20,21
 25 449 0 429 0 429 c 1,22,23
 0 429 101 566 134 566 c 1,24,25
 134 566 134 566 134 566 c 1,0,1
EndSplineSet
EndUndoOperation
UndoOperation
Index: 12
Type: 1
WasModified: 1
WasOrder2: 0
Layer: 2
Width: 380
VWidth: 0
LBearingChange: 0
UnicodeEnc: 0
InstructionsLength: 0
SplineSet
134 566 m 1
 136 566 138 565 140 563 c 1
 140 466 l 1
 166 492 l 4
 230 556 l 1
 360 459 l 1
 340 439 l 1
 340 110 l 1
 370 80 l 1
 290 0 l 1
 210 80 l 1
 240 110 l 1
 240 389 l 1
 149 450 l 1
 140 441 l 1
 140 113 l 1
 173 80 l 1
 93 0 l 1
 13 80 l 1
 40 107 l 1
 40 454 l 1
 25 449 0 429 0 429 c 1
 0 429 101 566 134 566 c 1
 134 566 134 566 134 566 c 1
EndSplineSet
EndUndoOperation
UndoOperation
Index: 13
Type: 1
WasModified: 1
WasOrder2: 0
Layer: 2
Width: 380
VWidth: 0
LBearingChange: 0
UnicodeEnc: 0
InstructionsLength: 0
SplineSet
134 566 m 1
 136 566 138 565 140 563 c 1
 140 466 l 1
 166 492 l 4
 230 556 l 1
 360 459 l 1
 340 439 l 1
 340 110 l 1
 370 80 l 1
 290 0 l 1
 210 80 l 1
 240 110 l 1
 240 389 l 1
 149 450 l 1
 140 441 l 1
 140 113 l 1
 173 80 l 1
 93 0 l 1
 13 80 l 1
 40 107 l 1
 40 454 l 1
 25 449 0 429 0 429 c 1
 0 429 101 566 134 566 c 1
 134 566 134 566 134 566 c 1
EndSplineSet
EndUndoOperation
UndoOperation
Index: 14
Type: 1
WasModified: 0
WasOrder2: 0
Layer: 2
Width: 380
VWidth: 0
LBearingChange: 0
UnicodeEnc: 0
InstructionsLength: 0
SplineSet
134 566 m 5
 136 566 138 565 140 563 c 5
 140 466 l 5
 230 556 l 5
 360 459 l 5
 340 439 l 5
 340 110 l 5
 370 80 l 5
 290 0 l 5
 210 80 l 5
 240 110 l 5
 240 389 l 5
 149 450 l 5
 140 441 l 5
 140 113 l 5
 173 80 l 5
 93 0 l 5
 13 80 l 5
 40 107 l 5
 40 454 l 5
 25 449 0 429 0 429 c 5
 0 429 101 566 134 566 c 5
 134 566 134 566 134 566 c 5
EndSplineSet
EndUndoOperation
UndoOperation
Index: 15
Type: 1
WasModified: 1
WasOrder2: 0
Layer: 2
Width: 380
VWidth: 0
LBearingChange: 0
UnicodeEnc: 0
InstructionsLength: 0
SplineSet
134 566 m 5
 134 566 l 6
 136 566 138 565 140 563 c 6
 140 466 l 5
 230 556 l 5
 360 459 l 5
 340 439 l 5
 340 110 l 5
 370 80 l 5
 290 0 l 5
 210 80 l 5
 240 110 l 5
 240 389 l 5
 149 450 l 5
 140 441 l 5
 140 113 l 5
 173 80 l 5
 93 0 l 5
 13 80 l 5
 40 107 l 5
 40 454 l 5
 25 449 0 429 0 429 c 5
 0 429 101 566 134 566 c 4
 134 566 134 566 134 566 c 5
EndSplineSet
EndUndoOperation
EndUndoes
Redoes
EndRedoes
EndUndoRedoHistory
Fore
SplineSet
340 474 m 1
 360 459 l 1
 340 439 l 1
 340 110 l 1
 370 80 l 1
 290 0 l 1
 210 80 l 1
 240 110 l 1
 240 389 l 1
 149 450 l 1
 140 441 l 1
 140 113 l 1
 173 80 l 1
 93 0 l 1
 13 80 l 1
 40 107 l 1
 40 454 l 1
 25 449 0 429 0 429 c 1
 25 463 86 564 134 564 c 0
 136 564 138 563 140 563 c 1
 140 466 l 1
 230 556 l 1
 340 474 l 1
EndSplineSet
EndChar

StartChar: o
Encoding: 111 111 14
Width: 380
VWidth: 0
Flags: HW
LayerCount: 2
UndoRedoHistory
Layer: 1
Undoes
UndoOperation
Index: 0
Type: 1
WasModified: 1
WasOrder2: 0
Layer: 2
Width: 380
VWidth: 0
LBearingChange: 0
UnicodeEnc: 0
InstructionsLength: 0
SplineSet
196 574 m 1
 203 567 l 1
 363 407 l 1
 353 397 l 1
 353 221 l 1
 366 234 l 1
 380 220 l 1
 160 0 l 1
 146 14 l 1
 -7 167 l 1
 3 177 l 1
 3 353 l 1
 -10 340 l 1
 -24 354 l 1
 196 574 l 1
110 460 m 1
 103 453 l 1
 103 257 l 1
 246 114 l 1
 253 121 l 1
 253 317 l 1
 110 460 l 1
EndSplineSet
EndUndoOperation
EndUndoes
Redoes
EndRedoes
EndUndoRedoHistory
Fore
SplineSet
196 574 m 1
 203 567 l 1
 363 407 l 1
 353 397 l 1
 353 221 l 1
 366 234 l 1
 380 220 l 1
 160 0 l 1
 146 14 l 1
 -7 167 l 1
 3 177 l 1
 3 353 l 1
 -10 340 l 1
 -24 354 l 1
 196 574 l 1
110 460 m 1
 103 453 l 1
 103 257 l 1
 246 114 l 1
 253 121 l 1
 253 317 l 1
 110 460 l 1
EndSplineSet
Validated: 1
EndChar

StartChar: p
Encoding: 112 112 15
Width: 430
VWidth: 0
Flags: HW
LayerCount: 2
UndoRedoHistory
Layer: 1
Undoes
UndoOperation
Index: 0
Type: 1
WasModified: 1
WasOrder2: 0
Layer: 2
Width: 430
VWidth: 0
LBearingChange: 0
UnicodeEnc: 0
InstructionsLength: 0
SplineSet
145 580 m 4
 147 580 149 579 150 577 c 6
 150 482 l 5
 242 575 l 5
 255 562 l 5
 410 407 l 5
 400 397 l 5
 400 221 l 5
 413 234 l 5
 427 220 l 5
 207 0 l 5
 193 14 l 5
 150 57 l 5
 150 -169 l 5
 180 -200 l 5
 100 -280 l 5
 20 -200 l 5
 50 -170 l 5
 50 157 l 5
 30 177 l 5
 50 197 l 5
 50 467 l 6
 35 462 10 442 10 442 c 5
 10 442 112 580 144 580 c 0
 145 580 l 4
155 462 m 5
 150 457 l 5
 150 257 l 5
 293 114 l 5
 300 121 l 5
 300 317 l 5
 155 462 l 5
EndSplineSet
EndUndoOperation
EndUndoes
Redoes
EndRedoes
EndUndoRedoHistory
Fore
SplineSet
145 580 m 0
 147 580 149 579 150 577 c 2
 150 482 l 1
 242 575 l 1
 255 562 l 1
 410 407 l 1
 400 397 l 1
 400 221 l 1
 413 234 l 1
 427 220 l 1
 207 0 l 1
 193 14 l 1
 150 57 l 1
 150 -169 l 1
 180 -200 l 1
 100 -280 l 1
 20 -200 l 1
 50 -170 l 1
 50 157 l 1
 30 177 l 1
 50 197 l 1
 50 467 l 2
 35 462 10 442 10 442 c 1
 10 442 112 580 144 580 c 0
 145 580 l 0
155 462 m 1
 150 457 l 1
 150 257 l 1
 293 114 l 1
 300 121 l 1
 300 317 l 1
 155 462 l 1
EndSplineSet
Validated: 1
EndChar

StartChar: q
Encoding: 113 113 16
Width: 420
VWidth: 0
Flags: HW
LayerCount: 2
UndoRedoHistory
Layer: 1
Undoes
UndoOperation
Index: 0
Type: 1
WasModified: 1
WasOrder2: 0
Layer: 2
Width: 420
VWidth: 0
LBearingChange: 0
UnicodeEnc: 0
InstructionsLength: 0
SplineSet
230 574 m 5
 244 560 l 5
 397 407 l 5
 387 397 l 5
 387 221 l 5
 400 234 l 5
 414 220 l 5
 387 193 l 5
 387 -169 l 5
 417 -200 l 5
 337 -280 l 5
 257 -200 l 5
 287 -170 l 5
 287 93 l 5
 194 0 l 5
 180 14 l 5
 37 157 l 5
 17 177 l 5
 37 197 l 5
 37 353 l 5
 24 340 l 5
 10 354 l 5
 230 574 l 5
144 460 m 5
 137 453 l 5
 137 257 l 5
 280 114 l 5
 287 121 l 5
 287 317 l 5
 144 460 l 5
EndSplineSet
EndUndoOperation
EndUndoes
Redoes
EndRedoes
EndUndoRedoHistory
Fore
SplineSet
230 574 m 1
 244 560 l 1
 397 407 l 1
 387 397 l 1
 387 221 l 1
 400 234 l 1
 414 220 l 1
 387 193 l 1
 387 -169 l 1
 417 -200 l 1
 337 -280 l 1
 257 -200 l 1
 287 -170 l 1
 287 93 l 1
 194 0 l 1
 180 14 l 1
 37 157 l 1
 17 177 l 1
 37 197 l 1
 37 353 l 1
 24 340 l 1
 10 354 l 1
 230 574 l 1
144 460 m 1
 137 453 l 1
 137 257 l 1
 280 114 l 1
 287 121 l 1
 287 317 l 1
 144 460 l 1
EndSplineSet
Validated: 1
EndChar

StartChar: r
Encoding: 114 114 17
Width: 360
VWidth: 0
Flags: HW
LayerCount: 2
UndoRedoHistory
Layer: 1
Undoes
UndoOperation
Index: 0
Type: 1
WasModified: 1
WasOrder2: 0
Layer: 2
Width: 360
VWidth: 0
LBearingChange: 0
UnicodeEnc: 0
InstructionsLength: 0
SplineSet
145 559 m 4
 147 559 149 558 150 556 c 6
 150 451 l 5
 248 549 l 5
 260 536 l 5
 360 436 l 6
 360 386 235 271 220 271 c 5
 230 276 260 326 260 336 c 6
 160 436 l 5
 150 426 l 5
 150 111 l 5
 181 80 l 5
 101 0 l 5
 21 80 l 5
 50 109 l 5
 50 446 l 6
 35 441 10 421 10 421 c 5
 10 421 112 559 144 559 c 0
 145 559 l 4
EndSplineSet
EndUndoOperation
EndUndoes
Redoes
EndRedoes
EndUndoRedoHistory
Fore
SplineSet
145 559 m 0
 147 559 149 558 150 556 c 2
 150 451 l 1
 248 549 l 1
 260 536 l 1
 360 436 l 2
 360 386 235 271 220 271 c 1
 230 276 260 326 260 336 c 2
 160 436 l 1
 150 426 l 1
 150 111 l 1
 181 80 l 1
 101 0 l 1
 21 80 l 1
 50 109 l 1
 50 446 l 2
 35 441 10 421 10 421 c 1
 10 421 112 559 144 559 c 0
 145 559 l 0
EndSplineSet
Validated: 1
EndChar

StartChar: s
Encoding: 115 115 18
Width: 410
VWidth: 0
Flags: HW
LayerCount: 2
UndoRedoHistory
Layer: 1
Undoes
UndoOperation
Index: 0
Type: 1
WasModified: 1
WasOrder2: 0
Layer: 2
Width: 410
VWidth: 0
LBearingChange: 0
UnicodeEnc: 0
InstructionsLength: 0
SplineSet
151 200 m 1
 109 242 68 283 26 325 c 1
 251 550 l 1
 351 550 l 1
 391 515 l 2
 392 514 393 514 395 514 c 0
 408 514 441 540 441 540 c 1
 441 540 340 402 307 402 c 0
 305 402 303 403 301 405 c 1
 251 450 l 1
 176 450 l 1
 151 425 l 1
 151 400 l 1
 239 313 l 1
 306 380 l 1
 406 280 l 1
 406 205 l 1
 406 180 l 1
 226 0 l 1
 126 0 l 1
 92 27 46 70 11 90 c 0
 10 91 9 91 7 91 c 0
 -6 91 -39 65 -39 65 c 1
 -39 65 62 203 95 203 c 0
 97 203 99 202 101 200 c 1
 226 100 l 1
 301 100 l 1
 306 105 l 1
 306 180 l 1
 219 267 l 1
 151 200 l 1
EndSplineSet
EndUndoOperation
EndUndoes
Redoes
EndRedoes
EndUndoRedoHistory
Fore
SplineSet
151 200 m 1
 109 242 68 283 26 325 c 1
 251 550 l 1
 351 550 l 1
 391 515 l 2
 392 514 393 514 395 514 c 0
 408 514 441 540 441 540 c 1
 441 540 340 402 307 402 c 0
 305 402 303 403 301 405 c 1
 251 450 l 1
 176 450 l 1
 151 425 l 1
 151 400 l 1
 239 313 l 1
 306 380 l 1
 406 280 l 1
 406 205 l 1
 406 180 l 1
 226 0 l 1
 126 0 l 1
 92 27 46 70 11 90 c 0
 10 91 9 91 7 91 c 0
 -6 91 -39 65 -39 65 c 1
 -39 65 62 203 95 203 c 0
 97 203 99 202 101 200 c 1
 226 100 l 1
 301 100 l 1
 306 105 l 1
 306 180 l 1
 219 267 l 1
 151 200 l 1
EndSplineSet
Validated: 1
EndChar

StartChar: t
Encoding: 116 116 19
Width: 220
VWidth: 0
Flags: HW
LayerCount: 2
UndoRedoHistory
Layer: 1
Undoes
UndoOperation
Index: 0
Type: 1
WasModified: 1
WasOrder2: 0
Layer: 2
Width: 220
VWidth: 0
LBearingChange: 0
UnicodeEnc: 0
InstructionsLength: 0
SplineSet
130 668 m 0
 132 668 134 667 135 665 c 2
 135 525 l 1
 220 525 l 1
 135 440 l 1
 135 125 l 1
 170 100 l 1
 170 100 181 93 196 93 c 0
 203 93 212 95 220 100 c 1
 203 70 145 2 70 0 c 1
 35 25 l 1
 35 425 l 1
 -40 425 l 1
 35 500 l 1
 35 555 l 2
 20 550 -5 530 -5 530 c 1
 -5 530 97 668 129 668 c 0
 130 668 l 0
EndSplineSet
EndUndoOperation
EndUndoes
Redoes
EndRedoes
EndUndoRedoHistory
Fore
SplineSet
130 668 m 0
 132 668 134 667 135 665 c 2
 135 525 l 1
 220 525 l 1
 135 440 l 1
 135 125 l 1
 170 100 l 1
 170 100 181 93 196 93 c 0
 203 93 212 95 220 100 c 1
 203 70 145 2 70 0 c 1
 35 25 l 1
 35 425 l 1
 -40 425 l 1
 35 500 l 1
 35 555 l 2
 20 550 -5 530 -5 530 c 1
 -5 530 97 668 129 668 c 0
 130 668 l 0
EndSplineSet
Validated: 1
EndChar

StartChar: u
Encoding: 117 117 20
Width: 420
VWidth: 0
Flags: HW
LayerCount: 2
UndoRedoHistory
Layer: 1
Undoes
UndoOperation
Index: 0
Type: 1
WasModified: 1
WasOrder2: 0
Layer: 2
Width: 420
VWidth: 0
LBearingChange: 0
UnicodeEnc: 0
InstructionsLength: 0
SplineSet
90 550 m 5
 170 470 l 5
 139 439 l 5
 139 215 l 5
 265 113 l 5
 269 117 l 5
 269 440 l 5
 240 470 l 5
 320 550 l 5
 400 470 l 5
 369 440 l 5
 369 100 l 5
 369 100 380 93 395 93 c 0
 402 93 411 95 419 100 c 5
 402 70 344 2 269 0 c 5
 269 88 l 5
 182 0 l 5
 179 2 l 5
 177 0 l 5
 165 12 l 5
 165 13 l 5
 27 125 l 5
 39 138 l 5
 39 441 l 5
 10 470 l 5
 90 550 l 5
EndSplineSet
EndUndoOperation
EndUndoes
Redoes
EndRedoes
EndUndoRedoHistory
Fore
SplineSet
90 550 m 1
 170 470 l 1
 139 439 l 1
 139 215 l 1
 265 113 l 1
 269 117 l 1
 269 440 l 1
 240 470 l 1
 320 550 l 1
 400 470 l 1
 369 440 l 1
 369 100 l 1
 369 100 380 93 395 93 c 0
 402 93 411 95 419 100 c 1
 402 70 344 2 269 0 c 1
 269 88 l 1
 182 0 l 1
 179 2 l 1
 177 0 l 1
 165 12 l 1
 165 13 l 1
 27 125 l 1
 39 138 l 1
 39 441 l 1
 10 470 l 1
 90 550 l 1
EndSplineSet
Validated: 1
EndChar

StartChar: v
Encoding: 118 118 21
Width: 420
VWidth: 0
Flags: HW
LayerCount: 2
UndoRedoHistory
Layer: 1
Undoes
UndoOperation
Index: 0
Type: 1
WasModified: 1
WasOrder2: 0
Layer: 2
Width: 420
VWidth: 0
LBearingChange: 0
UnicodeEnc: 0
InstructionsLength: 0
SplineSet
90 550 m 5
 170 470 l 5
 138 438 l 5
 138 250 l 5
 276 112 l 5
 288 125 l 5
 288 444 l 5
 263 470 l 5
 343 550 l 5
 423 470 l 5
 388 436 l 5
 388 225 l 5
 388 200 l 5
 188 0 l 5
 28 160 l 5
 38 170 l 5
 38 442 l 5
 10 470 l 5
 90 550 l 5
EndSplineSet
EndUndoOperation
EndUndoes
Redoes
EndRedoes
EndUndoRedoHistory
Fore
SplineSet
90 550 m 1
 170 470 l 1
 138 438 l 1
 138 250 l 1
 276 112 l 1
 288 125 l 1
 288 444 l 1
 263 470 l 1
 343 550 l 1
 423 470 l 1
 388 436 l 1
 388 225 l 1
 388 200 l 1
 188 0 l 1
 28 160 l 1
 38 170 l 1
 38 442 l 1
 10 470 l 1
 90 550 l 1
EndSplineSet
Validated: 1
EndChar

StartChar: w
Encoding: 119 119 22
Width: 480
VWidth: 0
Flags: HW
LayerCount: 2
UndoRedoHistory
Layer: 1
Undoes
UndoOperation
Index: 0
Type: 1
WasModified: 1
WasOrder2: 0
Layer: 2
Width: 480
VWidth: 0
LBearingChange: 0
UnicodeEnc: 0
InstructionsLength: 0
SplineSet
70 556 m 1
 150 476 l 1
 120 446 l 1
 120 176 l 1
 190 110 l 1
 190 445 l 1
 160 476 l 1
 240 556 l 1
 320 476 l 1
 290 446 l 1
 290 176 l 1
 360 110 l 1
 360 446 l 1
 330 476 l 1
 410 556 l 1
 490 476 l 1
 460 445 l 1
 460 179 l 1
 273 -3 l 1
 245 28 217.444860923 59.5551390768 188 89 c 5
 100 1 l 1
 -5 106 l 1
 20 127 l 1
 20 446 l 1
 -10 476 l 1
 70 556 l 1
EndSplineSet
EndUndoOperation
UndoOperation
Index: 1
Type: 1
WasModified: 0
WasOrder2: 0
Layer: 2
Width: 480
VWidth: 0
LBearingChange: 0
UnicodeEnc: 0
InstructionsLength: 0
SplineSet
70 556 m 1
 150 476 l 1
 120 446 l 1
 120 176 l 1
 190 110 l 1
 190 445 l 1
 160 476 l 1
 240 556 l 1
 320 476 l 1
 290 446 l 1
 290 176 l 1
 360 110 l 1
 360 446 l 1
 330 476 l 1
 410 556 l 1
 490 476 l 1
 460 445 l 1
 460 179 l 1
 273 -3 l 5
 244.751793216 27.6047588788 217.444860923 59.5551390768 188 89 c 1
 100 1 l 1
 -5 106 l 1
 20 127 l 1
 20 446 l 1
 -10 476 l 1
 70 556 l 1
EndSplineSet
EndUndoOperation
UndoOperation
Index: 2
Type: 1
WasModified: 0
WasOrder2: 0
Layer: 2
Width: 480
VWidth: 0
LBearingChange: 0
UnicodeEnc: 0
InstructionsLength: 0
SplineSet
70 556 m 5
 150 476 l 5
 120 446 l 5
 120 176 l 5
 190 110 l 5
 190 445 l 5
 160 476 l 5
 240 556 l 5
 320 476 l 5
 290 446 l 5
 290 176 l 5
 360 110 l 5
 360 446 l 5
 330 476 l 5
 410 556 l 5
 490 476 l 5
 460 445 l 5
 460 199 l 5
 460 190 l 5
 460 179 l 5
 273 -3 l 5
 261 10 l 5
 261 10 l 5
 190 87 l 5
 190 87 l 5
 190 87 l 5
 188 89 l 5
 100 1 l 5
 -5 106 l 5
 20 127 l 5
 20 446 l 5
 -10 476 l 5
 70 556 l 5
EndSplineSet
EndUndoOperation
EndUndoes
Redoes
EndRedoes
EndUndoRedoHistory
Fore
SplineSet
70 556 m 1
 150 476 l 1
 120 446 l 1
 120 176 l 1
 190 110 l 1
 190 445 l 1
 160 476 l 1
 240 556 l 1
 320 476 l 1
 290 446 l 1
 290 176 l 1
 360 110 l 1
 360 446 l 1
 330 476 l 1
 410 556 l 1
 490 476 l 1
 460 445 l 1
 460 179 l 1
 273 -3 l 1
 245 28 217 60 188 89 c 1
 100 1 l 1
 -5 106 l 1
 20 127 l 1
 20 446 l 1
 -10 476 l 1
 70 556 l 1
EndSplineSet
EndChar

StartChar: x
Encoding: 120 120 23
Width: 420
VWidth: 0
Flags: HW
LayerCount: 2
UndoRedoHistory
Layer: 1
Undoes
UndoOperation
Index: 0
Type: 1
WasModified: 1
WasOrder2: 0
Layer: 2
Width: 420
VWidth: 0
LBearingChange: 0
UnicodeEnc: 0
InstructionsLength: 0
SplineSet
90 566 m 5
 170 486 l 5
 140 456 l 5
 140 424 l 5
 250 341 l 5
 290 379 l 5
 290 453 l 5
 256 486 l 5
 336 566 l 5
 416 486 l 5
 336 406 l 5
 335 407 l 5
 290 361 l 5
 261 333 l 5
 390 236 l 5
 390 110 l 5
 420 80 l 5
 340 0 l 5
 260 80 l 5
 290 110 l 5
 290 136 l 5
 161 233 l 5
 140 211 l 5
 140 110 l 5
 170 80 l 5
 90 0 l 5
 10 80 l 5
 40 110 l 5
 40 136 l 5
 41 137 l 5
 149 242 l 5
 40 324 l 5
 40 457 l 5
 10 486 l 5
 90 566 l 5
EndSplineSet
EndUndoOperation
EndUndoes
Redoes
EndRedoes
EndUndoRedoHistory
Fore
SplineSet
90 566 m 1
 170 486 l 1
 140 456 l 1
 140 424 l 1
 250 341 l 1
 290 379 l 1
 290 453 l 1
 256 486 l 1
 336 566 l 1
 416 486 l 1
 336 406 l 1
 335 407 l 1
 290 361 l 1
 261 333 l 1
 390 236 l 1
 390 110 l 1
 420 80 l 1
 340 0 l 1
 260 80 l 1
 290 110 l 1
 290 136 l 1
 161 233 l 1
 140 211 l 1
 140 110 l 1
 170 80 l 1
 90 0 l 1
 10 80 l 1
 40 110 l 1
 40 136 l 1
 41 137 l 1
 149 242 l 1
 40 324 l 1
 40 457 l 1
 10 486 l 1
 90 566 l 1
EndSplineSet
Validated: 1
EndChar

StartChar: y
Encoding: 121 121 24
Width: 380
VWidth: 0
Flags: HW
LayerCount: 2
UndoRedoHistory
Layer: 1
Undoes
UndoOperation
Index: 0
Type: 1
WasModified: 1
WasOrder2: 0
Layer: 2
Width: 380
VWidth: 0
LBearingChange: 0
UnicodeEnc: 0
InstructionsLength: 0
SplineSet
70 545 m 1
 150 465 l 1
 120 435 l 1
 120 260 l 1
 250 134 l 1
 250 433 l 1
 218 465 l 1
 298 545 l 1
 378 465 l 1
 350 437 l 1
 350 215 l 1
 363 227 l 1
 377 213 l 1
 350 187 l 1
 350 -150 l 1
 300 -200 l 1
 200 -300 l 1
 50 -150 l 2
 49 -149 48 -149 46 -149 c 0
 33 -149 0 -175 0 -175 c 1
 0 -175 101 -37 134 -37 c 0
 137 -37 138 -38 140 -40 c 2
 250 -150 l 1
 250 91 l 1
 170 15 l 1
 20 160 l 1
 20 435 l 1
 -10 465 l 1
 70 545 l 1
EndSplineSet
EndUndoOperation
EndUndoes
Redoes
EndRedoes
EndUndoRedoHistory
Fore
SplineSet
70 545 m 1
 150 465 l 1
 120 435 l 1
 120 260 l 1
 250 134 l 1
 250 433 l 1
 218 465 l 1
 298 545 l 1
 378 465 l 1
 350 437 l 1
 350 215 l 1
 363 227 l 1
 377 213 l 1
 350 187 l 1
 350 -150 l 1
 300 -200 l 1
 200 -300 l 1
 50 -150 l 2
 49 -149 48 -149 46 -149 c 0
 33 -149 0 -175 0 -175 c 1
 0 -175 101 -37 134 -37 c 0
 137 -37 138 -38 140 -40 c 2
 250 -150 l 1
 250 91 l 1
 170 15 l 1
 20 160 l 1
 20 435 l 1
 -10 465 l 1
 70 545 l 1
EndSplineSet
Validated: 1
EndChar

StartChar: z
Encoding: 122 122 25
Width: 440
VWidth: 0
Flags: HW
LayerCount: 2
UndoRedoHistory
Layer: 1
Undoes
UndoOperation
Index: 0
Type: 1
WasModified: 1
WasOrder2: 0
Layer: 2
Width: 440
VWidth: 0
LBearingChange: 0
UnicodeEnc: 0
InstructionsLength: 0
SplineSet
100 550 m 5
 450 550 l 5
 475 550 l 5
 462 538 l 5
 298 350 l 5
 375 350 l 5
 275 250 l 5
 210 250 l 5
 78 100 l 5
 430 100 l 5
 450 120 l 5
 450 105 l 5
 445 100 l 5
 345 0 l 5
 -10 0 l 5
 -35 0 l 5
 185 250 l 5
 75 250 l 5
 175 350 l 5
 274 350 l 5
 362 450 l 5
 0 450 l 5
 100 550 l 5
EndSplineSet
EndUndoOperation
EndUndoes
Redoes
EndRedoes
EndUndoRedoHistory
Fore
SplineSet
100 550 m 1
 450 550 l 1
 475 550 l 1
 462 538 l 1
 298 350 l 1
 375 350 l 1
 275 250 l 1
 210 250 l 1
 78 100 l 1
 430 100 l 1
 450 120 l 1
 450 105 l 1
 445 100 l 1
 345 0 l 1
 -10 0 l 1
 -35 0 l 1
 185 250 l 1
 75 250 l 1
 175 350 l 1
 274 350 l 1
 362 450 l 1
 0 450 l 1
 100 550 l 1
EndSplineSet
Validated: 1
EndChar

StartChar: A
Encoding: 65 65 26
Width: 680
VWidth: 0
Flags: HW
LayerCount: 2
UndoRedoHistory
Layer: 1
Undoes
UndoOperation
Index: 0
Type: 1
WasModified: 1
WasOrder2: 0
Layer: 2
Width: 680
VWidth: 0
LBearingChange: 0
UnicodeEnc: 0
InstructionsLength: 0
SplineSet
402 819 m 0
 469 817 530 790 576 733 c 0
 612 682 647 619 657 551 c 1
 656 111 l 1
 687 80 l 1
 607 0 l 1
 580 27 554 53 527 80 c 1
 556 109 l 1
 556 300 l 1
 432 300 l 1
 432 89 l 1
 422 89 l 1
 422 300 l 1
 297 300 l 1
 227 300 l 1
 227 113 l 1
 260 80 l 1
 180 -0 l 1
 128 51 l 1
 127 50 l 1
 127 53 l 1
 100 80 l 1
 127 107 l 1
 127 465 l 1
 127 495 l 1
 153 591 205 674 268 734 c 1
 266 734 265 734 263 734 c 0
 213 734 150 710 117 697 c 0
 106 693 88 681 83 678 c 1
 131 735 304 819 402 819 c 0
344 714 m 0
 312 714 280 705 254 681 c 0
 243 672 234 660 227 647 c 1
 227 539 l 1
 422 539 l 1
 422 692 l 1
 398 706 371 714 344 714 c 0
432 686 m 1
 432 400 l 1
 556 400 l 1
 556 510 l 1
 550 527 543 543 535 559 c 0
 512 612 475 658 432 686 c 1
137 590 m 1
 127 585 97 535 97 525 c 2
 97 170 l 2
 97 120 -28 5 -43 5 c 1
 -33 10 -3 60 -3 70 c 2
 -3 175 l 1
 -29 174 -79 155 -88 145 c 1
 -88 169 -31 219 -3 225 c 1
 -3 325 l 1
 -29 324 -79 305 -88 295 c 1
 -88 319 -31 369 -3 375 c 1
 -3 425 l 2
 -3 475 122 590 137 590 c 1
227 529 m 1
 227 504 l 1
 422 504 l 1
 422 529 l 1
 227 529 l 1
227 494 m 1
 227 400 l 1
 422 400 l 1
 422.272460938 493.700195312 l 5
 227 494 l 1
EndSplineSet
EndUndoOperation
EndUndoes
Redoes
EndRedoes
EndUndoRedoHistory
Fore
SplineSet
402 819 m 0
 469 817 530 790 576 733 c 0
 612 682 647 619 657 551 c 1
 656 111 l 1
 687 80 l 1
 607 0 l 1
 580 27 554 53 527 80 c 1
 556 109 l 1
 556 300 l 1
 432 300 l 1
 432 89 l 1
 422 89 l 1
 422 300 l 1
 297 300 l 1
 227 300 l 1
 227 113 l 1
 260 80 l 1
 180 -0 l 1
 128 51 l 1
 127 50 l 1
 127 53 l 1
 100 80 l 1
 127 107 l 1
 127 465 l 1
 127 495 l 1
 153 591 205 674 268 734 c 1
 266 734 265 734 263 734 c 0
 213 734 150 710 117 697 c 0
 106 693 88 681 83 678 c 1
 131 735 304 819 402 819 c 0
344 714 m 0
 312 714 280 705 254 681 c 0
 243 672 234 660 227 647 c 1
 227 539 l 1
 422 539 l 1
 422 692 l 1
 398 706 371 714 344 714 c 0
432 686 m 1
 432 400 l 1
 556 400 l 1
 556 510 l 1
 550 527 543 543 535 559 c 0
 512 612 475 658 432 686 c 1
137 590 m 1
 127 585 97 535 97 525 c 2
 97 170 l 2
 97 120 -28 5 -43 5 c 1
 -33 10 -3 60 -3 70 c 2
 -3 175 l 1
 -29 174 -79 155 -88 145 c 1
 -88 169 -31 219 -3 225 c 1
 -3 325 l 1
 -29 324 -79 305 -88 295 c 1
 -88 319 -31 369 -3 375 c 1
 -3 425 l 2
 -3 475 122 590 137 590 c 1
227 529 m 1
 227 504 l 1
 422 504 l 1
 422 529 l 1
 227 529 l 1
227 494 m 1
 227 400 l 1
 422 400 l 1
 422 494 l 1
 227 494 l 1
EndSplineSet
EndChar

StartChar: B
Encoding: 66 66 27
Width: 590
VWidth: 0
Flags: HW
LayerCount: 2
UndoRedoHistory
Layer: 1
Undoes
UndoOperation
Index: 0
Type: 1
WasModified: 1
WasOrder2: 0
Layer: 2
Width: 590
VWidth: 0
LBearingChange: 0
UnicodeEnc: 0
InstructionsLength: 0
SplineSet
277 806 m 0
 387 806 518 780 582 656 c 1
 582 506 l 1
 582 496 l 1
 499 423 l 1
 531 399 582 331 582 331 c 1
 582 176 l 1
 407 21 l 2
 389 5 353 -1 313 -1 c 0
 253 -1 185 12 152 26 c 1
 152 606 l 1
 152 616 l 1
 243 706 l 1
 177 706 l 2
 137 706 99 687 66 665 c 1
 108 710 182 806 277 806 c 0
270 705 m 1
 252 687 l 1
 252 556 l 1
 392 556 l 1
 392 648 l 1
 348 676 299 699 270 705 c 1
167 671 m 1
 157 666 127 616 127 606 c 2
 127 171 l 2
 127 121 2 8 -13 8 c 1
 -3 13 27 63 27 73 c 2
 27 256 l 1
 1 254 -49 235 -58 226 c 1
 -58 249 -1 300 27 306 c 1
 27 406 l 1
 1 404 -49 385 -58 376 c 1
 -58 399 -1 450 27 456 c 1
 27 506 l 2
 27 556 152 671 167 671 c 1
402 641 m 1
 402 431 l 1
 481 431 l 1
 482 432 l 1
 482 556 l 2
 482 579 446 612 402 641 c 1
252 546 m 1
 252 521 l 1
 392 521 l 1
 392 546 l 1
 252 546 l 1
252 511 m 1
 252 431 l 1
 392 431 l 1
 392 511 l 1
 252 511 l 1
252 331 m 1
 252 125 l 1
 279 105 318 102 355 102 c 0
 368 102 379.678330512 102.642153569 391.127211964 102.642153569 c 4
 391.41989227 102.642153569 392 103 392 103 c 2
 392 328 l 1
 388 330 385 331 382 331 c 2
 252 331 l 1
402 321 m 1
 402 103 l 1
 428 104 452 105 471 108 c 1
 482 118 l 1
 482 231 l 1
 482 231 434 295 402 321 c 1
EndSplineSet
EndUndoOperation
EndUndoes
Redoes
EndRedoes
EndUndoRedoHistory
Fore
SplineSet
277 806 m 0
 387 806 518 780 582 656 c 1
 582 506 l 1
 582 496 l 1
 499 423 l 1
 531 399 582 331 582 331 c 1
 582 176 l 1
 407 21 l 2
 389 5 353 -1 313 -1 c 0
 253 -1 185 12 152 26 c 1
 152 606 l 1
 152 616 l 1
 243 706 l 1
 177 706 l 2
 137 706 99 687 66 665 c 1
 108 710 182 806 277 806 c 0
270 705 m 1
 252 687 l 1
 252 556 l 1
 392 556 l 1
 392 648 l 1
 348 676 299 699 270 705 c 1
167 671 m 1
 157 666 127 616 127 606 c 2
 127 171 l 2
 127 121 2 8 -13 8 c 1
 -3 13 27 63 27 73 c 2
 27 256 l 1
 1 254 -49 235 -58 226 c 1
 -58 249 -1 300 27 306 c 1
 27 406 l 1
 1 404 -49 385 -58 376 c 1
 -58 399 -1 450 27 456 c 1
 27 506 l 2
 27 556 152 671 167 671 c 1
402 641 m 1
 402 431 l 1
 481 431 l 1
 482 432 l 1
 482 556 l 2
 482 579 446 612 402 641 c 1
252 546 m 1
 252 521 l 1
 392 521 l 1
 392 546 l 1
 252 546 l 1
252 511 m 1
 252 431 l 1
 392 431 l 1
 392 511 l 1
 252 511 l 1
252 331 m 1
 252 125 l 1
 279 105 318 102 355 102 c 0
 368 102 380 103 391 103 c 0
 392 103 l 2
 392 328 l 1
 388 330 385 331 382 331 c 2
 252 331 l 1
402 321 m 1
 402 103 l 1
 428 104 452 105 471 108 c 1
 482 118 l 1
 482 231 l 1
 482 231 434 295 402 321 c 1
EndSplineSet
Validated: 1
EndChar

StartChar: C
Encoding: 67 67 28
Width: 690
VWidth: 0
Flags: HW
LayerCount: 2
UndoRedoHistory
Layer: 1
Undoes
UndoOperation
Index: 0
Type: 1
WasModified: 1
WasOrder2: 0
Layer: 2
Width: 690
VWidth: 0
LBearingChange: 0
UnicodeEnc: 0
InstructionsLength: 0
SplineSet
456 800 m 1
 581 675 l 2
 582 674 584 673 586 673 c 0
 600 673 631 700 631 700 c 1
 631 700 545 610 511 603 c 2
 511 71 l 2
 513 71 515 70 517 70 c 0
 565 70 639 87 682 107 c 1
 617 43 491 -10 400 -10 c 0
 179 -10 0 169 0 390 c 0
 0 532 106 695 235 754 c 1
 170 689 117 562 117 470 c 0
 117 258 289 80 501 71 c 1
 501 430 l 1
 336 430 l 1
 336 390 l 2
 336 355 211 240 211 240 c 1
 211 240 236 275 236 290 c 2
 236 386 l 2
 210 380 178 367 171 360 c 1
 171 379 207 414 236 431 c 2
 236 461 l 2
 210 455 178 442 171 435 c 1
 171 454 207 489 236 506 c 2
 236 580 l 1
 311 655 l 1
 381 725 l 1
 456 800 l 1
388 718 m 1
 336 665 l 1
 336 475 l 1
 501 475 l 1
 501 605 l 1
 388 718 l 1
336 465 m 1
 336 440 l 1
 501 440 l 1
 501 465 l 1
 336 465 l 1
EndSplineSet
EndUndoOperation
EndUndoes
Redoes
EndRedoes
EndUndoRedoHistory
Fore
SplineSet
456 800 m 1
 581 675 l 2
 582 674 584 673 586 673 c 0
 600 673 631 700 631 700 c 1
 631 700 545 610 511 603 c 2
 511 71 l 2
 513 71 515 70 517 70 c 0
 565 70 639 87 682 107 c 1
 617 43 491 -10 400 -10 c 0
 179 -10 0 169 0 390 c 0
 0 532 106 695 235 754 c 1
 170 689 117 562 117 470 c 0
 117 258 289 80 501 71 c 1
 501 430 l 1
 336 430 l 1
 336 390 l 2
 336 355 211 240 211 240 c 1
 211 240 236 275 236 290 c 2
 236 386 l 2
 210 380 178 367 171 360 c 1
 171 379 207 414 236 431 c 2
 236 461 l 2
 210 455 178 442 171 435 c 1
 171 454 207 489 236 506 c 2
 236 580 l 1
 311 655 l 1
 381 725 l 1
 456 800 l 1
388 718 m 1
 336 665 l 1
 336 475 l 1
 501 475 l 1
 501 605 l 1
 388 718 l 1
336 465 m 1
 336 440 l 1
 501 440 l 1
 501 465 l 1
 336 465 l 1
EndSplineSet
Validated: 1
EndChar

StartChar: D
Encoding: 68 68 29
Width: 590
VWidth: 0
Flags: HW
LayerCount: 2
UndoRedoHistory
Layer: 1
Undoes
UndoOperation
Index: 0
Type: 1
WasModified: 1
WasOrder2: 0
Layer: 2
Width: 590
VWidth: 0
LBearingChange: 0
UnicodeEnc: 0
InstructionsLength: 0
SplineSet
88 669 m 1
 166 753 258 801 349 801 c 0
 435 801 521 758 593 660 c 1
 593 505 593 350 593 195 c 1
 398 10 l 2
 392 4 341 2 288 2 c 0
 229 2 168 5 163 10 c 1
 163 610 l 1
 166 613 l 1
 161 617 l 1
 254 710 l 1
 198 710 l 2
 158 710 121 691 88 669 c 1
281 709 m 1
 263 691 l 1
 263 455 l 1
 403 455 l 1
 403 651 l 1
 359 679 310 703 281 709 c 1
178 675 m 1
 168 670 138 620 138 610 c 2
 138 175 l 2
 138 125 13 12 -2 12 c 1
 8 17 38 68 38 77 c 2
 38 260 l 2
 38 260 -38 239 -47 230 c 1
 -47 253 10 304 38 310 c 1
 38 410 l 1
 12 408 -38 389 -47 380 c 1
 -47 403 10 454 38 460 c 1
 38 510 l 2
 38 560 163 675 178 675 c 1
413 645 m 1
 413 99 l 1
 447 100 478 101 486 109 c 2
 493 115 l 1
 493 560 l 2
 493 583 457 616 413 645 c 1
263 445 m 1
 263 420 l 1
 403 420 l 1
 403 445 l 1
 263 445 l 1
263 410 m 1
 263 110 l 1
 269 104 336.121045368 98.7574399435 395.8936077 98.7574399435 c 4
 398.337210124 98.7574399435 401 99 403 99 c 1
 403 410 l 1
 263 410 l 1
EndSplineSet
EndUndoOperation
EndUndoes
Redoes
EndRedoes
EndUndoRedoHistory
Fore
SplineSet
88 669 m 1
 166 753 258 801 349 801 c 0
 435 801 521 758 593 660 c 1
 593 505 593 350 593 195 c 1
 398 10 l 2
 392 4 341 2 288 2 c 0
 229 2 168 5 163 10 c 1
 163 610 l 1
 166 613 l 1
 161 617 l 1
 254 710 l 1
 198 710 l 2
 158 710 121 691 88 669 c 1
281 709 m 1
 263 691 l 1
 263 455 l 1
 403 455 l 1
 403 651 l 1
 359 679 310 703 281 709 c 1
178 675 m 1
 168 670 138 620 138 610 c 2
 138 175 l 2
 138 125 13 12 -2 12 c 1
 8 17 38 68 38 77 c 2
 38 260 l 2
 38 260 -38 239 -47 230 c 1
 -47 253 10 304 38 310 c 1
 38 410 l 1
 12 408 -38 389 -47 380 c 1
 -47 403 10 454 38 460 c 1
 38 510 l 2
 38 560 163 675 178 675 c 1
413 645 m 1
 413 99 l 1
 447 100 478 101 486 109 c 2
 493 115 l 1
 493 560 l 2
 493 583 457 616 413 645 c 1
263 445 m 1
 263 420 l 1
 403 420 l 1
 403 445 l 1
 263 445 l 1
263 410 m 1
 263 110 l 1
 269 104 336 99 396 99 c 0
 398 99 401 99 403 99 c 1
 403 410 l 1
 263 410 l 1
EndSplineSet
EndChar

StartChar: E
Encoding: 69 69 30
Width: 580
VWidth: 0
Flags: HW
LayerCount: 2
UndoRedoHistory
Layer: 1
Undoes
UndoOperation
Index: 0
Type: 1
WasModified: 1
WasOrder2: 0
Layer: 2
Width: 580
VWidth: 0
LBearingChange: 0
UnicodeEnc: 0
InstructionsLength: 0
SplineSet
245 800 m 1
 620 800 l 1
 618 725 510 655 480 655 c 1
 500 665 520 685 520 700 c 2
 470 700 l 1
 470 100 l 1
 545 100 l 2
 560 100 580 120 590 140 c 1
 590 110 520 2 445 0 c 2
 380 0 l 1
 145 0 l 1
 145 700 l 1
 245 800 l 1
160 765 m 1
 150 760 120 710 120 700 c 2
 120 165 l 2
 120 115 -5 2 -20 2 c 1
 -10 7 20 57 20 67 c 2
 20 250 l 2
 -6 248 -56 229 -65 220 c 1
 -65 243 -8 293 20 299 c 2
 20 450 l 2
 -6 448 -56 429 -65 420 c 1
 -65 443 -8 493 20 499 c 2
 20 600 l 2
 20 650 145 765 160 765 c 1
245 700 m 1
 245 560 l 1
 460 560 l 1
 460 700 l 1
 245 700 l 1
245 550 m 1
 245 525 l 1
 460 525 l 1
 460 550 l 1
 245 550 l 1
245 515 m 1
 245 475 l 1
 445 475 l 1
 345 375 l 1
 245 375 l 1
 245 100 l 1
 460 100 l 1
 460 515 l 1
 245 515 l 1
EndSplineSet
EndUndoOperation
EndUndoes
Redoes
EndRedoes
EndUndoRedoHistory
Fore
SplineSet
245 800 m 1
 620 800 l 1
 618 725 510 655 480 655 c 1
 500 665 520 685 520 700 c 2
 470 700 l 1
 470 100 l 1
 545 100 l 2
 560 100 580 120 590 140 c 1
 590 110 520 2 445 0 c 2
 380 0 l 1
 145 0 l 1
 145 700 l 1
 245 800 l 1
160 765 m 1
 150 760 120 710 120 700 c 2
 120 165 l 2
 120 115 -5 2 -20 2 c 1
 -10 7 20 57 20 67 c 2
 20 250 l 2
 -6 248 -56 229 -65 220 c 1
 -65 243 -8 293 20 299 c 2
 20 450 l 2
 -6 448 -56 429 -65 420 c 1
 -65 443 -8 493 20 499 c 2
 20 600 l 2
 20 650 145 765 160 765 c 1
245 700 m 1
 245 560 l 1
 460 560 l 1
 460 700 l 1
 245 700 l 1
245 550 m 1
 245 525 l 1
 460 525 l 1
 460 550 l 1
 245 550 l 1
245 515 m 1
 245 475 l 1
 445 475 l 1
 345 375 l 1
 245 375 l 1
 245 100 l 1
 460 100 l 1
 460 515 l 1
 245 515 l 1
EndSplineSet
Validated: 1
EndChar

StartChar: F
Encoding: 70 70 31
Width: 700
VWidth: 0
Flags: HW
LayerCount: 2
UndoRedoHistory
Layer: 1
Undoes
UndoOperation
Index: 0
Type: 1
WasModified: 0
WasOrder2: 0
Layer: 2
Width: 700
VWidth: 0
LBearingChange: 0
UnicodeEnc: 0
InstructionsLength: 0
SplineSet
325 800 m 5
 700 800 l 5
 698 725 590 655 560 655 c 5
 580 665 600 685 600 700 c 6
 550 700 l 5
 550 35 l 5
 540 35 l 5
 540 515 l 5
 325 515 l 5
 325 475 l 5
 525 475 l 5
 425 375 l 5
 325 375 l 5
 325 100 l 5
 225 0 l 5
 60 0 l 6
 50 0 20 -15 10 -25 c 5
 10 -5 130 100 160 100 c 6
 225 100 l 5
 225 375 l 5
 225 700 l 5
 325 800 l 5
240 765 m 5
 230 760 200 710 200 700 c 6
 200 230 l 5
 200 230 l 6
 195 179 75 70 60 70 c 5
 70 75 100 125 100 135 c 6
 100 300 l 6
 74 298 24 279 15 270 c 5
 15 293 72 343 100 349 c 6
 100 475 l 6
 74 473 24 454 15 445 c 5
 15 468 72 518 100 524 c 6
 100 600 l 6
 100 650 225 765 240 765 c 5
325 700 m 5
 325 560 l 5
 540 560 l 5
 540 700 l 5
 325 700 l 5
325 550 m 5
 325 525 l 5
 540 525 l 5
 540 550 l 5
 325 550 l 5
EndSplineSet
EndUndoOperation
EndUndoes
Redoes
EndRedoes
EndUndoRedoHistory
Fore
SplineSet
325 800 m 1
 700 800 l 1
 698 725 590 655 560 655 c 1
 580 665 600 685 600 700 c 1
 550 700 l 1
 550 35 l 1
 540 35 l 1
 540 515 l 1
 325 515 l 1
 325 475 l 1
 525 475 l 1
 425 375 l 1
 325 375 l 1
 325 100 l 1
 225 0 l 1
 60 0 l 2
 50 0 20 -15 10 -25 c 1
 10 -5 130 100 160 100 c 2
 225 100 l 1
 225 300 225 500 225 700 c 1
 325 800 l 1
240 765 m 1
 230 760 200 710 200 700 c 2
 200 230 l 1
 195 179 75 70 60 70 c 1
 70 75 100 125 100 135 c 2
 100 300 l 1
 74 298 24 279 15 270 c 1
 15 293 72 343 100 349 c 1
 100 475 l 1
 74 473 24 454 15 445 c 1
 15 468 72 518 100 524 c 1
 100 600 l 2
 100 650 225 765 240 765 c 1
325 700 m 1
 325 560 l 1
 540 560 l 1
 540 700 l 1
 325 700 l 1
325 550 m 1
 325 525 l 1
 540 525 l 1
 540 550 l 1
 325 550 l 1
EndSplineSet
Validated: 1
EndChar

StartChar: G
Encoding: 71 71 32
Width: 690
VWidth: 0
Flags: HW
LayerCount: 2
UndoRedoHistory
Layer: 1
Undoes
UndoOperation
Index: 0
Type: 1
WasModified: 1
WasOrder2: 0
Layer: 2
Width: 690
VWidth: 0
LBearingChange: 0
UnicodeEnc: 0
InstructionsLength: 0
SplineSet
456 800 m 1
 661 590 l 1
 663 588 l 1
 586 510 l 1
 586 77 l 2
 614 82 656 95 682 107 c 1
 617 43 491 -10 400 -10 c 0
 179 -10 0 169 0 390 c 0
 0 532 106 695 235 754 c 1
 170 689 117 562 117 470 c 0
 117 375 174 244 243 179 c 1
 286 222 l 1
 286 414 l 2
 259 409 218 393 210 385 c 1
 210 406 257 448 286 461 c 2
 286 489 l 2
 259 484 218 468 210 460 c 1
 210 481 257 523 286 536 c 2
 286 630 l 1
 311 655 l 1
 381 725 l 1
 456 800 l 1
388 717 m 1
 386 715 l 1
 386 323 l 1
 581 520 l 1
 388 717 l 1
486 410 m 1
 250 173 l 1
 306 123 412 78 486 72 c 1
 486 410 l 1
EndSplineSet
EndUndoOperation
EndUndoes
Redoes
EndRedoes
EndUndoRedoHistory
Fore
SplineSet
456 800 m 1
 661 590 l 1
 663 588 l 1
 586 510 l 1
 586 77 l 2
 614 82 656 95 682 107 c 1
 617 43 491 -10 400 -10 c 0
 179 -10 0 169 0 390 c 0
 0 532 106 695 235 754 c 1
 170 689 117 562 117 470 c 0
 117 375 174 244 243 179 c 1
 286 222 l 1
 286 414 l 2
 259 409 218 393 210 385 c 1
 210 406 257 448 286 461 c 2
 286 489 l 2
 259 484 218 468 210 460 c 1
 210 481 257 523 286 536 c 2
 286 630 l 1
 311 655 l 1
 381 725 l 1
 456 800 l 1
388 717 m 1
 386 715 l 1
 386 323 l 1
 581 520 l 1
 388 717 l 1
486 410 m 1
 250 173 l 1
 306 123 412 78 486 72 c 1
 486 410 l 1
EndSplineSet
Validated: 1
EndChar

StartChar: H
Encoding: 72 72 33
Width: 590
VWidth: 0
Flags: HW
LayerCount: 2
UndoRedoHistory
Layer: 1
Undoes
UndoOperation
Index: 0
Type: 1
WasModified: 1
WasOrder2: 0
Layer: 2
Width: 590
VWidth: 0
LBearingChange: 0
UnicodeEnc: 0
InstructionsLength: 0
SplineSet
260 800 m 2
 260 495 l 1
 340 575 l 1
 350 575 l 1
 350 725 l 1
 360 725 l 1
 360 575 l 1
 485 575 l 1
 585 475 l 1
 585 150 l 1
 635 100 l 1
 535 0 l 1
 435 100 l 1
 485 150 l 1
 485 375 l 1
 385 475 l 1
 360 475 l 1
 360 125 l 1
 350 125 l 1
 350 365 l 1
 260 365 l 1
 260 150 l 1
 310 100 l 1
 210 0 l 1
 110 100 l 1
 160 150 l 1
 160 687 l 2
 151 685 137 680 120 660 c 1
 124 698 245 785 260 800 c 2
145 665 m 1
 135 660 105 610 105 600 c 2
 105 165 l 2
 105 115 -20 2 -35 2 c 1
 -25 7 5 57 5 67 c 2
 5 250 l 2
 -21 248 -71 229 -80 220 c 1
 -80 243 -23 293 5 299 c 2
 5 400 l 2
 -21 398 -71 379 -80 370 c 1
 -80 393 -23 443 5 449 c 2
 5 500 l 2
 5 550 130 665 145 665 c 1
260 475 m 1
 260 410 l 1
 350 410 l 1
 350 475 l 1
 260 475 l 1
260 400 m 1
 260 375 l 1
 350 375 l 1
 350 400 l 1
 260 400 l 1
EndSplineSet
EndUndoOperation
EndUndoes
Redoes
EndRedoes
EndUndoRedoHistory
Fore
SplineSet
260 800 m 2
 260 495 l 1
 340 575 l 1
 350 575 l 1
 350 725 l 1
 360 725 l 1
 360 575 l 1
 485 575 l 1
 585 475 l 1
 585 150 l 1
 635 100 l 1
 535 0 l 1
 435 100 l 1
 485 150 l 1
 485 375 l 1
 385 475 l 1
 360 475 l 1
 360 125 l 1
 350 125 l 1
 350 365 l 1
 260 365 l 1
 260 150 l 1
 310 100 l 1
 210 0 l 1
 110 100 l 1
 160 150 l 1
 160 687 l 2
 151 685 137 680 120 660 c 1
 124 698 245 785 260 800 c 2
145 665 m 1
 135 660 105 610 105 600 c 2
 105 165 l 2
 105 115 -20 2 -35 2 c 1
 -25 7 5 57 5 67 c 2
 5 250 l 2
 -21 248 -71 229 -80 220 c 1
 -80 243 -23 293 5 299 c 2
 5 400 l 2
 -21 398 -71 379 -80 370 c 1
 -80 393 -23 443 5 449 c 2
 5 500 l 2
 5 550 130 665 145 665 c 1
260 475 m 1
 260 410 l 1
 350 410 l 1
 350 475 l 1
 260 475 l 1
260 400 m 1
 260 375 l 1
 350 375 l 1
 350 400 l 1
 260 400 l 1
EndSplineSet
Validated: 1
EndChar

StartChar: I
Encoding: 73 73 34
Width: 470
VWidth: 0
Flags: HW
LayerCount: 2
UndoRedoHistory
Layer: 1
Undoes
UndoOperation
Index: 0
Type: 1
WasModified: 1
WasOrder2: 0
Layer: 2
Width: 470
VWidth: 0
LBearingChange: 0
UnicodeEnc: 0
InstructionsLength: 0
SplineSet
142 786 m 2
 145 786 149 786 152 786 c 0
 221 786 298 765 374 765 c 0
 401 765 428 768 454 775 c 1
 460 781 l 1
 460 215 l 1
 460 200 l 1
 360 100 l 1
 260 0 l 2
 251 9 216 12 175 12 c 0
 104 12 14 3 5 0 c 0
 -5 0 -55 -30 -60 -40 c 1
 -60 -25 40 75 105 100 c 0
 114 106 194 114 262 114 c 0
 298 114 330 111 348 106 c 1
 360 118 l 1
 360 676 l 2
 358 676 357 675 355 675 c 0
 339 667 319 664 296 664 c 0
 233 664 150 686 77 686 c 0
 45 686 15 682 -10 670 c 1
 31 718 60 766 123 785 c 0
 129 786 136 786 142 786 c 2
295 640 m 1
 285 635 255 585 255 575 c 2
 255 275 l 2
 255 225 130 112 115 112 c 1
 125 117 155 167 155 177 c 2
 155 275 l 2
 129 273 79 254 70 245 c 1
 70 268 127 318 155 324 c 2
 155 400 l 2
 129 398 79 379 70 370 c 1
 70 393 127 443 155 449 c 2
 155 475 l 2
 155 525 280 640 295 640 c 1
EndSplineSet
EndUndoOperation
EndUndoes
Redoes
EndRedoes
EndUndoRedoHistory
Fore
SplineSet
142 786 m 2
 145 786 149 786 152 786 c 0
 221 786 298 765 374 765 c 0
 401 765 428 768 454 775 c 1
 460 781 l 1
 460 215 l 1
 460 200 l 1
 360 100 l 1
 260 0 l 2
 251 9 216 12 175 12 c 0
 104 12 14 3 5 0 c 0
 -5 0 -55 -30 -60 -40 c 1
 -60 -25 40 75 105 100 c 0
 114 106 194 114 262 114 c 0
 298 114 330 111 348 106 c 1
 360 118 l 1
 360 676 l 2
 358 676 357 675 355 675 c 0
 339 667 319 664 296 664 c 0
 233 664 150 686 77 686 c 0
 45 686 15 682 -10 670 c 1
 31 718 60 766 123 785 c 0
 129 786 136 786 142 786 c 2
295 640 m 1
 285 635 255 585 255 575 c 2
 255 275 l 2
 255 225 130 112 115 112 c 1
 125 117 155 167 155 177 c 2
 155 275 l 2
 129 273 79 254 70 245 c 1
 70 268 127 318 155 324 c 2
 155 400 l 2
 129 398 79 379 70 370 c 1
 70 393 127 443 155 449 c 2
 155 475 l 2
 155 525 280 640 295 640 c 1
EndSplineSet
Validated: 1
EndChar

StartChar: J
Encoding: 74 74 35
Width: 470
VWidth: 0
Flags: HW
LayerCount: 2
UndoRedoHistory
Layer: 1
Undoes
UndoOperation
Index: 0
Type: 1
WasModified: 0
WasOrder2: 0
Layer: 2
Width: 470
VWidth: 0
LBearingChange: 0
UnicodeEnc: 0
InstructionsLength: 0
SplineSet
470 794 m 1
 470 -38 l 1
 424 -105 345.657962659 -178.20671452 285 -225 c 4
 250 -252 207 -267 165 -267 c 0
 109 -267 55 -240 22 -180 c 0
 14 -165 10 -142 10 -117 c 0
 10 -55 33 22 74 44 c 1
 74 38 73 32 73 26 c 0
 73 -88 142 -160 282 -160 c 2
 301 -160 l 1
 369 -148 372 -80 372 -25 c 2
 372 675 l 1
 368 671 359 670 346 670 c 0
 297 670 193 691 109 691 c 0
 72 691 39 687 16 675 c 1
 93 767 136 793 213 793 c 0
 248 793 291 787 347 780 c 0
 351 779 357 779 363 779 c 0
 396 779 450 781 470 794 c 1
332 640 m 1
 322 635 292 585 292 575 c 2
 292 95 l 1
 287 44 167 -65 152 -65 c 1
 162 -60 192 -10 192 0 c 2
 192 175 l 1
 166 173 116 154 107 145 c 1
 107 168 164 218 192 224 c 1
 192 350 l 1
 166 348 116 329 107 320 c 1
 107 343 164 393 192 399 c 1
 192 475 l 2
 192 525 317 640 332 640 c 1
EndSplineSet
EndUndoOperation
EndUndoes
Redoes
EndRedoes
EndUndoRedoHistory
Fore
SplineSet
470 794 m 1
 470 -38 l 1
 424 -105 346 -178 285 -225 c 0
 250 -252 207 -267 165 -267 c 0
 109 -267 55 -240 22 -180 c 0
 14 -165 10 -142 10 -117 c 0
 10 -55 33 22 74 44 c 1
 74 38 73 32 73 26 c 0
 73 -88 142 -160 282 -160 c 2
 301 -160 l 1
 369 -148 372 -80 372 -25 c 2
 372 675 l 1
 368 671 359 670 346 670 c 0
 297 670 193 691 109 691 c 0
 72 691 39 687 16 675 c 1
 93 767 136 793 213 793 c 0
 248 793 291 787 347 780 c 0
 351 779 357 779 363 779 c 0
 396 779 450 781 470 794 c 1
332 640 m 1
 322 635 292 585 292 575 c 2
 292 95 l 1
 287 44 167 -65 152 -65 c 1
 162 -60 192 -10 192 0 c 2
 192 175 l 1
 166 173 116 154 107 145 c 1
 107 168 164 218 192 224 c 1
 192 350 l 1
 166 348 116 329 107 320 c 1
 107 343 164 393 192 399 c 1
 192 475 l 2
 192 525 317 640 332 640 c 1
EndSplineSet
EndChar

StartChar: K
Encoding: 75 75 36
Width: 620
VWidth: 0
Flags: HW
LayerCount: 2
UndoRedoHistory
Layer: 1
Undoes
UndoOperation
Index: 0
Type: 1
WasModified: 0
WasOrder2: 0
Layer: 2
Width: 620
VWidth: 0
LBearingChange: 0
UnicodeEnc: 0
InstructionsLength: 0
SplineSet
524 803 m 6
 538 796 555 775 555 765 c 6
 555 650 l 5
 405 471 l 5
 585 300 l 5
 585 145 l 5
 630 100 l 5
 530 0 l 5
 430 100 l 5
 485 155 l 5
 485 200 l 5
 340 337 l 5
 340 35 l 5
 330 35 l 5
 330 347 l 5
 300 375 l 5
 280 375 l 5
 280 100 l 5
 180 0 l 5
 15 0 l 6
 5 0 -25 -15 -35 -25 c 5
 -35 -5 85 100 115 100 c 6
 180 100 l 5
 180 683 l 6
 173 692 159 697 147 697 c 0
 143 697 139 696 135 695 c 5
 135 717 245 792 255 800 c 4
 265 800 280 785 280 775 c 6
 280 770 l 5
 280 760 l 5
 280 595 l 5
 330 595 l 5
 330 710 l 5
 340 710 l 5
 340 475 l 5
 390 475 l 5
 455 552 l 5
 455 665 l 6
 455 685 443 697 425 705 c 5
 433 713 524 803 524 803 c 6
170 665 m 5
 160 660 130 610 130 600 c 6
 130 230 l 5
 130 230 l 6
 125 179 5 70 -10 70 c 5
 0 75 30 125 30 135 c 6
 30 250 l 6
 4 248 -46 229 -55 220 c 5
 -55 243 2 293 30 299 c 6
 30 400 l 6
 4 398 -46 379 -55 370 c 5
 -55 393 2 443 30 449 c 6
 30 500 l 6
 30 550 155 665 170 665 c 5
280 585 m 5
 280 560 l 5
 330 560 l 5
 330 585 l 5
 280 585 l 5
280 550 m 5
 280 475 l 5
 330 475 l 5
 330 550 l 5
 280 550 l 5
EndSplineSet
EndUndoOperation
EndUndoes
Redoes
EndRedoes
EndUndoRedoHistory
Fore
SplineSet
524 803 m 1
 538 796 555 775 555 765 c 2
 555 650 l 1
 405 471 l 1
 585 300 l 1
 585 145 l 1
 630 100 l 1
 530 0 l 1
 430 100 l 1
 485 155 l 1
 485 200 l 1
 340 337 l 1
 340 35 l 1
 330 35 l 1
 330 347 l 1
 300 375 l 1
 280 375 l 1
 280 100 l 1
 180 0 l 1
 15 0 l 2
 5 0 -25 -15 -35 -25 c 1
 -35 -5 85 100 115 100 c 2
 180 100 l 1
 180 683 l 1
 173 692 159 697 147 697 c 0
 143 697 139 696 135 695 c 1
 135 717 245 792 255 800 c 1
 265 800 280 785 280 775 c 2
 280 595 l 1
 330 595 l 1
 330 710 l 1
 340 710 l 1
 340 475 l 1
 390 475 l 1
 455 552 l 1
 455 665 l 2
 455 685 443 697 425 705 c 1
 433 713 524 803 524 803 c 1
170 665 m 1
 160 660 130 610 130 600 c 2
 130 230 l 1
 125 179 5 70 -10 70 c 1
 0 75 30 125 30 135 c 2
 30 250 l 1
 4 248 -46 229 -55 220 c 1
 -55 243 2 293 30 299 c 1
 30 400 l 1
 4 398 -46 379 -55 370 c 1
 -55 393 2 443 30 449 c 1
 30 500 l 2
 30 550 155 665 170 665 c 1
280 585 m 1
 280 560 l 1
 330 560 l 1
 330 585 l 1
 280 585 l 1
280 550 m 1
 280 475 l 1
 330 475 l 1
 330 550 l 1
 280 550 l 1
EndSplineSet
Validated: 1
EndChar

StartChar: L
Encoding: 76 76 37
Width: 580
VWidth: 0
Flags: HW
LayerCount: 2
UndoRedoHistory
Layer: 1
Undoes
UndoOperation
Index: 0
Type: 1
WasModified: 0
WasOrder2: 0
Layer: 2
Width: 580
VWidth: 0
LBearingChange: 0
UnicodeEnc: 0
InstructionsLength: 0
SplineSet
225 800 m 4
 235 800 250 785 250 775 c 6
 250 760 l 5
 250 595 l 5
 350 595 l 5
 350 710 l 5
 360 710 l 5
 360 100 l 5
 550 100 l 6
 573 100 581 92 581 79 c 4
 581 50 534 -3 505 -25 c 5
 507 -20 508 -16 508 -13 c 4
 508 -1 495 1 480 1 c 4
 470 1 459 0 450 0 c 6
 150 0 l 5
 150 655 l 6
 137 639 120 608 120 600 c 6
 120 230 l 5
 120 230 l 6
 115 179 -5 70 -20 70 c 5
 -10 75 20 125 20 135 c 6
 20 250 l 6
 -6 248 -56 229 -65 220 c 5
 -65 243 -8 293 20 299 c 6
 20 400 l 6
 -6 398 -56 379 -65 370 c 5
 -65 393 -8 443 20 449 c 6
 20 500 l 6
 20 544 116 638 150 660 c 6
 150 665 l 6
 150 681 129 692 111 692 c 4
 107 692 103 691 100 690 c 5
 100 712 215 792 225 800 c 4
250 585 m 5
 250 560 l 5
 350 560 l 5
 350 585 l 5
 250 585 l 5
250 550 m 5
 250 100 l 5
 350 100 l 5
 350 550 l 5
 250 550 l 5
EndSplineSet
EndUndoOperation
EndUndoes
Redoes
EndRedoes
EndUndoRedoHistory
Fore
SplineSet
225 800 m 1
 235 800 250 785 250 775 c 0
 250 715 250 655 250 595 c 1
 350 595 l 1
 350 710 l 1
 360 710 l 1
 360 100 l 1
 550 100 l 2
 573 100 581 92 581 79 c 0
 581 50 534 -3 505 -25 c 1
 507 -20 508 -16 508 -13 c 0
 508 -1 495 1 480 1 c 0
 470 1 459 0 450 0 c 2
 150 0 l 1
 150 655 l 1
 137 639 120 608 120 600 c 2
 120 230 l 1
 115 179 -5 70 -20 70 c 1
 -10 75 20 125 20 135 c 2
 20 250 l 1
 -6 248 -56 229 -65 220 c 1
 -65 243 -8 293 20 299 c 1
 20 400 l 1
 -6 398 -56 379 -65 370 c 1
 -65 393 -8 443 20 449 c 1
 20 500 l 2
 20 544 116 638 150 660 c 1
 150 665 l 2
 150 681 129 692 111 692 c 0
 107 692 103 691 100 690 c 1
 100 712 215 792 225 800 c 1
250 585 m 1
 250 560 l 1
 350 560 l 1
 350 585 l 1
 250 585 l 1
250 550 m 1
 250 100 l 1
 350 100 l 1
 350 550 l 1
 250 550 l 1
EndSplineSet
Validated: 1
EndChar

StartChar: M
Encoding: 77 77 38
Width: 720
VWidth: 0
Flags: HW
LayerCount: 2
UndoRedoHistory
Layer: 1
Undoes
UndoOperation
Index: 0
Type: 1
WasModified: 1
WasOrder2: 0
Layer: 2
Width: 720
VWidth: 0
LBearingChange: 0
UnicodeEnc: 0
InstructionsLength: 0
SplineSet
260 800 m 1
 260 700 l 1
 360 800 l 1
 460 700 l 1
 560 800 l 1
 660 700 l 1
 660 150 l 1
 710 100 l 1
 610 0 l 1
 560 50 l 1
 560 51 l 1
 512 100 l 1
 560 149 l 1
 560 600 l 1
 510 650 l 1
 510 200 l 1
 500 200 l 1
 500 465 l 1
 460 465 l 1
 460 150 l 1
 459 149 l 1
 507 100 l 1
 410 0 l 1
 360 50 l 1
 360 51 l 1
 311 100 l 1
 360 149 l 1
 360 465 l 1
 320 465 l 1
 320 200 l 1
 310 200 l 1
 310 650 l 1
 265 695 l 1
 260 690 l 1
 260 150 l 1
 259 149 l 1
 307 100 l 1
 275 67 242.298026059 33.3686406077 210 0 c 5
 110 100 l 1
 160 150 l 1
 160 687 l 1
 151 685 136 680 120 660 c 1
 124 698 245 785 260 800 c 1
465 695 m 1
 460 690 l 1
 460 510 l 1
 500 510 l 1
 500 660 l 1
 465 695 l 1
151 668 m 1
 141 663 117 615 117 605 c 2
 117 170 l 2
 117 120 -8 7 -23 7 c 1
 -13 12 17 62 17 72 c 2
 17 255 l 1
 -9 253 -59 234 -68 225 c 1
 -68 248 -11 299 17 305 c 1
 17 405 l 1
 -9 403 -59 384 -68 375 c 1
 -68 398 -11 449 17 455 c 1
 17 505 l 2
 17 555 136 668 151 668 c 1
320 640 m 1
 320 510 l 1
 360 510 l 1
 360 600 l 1
 320 640 l 1
320 500 m 1
 320 475 l 1
 360 475 l 1
 360 500 l 1
 320 500 l 1
460 500 m 1
 460 475 l 1
 500 475 l 1
 500 500 l 1
 460 500 l 1
EndSplineSet
EndUndoOperation
EndUndoes
Redoes
EndRedoes
EndUndoRedoHistory
Fore
SplineSet
260 800 m 1
 260 700 l 1
 360 800 l 1
 460 700 l 1
 560 800 l 1
 660 700 l 1
 660 150 l 1
 710 100 l 1
 610 0 l 1
 560 50 l 1
 560 51 l 1
 512 100 l 1
 560 149 l 1
 560 600 l 1
 510 650 l 1
 510 200 l 1
 500 200 l 1
 500 465 l 1
 460 465 l 1
 460 150 l 1
 459 149 l 1
 507 100 l 1
 410 0 l 1
 360 50 l 1
 360 51 l 1
 311 100 l 1
 360 149 l 1
 360 465 l 1
 320 465 l 1
 320 200 l 1
 310 200 l 1
 310 650 l 1
 265 695 l 1
 260 690 l 1
 260 150 l 1
 259 149 l 1
 307 100 l 1
 275 67 242 33 210 0 c 1
 110 100 l 1
 160 150 l 1
 160 687 l 1
 151 685 136 680 120 660 c 1
 124 698 245 785 260 800 c 1
465 695 m 1
 460 690 l 1
 460 510 l 1
 500 510 l 1
 500 660 l 1
 465 695 l 1
151 668 m 1
 141 663 117 615 117 605 c 2
 117 170 l 2
 117 120 -8 7 -23 7 c 1
 -13 12 17 62 17 72 c 2
 17 255 l 1
 -9 253 -59 234 -68 225 c 1
 -68 248 -11 299 17 305 c 1
 17 405 l 1
 -9 403 -59 384 -68 375 c 1
 -68 398 -11 449 17 455 c 1
 17 505 l 2
 17 555 136 668 151 668 c 1
320 640 m 1
 320 510 l 1
 360 510 l 1
 360 600 l 1
 320 640 l 1
320 500 m 1
 320 475 l 1
 360 475 l 1
 360 500 l 1
 320 500 l 1
460 500 m 1
 460 475 l 1
 500 475 l 1
 500 500 l 1
 460 500 l 1
EndSplineSet
EndChar

StartChar: N
Encoding: 78 78 39
Width: 640
VWidth: 0
Flags: HW
LayerCount: 2
UndoRedoHistory
Layer: 1
Undoes
UndoOperation
Index: 0
Type: 1
WasModified: 1
WasOrder2: 0
Layer: 2
Width: 640
VWidth: 0
LBearingChange: 0
UnicodeEnc: 0
InstructionsLength: 0
SplineSet
250 800 m 6
 400 800 l 5
 575 625 l 5
 575 150 l 5
 625 100 l 5
 525 0 l 5
 425 100 l 5
 475 150 l 5
 475 525 l 5
 350 650 l 5
 350 200 l 5
 340 200 l 5
 340 465 l 5
 250 465 l 5
 250 150 l 5
 300 100 l 5
 200 0 l 5
 150 50 l 5
 100 100 l 5
 150 150 l 5
 150 655 l 6
 137 639 120 608 120 600 c 6
 120 165 l 6
 120 115 -5 2 -20 2 c 5
 -10 7 20 57 20 67 c 6
 20 250 l 6
 -6 248 -56 229 -65 220 c 5
 -65 243 -8 293 20 299 c 6
 20 400 l 6
 -6 398 -56 379 -65 370 c 5
 -65 393 -8 443 20 449 c 6
 20 500 l 6
 20 544 116 638 150 660 c 6
 150 687 l 6
 141 685 127 680 110 660 c 5
 114 698 235 785 250 800 c 6
300 700 m 5
 261 698 l 5
 250 688 l 5
 250 510 l 5
 340 510 l 5
 340 660 l 5
 300 700 l 5
250 500 m 5
 250 475 l 5
 340 475 l 5
 340 500 l 5
 250 500 l 5
EndSplineSet
EndUndoOperation
EndUndoes
Redoes
EndRedoes
EndUndoRedoHistory
Fore
SplineSet
250 800 m 2
 400 800 l 1
 575 625 l 1
 575 150 l 1
 625 100 l 1
 525 0 l 1
 425 100 l 1
 475 150 l 1
 475 525 l 1
 350 650 l 1
 350 200 l 1
 340 200 l 1
 340 465 l 1
 250 465 l 1
 250 150 l 1
 300 100 l 1
 200 0 l 1
 150 50 l 1
 100 100 l 1
 150 150 l 1
 150 655 l 2
 137 639 120 608 120 600 c 2
 120 165 l 2
 120 115 -5 2 -20 2 c 1
 -10 7 20 57 20 67 c 2
 20 250 l 2
 -6 248 -56 229 -65 220 c 1
 -65 243 -8 293 20 299 c 2
 20 400 l 2
 -6 398 -56 379 -65 370 c 1
 -65 393 -8 443 20 449 c 2
 20 500 l 2
 20 544 116 638 150 660 c 2
 150 687 l 2
 141 685 127 680 110 660 c 1
 114 698 235 785 250 800 c 2
300 700 m 1
 261 698 l 1
 250 688 l 1
 250 510 l 1
 340 510 l 1
 340 660 l 1
 300 700 l 1
250 500 m 1
 250 475 l 1
 340 475 l 1
 340 500 l 1
 250 500 l 1
EndSplineSet
Validated: 1
EndChar

StartChar: O
Encoding: 79 79 40
Width: 710
VWidth: 0
Flags: HW
LayerCount: 2
UndoRedoHistory
Layer: 1
Undoes
UndoOperation
Index: 0
Type: 1
WasModified: 1
WasOrder2: 0
Layer: 2
Width: 710
VWidth: 0
LBearingChange: 0
UnicodeEnc: 0
InstructionsLength: 0
SplineSet
394 800 m 0
 420 799 447 798 473 794 c 0
 520 780 565 754 599 719 c 0
 646 668 684 606 696 537 c 0
 702 499 706 460 706 421 c 0
 706 384 702 347 692 312 c 0
 639 182 531 75 400 24 c 0
 370 11 339 6 308 6 c 0
 288 6 269 8 249 11 c 0
 211 19 177 39 146 61 c 0
 89 107 48 173 26 242 c 0
 16 287 10 334 10 380 c 0
 10 415 14 449 21 483 c 0
 55 579 122 661 203 721 c 0
 260 760 324 794 394 800 c 0
300 700 m 1
 260 700 218 692 185 668 c 0
 119 621 107 533 104 458 c 0
 106 365 151 278 208 207 c 0
 258 147 337 107 415 106 c 1
 415 480 l 1
 339 480 l 1
 339 400 l 1
 337 398 l 2
 338 398 338 398 339 398 c 0
 339 348 214 235 199 235 c 1
 209 240 239 290 239 300 c 2
 239 375 l 2
 213 373 163 354 154 345 c 1
 154 368 211 418 239 424 c 2
 239 450 l 2
 213 448 163 429 154 420 c 1
 154 443 211 493 239 499 c 2
 239 500 l 2
 239 550 364 665 379 665 c 1
 369 660 339 610 339 600 c 2
 339 525 l 1
 415 525 l 1
 415 672 l 2
 380 690 340 700 300 700 c 1
425 667 m 1
 425 106 l 2
 455 107 484 113 512 126 c 0
 576 157 603 231 609 297 c 0
 612 312 613 327 613 342 c 0
 613 414 585 485 547 545 c 0
 518 595 476 639 425 667 c 1
339 515 m 1
 339 490 l 1
 415 490 l 1
 415 515 l 1
 339 515 l 1
EndSplineSet
EndUndoOperation
EndUndoes
Redoes
EndRedoes
EndUndoRedoHistory
Fore
SplineSet
394 800 m 0
 420 799 447 798 473 794 c 0
 520 780 565 754 599 719 c 0
 646 668 684 606 696 537 c 0
 702 499 706 460 706 421 c 0
 706 384 702 347 692 312 c 0
 639 182 531 75 400 24 c 0
 370 11 339 6 308 6 c 0
 288 6 269 8 249 11 c 0
 211 19 177 39 146 61 c 0
 89 107 48 173 26 242 c 0
 16 287 10 334 10 380 c 0
 10 415 14 449 21 483 c 0
 55 579 122 661 203 721 c 0
 260 760 324 794 394 800 c 0
300 700 m 1
 260 700 218 692 185 668 c 0
 119 621 107 533 104 458 c 0
 106 365 151 278 208 207 c 0
 258 147 337 107 415 106 c 1
 415 480 l 1
 339 480 l 1
 339 400 l 1
 337 398 l 2
 338 398 338 398 339 398 c 0
 339 348 214 235 199 235 c 1
 209 240 239 290 239 300 c 2
 239 375 l 2
 213 373 163 354 154 345 c 1
 154 368 211 418 239 424 c 2
 239 450 l 2
 213 448 163 429 154 420 c 1
 154 443 211 493 239 499 c 2
 239 500 l 2
 239 550 364 665 379 665 c 1
 369 660 339 610 339 600 c 2
 339 525 l 1
 415 525 l 1
 415 672 l 2
 380 690 340 700 300 700 c 1
425 667 m 1
 425 106 l 2
 455 107 484 113 512 126 c 0
 576 157 603 231 609 297 c 0
 612 312 613 327 613 342 c 0
 613 414 585 485 547 545 c 0
 518 595 476 639 425 667 c 1
339 515 m 1
 339 490 l 1
 415 490 l 1
 415 515 l 1
 339 515 l 1
EndSplineSet
Validated: 1
EndChar

StartChar: P
Encoding: 80 80 41
Width: 560
VWidth: 0
Flags: HW
LayerCount: 2
UndoRedoHistory
Layer: 1
Undoes
UndoOperation
Index: 0
Type: 1
WasModified: 1
WasOrder2: 0
Layer: 2
Width: 560
VWidth: 0
LBearingChange: 0
UnicodeEnc: 0
InstructionsLength: 0
SplineSet
261 800 m 2
 336 800 l 2
 385 800 550 706 560 655 c 1
 561 655 l 1
 561 505 l 1
 561 500 l 1
 419 379 l 1
 390 350 l 1
 320 350 l 1
 320 145 l 1
 310 145 l 1
 310 350 l 1
 260 350 l 1
 260 151 l 1
 311 100 l 1
 211 0 l 1
 111 100 l 1
 160 149 l 1
 160 625 l 1
 235 700 l 1
 161 700 l 2
 121 700 83 680 50 658 c 1
 92 703 166 800 261 800 c 2
260 696 m 2
 260 575 l 1
 310 575 l 1
 310 675 l 2
 292 684 274 692 260 696 c 2
175 690 m 1
 165 685 135 635 135 625 c 2
 135 190 l 2
 135 140 10 27 -5 27 c 1
 5 32 35 82 35 92 c 2
 35 275 l 2
 9 273 -41 254 -50 245 c 1
 -50 268 7 318 35 324 c 2
 35 425 l 2
 9 423 -41 404 -50 395 c 1
 -50 418 7 468 35 474 c 2
 35 525 l 2
 35 575 160 690 175 690 c 1
320 670 m 1
 320 450 l 1
 461 450 l 1
 461 550 l 2
 461 583 386 637 320 670 c 1
260 565 m 1
 260 540 l 1
 310 540 l 1
 310 565 l 1
 260 565 l 1
260 530 m 1
 260 450 l 1
 310 450 l 1
 310 530 l 1
 260 530 l 1
EndSplineSet
EndUndoOperation
EndUndoes
Redoes
EndRedoes
EndUndoRedoHistory
Fore
SplineSet
261 800 m 2
 336 800 l 2
 385 800 550 706 560 655 c 1
 561 655 l 1
 561 505 l 1
 561 500 l 1
 419 379 l 1
 390 350 l 1
 320 350 l 1
 320 145 l 1
 310 145 l 1
 310 350 l 1
 260 350 l 1
 260 151 l 1
 311 100 l 1
 211 0 l 1
 111 100 l 1
 160 149 l 1
 160 625 l 1
 235 700 l 1
 161 700 l 2
 121 700 83 680 50 658 c 1
 92 703 166 800 261 800 c 2
260 696 m 2
 260 575 l 1
 310 575 l 1
 310 675 l 2
 292 684 274 692 260 696 c 2
175 690 m 1
 165 685 135 635 135 625 c 2
 135 190 l 2
 135 140 10 27 -5 27 c 1
 5 32 35 82 35 92 c 2
 35 275 l 2
 9 273 -41 254 -50 245 c 1
 -50 268 7 318 35 324 c 2
 35 425 l 2
 9 423 -41 404 -50 395 c 1
 -50 418 7 468 35 474 c 2
 35 525 l 2
 35 575 160 690 175 690 c 1
320 670 m 1
 320 450 l 1
 461 450 l 1
 461 550 l 2
 461 583 386 637 320 670 c 1
260 565 m 1
 260 540 l 1
 310 540 l 1
 310 565 l 1
 260 565 l 1
260 530 m 1
 260 450 l 1
 310 450 l 1
 310 530 l 1
 260 530 l 1
EndSplineSet
Validated: 1
EndChar

StartChar: Q
Encoding: 81 81 42
Width: 780
VWidth: 0
Flags: HW
LayerCount: 2
UndoRedoHistory
Layer: 1
Undoes
UndoOperation
Index: 0
Type: 1
WasModified: 0
WasOrder2: 0
Layer: 2
Width: 780
VWidth: 0
LBearingChange: 0
UnicodeEnc: 0
InstructionsLength: 0
SplineSet
479 63 m 5
 433 36 375 6 308 6 c 4
 235 6 192 28 146 61 c 4
 89 107 48 173 26 242 c 5
 16 287 10 334 10 380 c 4
 10 415 14 449 21 483 c 5
 55 579 122 661 203 721 c 4
 260 760 324 794 394 800 c 4
 420 799 447 798 473 794 c 4
 520 780 565 754 599 719 c 4
 646 668 684 606 696 537 c 4
 702 499 706 460 706 421 c 4
 706 384 702 347 692 312 c 4
 668 253 633 199 589 153 c 5
 692 50 l 5
 707 38 725 28 744 28 c 6
 749 28 l 5
 760 30 769 38 778 44 c 5
 770 23 679 -55 679 -55 c 5
 669 -62 658 -71 645 -71 c 4
 625 -71 606 -60 592 -50 c 5
 479 63 l 5
300 700 m 4
 260 700 218 692 185 668 c 4
 119 621 107 533 104 458 c 5
 106 365 151 278 208 207 c 4
 258 147 337 107 415 106 c 5
 415 128 l 5
 367 175 l 5
 356 183 343 187 330 187 c 4
 322 187 315 185 308 182 c 4
 300 177 309 185 311 187 c 6
 403 279 l 6
 406 281 411 282 415 283 c 5
 415 480 l 5
 339 480 l 5
 339 400 l 5
 337 398 l 5
 339 398 l 5
 339 348 214 235 199 235 c 5
 209 240 239 290 239 300 c 6
 239 375 l 5
 213 373 163 354 154 345 c 5
 154 368 211 418 239 424 c 5
 239 450 l 5
 213 448 163 429 154 420 c 5
 154 443 211 493 239 499 c 5
 239 500 l 6
 239 550 364 665 379 665 c 5
 369 660 339 610 339 600 c 6
 339 525 l 5
 415 525 l 5
 415 672 l 5
 380 690 340 700 300 700 c 4
425 667 m 5
 425 285 l 5
 430 285 l 6
 444 285 457 281 467 275 c 5
 568 174 l 5
 593 209 605 255 609 297 c 4
 612 312 613 327 613 342 c 4
 613 414 585 485 547 545 c 4
 518 595 476 639 425 667 c 5
339 515 m 5
 339 490 l 5
 415 490 l 5
 415 515 l 5
 339 515 l 5
425 117 m 5
 435 107 l 5
 431 107 429 106 425 106 c 5
 425 117 l 5
EndSplineSet
EndUndoOperation
EndUndoes
Redoes
EndRedoes
EndUndoRedoHistory
Fore
SplineSet
479 63 m 1
 592 -50 l 1
 606 -60 625 -71 645 -71 c 0
 658 -71 669 -62 679 -55 c 1
 679 -55 770 23 778 44 c 1
 769 38 760 30 749 28 c 1
 744 28 l 2
 725 28 707 38 692 50 c 1
 589 153 l 1
 633 199 668 253 692 312 c 0
 702 347 706 384 706 421 c 0
 706 460 702 499 696 537 c 0
 684 606 646 668 599 719 c 0
 565 754 520 780 473 794 c 0
 447 798 420 799 394 800 c 0
 324 794 260 760 203 721 c 0
 122 661 55 579 21 483 c 1
 14 449 10 415 10 380 c 0
 10 334 16 287 26 242 c 1
 48 173 89 107 146 61 c 0
 192 28 235 6 308 6 c 0
 375 6 433 36 479 63 c 1
300 700 m 0
 340 700 380 690 415 672 c 1
 415 525 l 1
 339 525 l 1
 339 600 l 2
 339 610 369 660 379 665 c 1
 364 665 239 550 239 500 c 2
 239 499 l 1
 211 493 154 443 154 420 c 1
 163 429 213 448 239 450 c 1
 239 424 l 1
 211 418 154 368 154 345 c 1
 163 354 213 373 239 375 c 1
 239 300 l 2
 239 290 209 240 199 235 c 1
 214 235 339 348 339 398 c 1
 337 398 l 1
 339 400 l 1
 339 480 l 1
 415 480 l 1
 415 283 l 1
 411 282 406 281 403 279 c 2
 311 187 l 2
 309 185 300 177 308 182 c 0
 315 185 322 187 330 187 c 0
 343 187 356 183 367 175 c 1
 415 128 l 1
 415 106 l 1
 337 107 258 147 208 207 c 0
 151 278 106 365 104 458 c 1
 107 533 119 621 185 668 c 0
 218 692 260 700 300 700 c 0
425 667 m 1
 476 639 518 595 547 545 c 0
 585 485 613 414 613 342 c 0
 613 327 612 312 609 297 c 0
 605 255 593 209 568 174 c 1
 467 275 l 1
 457 281 444 285 430 285 c 2
 425 285 l 1
 425 667 l 1
339 515 m 1
 415 515 l 1
 415 490 l 1
 339 490 l 1
 339 515 l 1
425 117 m 1
 425 106 l 1
 429 106 431 107 435 107 c 1
 425 117 l 1
EndSplineSet
Validated: 9
EndChar

StartChar: R
Encoding: 82 82 43
Width: 600
VWidth: 0
Flags: HW
LayerCount: 2
UndoRedoHistory
Layer: 1
Undoes
UndoOperation
Index: 0
Type: 1
WasModified: 1
WasOrder2: 0
Layer: 2
Width: 600
VWidth: 0
LBearingChange: 0
UnicodeEnc: 0
InstructionsLength: 0
SplineSet
292 800 m 2
 367 800 l 2
 417 800 592 705 592 655 c 0
 592 605 592 555 592 505 c 1
 466 401 l 1
 551 318 l 1
 551 154 l 1
 605 100 l 1
 505 0 l 1
 405 100 l 1
 451 146 l 1
 451 218 l 1
 367 320 l 1
 326 320 l 1
 326 113 l 1
 316 113 l 1
 316 320 l 1
 266 320 l 1
 266 151 l 1
 317 100 l 1
 217 0 l 1
 117 100 l 1
 166 149 l 1
 166 600 l 1
 266 695 l 1
 266 543 l 1
 316 543 l 1
 316 687 l 1
 296 695 212 700 212 700 c 4
 212 700 217 700 192 700 c 0
 152 700 115 680 82 658 c 1
 124 703 197 800 292 800 c 2
326 683 m 1
 326 420 l 1
 468 420 l 1
 492 441 l 1
 492 555 l 2
 492 592 396 653 326 683 c 1
175 670 m 1
 165 665 135 615 135 605 c 2
 135 170 l 2
 135 120 10 7 -5 7 c 1
 5 12 35 62 35 72 c 2
 35 255 l 1
 9 253 -41 234 -50 225 c 1
 -50 248 7 299 35 305 c 1
 35 405 l 1
 9 403 -41 384 -50 375 c 1
 -50 398 7 449 35 455 c 1
 35 505 l 2
 35 555 160 670 175 670 c 1
266 533 m 1
 266 508 l 1
 316 508 l 1
 316 533 l 1
 266 533 l 1
266 498 m 1
 266 420 l 1
 316 420 l 1
 316 498 l 1
 266 498 l 1
EndSplineSet
EndUndoOperation
EndUndoes
Redoes
EndRedoes
EndUndoRedoHistory
Fore
SplineSet
292 800 m 2
 367 800 l 2
 417 800 592 705 592 655 c 0
 592 605 592 555 592 505 c 1
 466 401 l 1
 551 318 l 1
 551 154 l 1
 605 100 l 1
 505 0 l 1
 405 100 l 1
 451 146 l 1
 451 218 l 1
 367 320 l 1
 326 320 l 1
 326 113 l 1
 316 113 l 1
 316 320 l 1
 266 320 l 1
 266 151 l 1
 317 100 l 1
 217 0 l 1
 117 100 l 1
 166 149 l 1
 166 600 l 1
 266 695 l 1
 266 543 l 1
 316 543 l 1
 316 687 l 1
 296 695 212 700 212 700 c 1
 192 700 l 2
 152 700 115 680 82 658 c 1
 124 703 197 800 292 800 c 2
326 683 m 1
 326 420 l 1
 468 420 l 1
 492 441 l 1
 492 555 l 2
 492 592 396 653 326 683 c 1
175 670 m 1
 165 665 135 615 135 605 c 2
 135 170 l 2
 135 120 10 7 -5 7 c 1
 5 12 35 62 35 72 c 2
 35 255 l 1
 9 253 -41 234 -50 225 c 1
 -50 248 7 299 35 305 c 1
 35 405 l 1
 9 403 -41 384 -50 375 c 1
 -50 398 7 449 35 455 c 1
 35 505 l 2
 35 555 160 670 175 670 c 1
266 533 m 1
 266 508 l 1
 316 508 l 1
 316 533 l 1
 266 533 l 1
266 498 m 1
 266 420 l 1
 316 420 l 1
 316 498 l 1
 266 498 l 1
EndSplineSet
Validated: 1
EndChar

StartChar: S
Encoding: 83 83 44
Width: 680
VWidth: 0
Flags: HW
LayerCount: 2
UndoRedoHistory
Layer: 1
Undoes
UndoOperation
Index: 0
Type: 1
WasModified: 1
WasOrder2: 0
Layer: 2
Width: 680
VWidth: 0
LBearingChange: 0
UnicodeEnc: 0
InstructionsLength: 0
SplineSet
305 800 m 1
 455 800 l 1
 680 620 l 2
 687 618 694 617 700 617 c 0
 710 617 719 619 727 623 c 0
 730 624 741 631 733 624 c 0
 695 594 654 518 597 518 c 0
 591 518 586 518 580 520 c 2
 355 700 l 1
 219 700 l 1
 213 694 l 1
 670 330 l 1
 670 315 l 1
 455 100 l 1
 355 0 l 1
 255 0 l 1
 5 200 l 2
 -2 202 -8 203 -14 203 c 0
 -24 203 -33 201 -41 197 c 0
 -44 196 -55 189 -47 196 c 0
 -9 226 31 302 88 302 c 0
 94 302 99 302 105 300 c 2
 355 100 l 1
 440 100 l 1
 460 119 l 1
 0 485 l 1
 -5 490 l 1
 105 600 l 1
 205 700 l 1
 305 800 l 1
112 595 m 1
 101 584 l 1
 560 219 l 1
 570 230 l 1
 112 595 l 1
EndSplineSet
EndUndoOperation
EndUndoes
Redoes
EndRedoes
EndUndoRedoHistory
Fore
SplineSet
305 800 m 1
 455 800 l 1
 680 620 l 2
 687 618 694 617 700 617 c 0
 710 617 719 619 727 623 c 0
 730 624 741 631 733 624 c 0
 695 594 654 518 597 518 c 0
 591 518 586 518 580 520 c 2
 355 700 l 1
 219 700 l 1
 213 694 l 1
 670 330 l 1
 670 315 l 1
 455 100 l 1
 355 0 l 1
 255 0 l 1
 5 200 l 2
 -2 202 -8 203 -14 203 c 0
 -24 203 -33 201 -41 197 c 0
 -44 196 -55 189 -47 196 c 0
 -9 226 31 302 88 302 c 0
 94 302 99 302 105 300 c 2
 355 100 l 1
 440 100 l 1
 460 119 l 1
 0 485 l 1
 -5 490 l 1
 105 600 l 1
 205 700 l 1
 305 800 l 1
112 595 m 1
 101 584 l 1
 560 219 l 1
 570 230 l 1
 112 595 l 1
EndSplineSet
Validated: 1
EndChar

StartChar: T
Encoding: 84 84 45
Width: 720
VWidth: 0
Flags: HW
LayerCount: 2
UndoRedoHistory
Layer: 1
Undoes
UndoOperation
Index: 0
Type: 1
WasModified: 0
WasOrder2: 0
Layer: 2
Width: 720
VWidth: 0
LBearingChange: 0
UnicodeEnc: 0
InstructionsLength: 0
SplineSet
326 800 m 4
 333 800 340 799 347 799 c 0
 461 791 549 716 652 715 c 0
 688 716 720 734 745 759 c 1
 690 678 627 628 546 628 c 0
 530 628 513 630 496 634 c 1
 496 65 l 1
 502 65 511 64 517 64 c 0
 565 64 639 80 682 100 c 1
 617 36 491 -16 400 -16 c 0
 179 -16 0 163 0 384 c 0
 0 480 57 610 127 675 c 1
 94 666 41 647 0 628 c 1
 83 723 217.981483069 800 326 800 c 4
235 688 m 0
 218 688 201 688 184 686 c 1
 147 630 117 531 117 464 c 0
 117 260 283 81 486 65 c 1
 486 424 l 1
 361 424 l 1
 361 386 l 1
 359 383 l 2
 360 383 360 384 361 384 c 1
 361 334 236 221 221 221 c 1
 231 226 261 276 261 286 c 2
 261 360 l 1
 235 358 185 340 176 331 c 1
 176 354 233 404 261 410 c 1
 261 435 l 1
 235 433 185 415 176 406 c 1
 176 429 233 479 261 485 c 1
 261 486 l 2
 261 536 386 651 401 651 c 1
 391 646 361 596 361 586 c 2
 361 469 l 1
 486 469 l 1
 486 637 l 1
 484 637 l 1
 377 667 303 686 235 688 c 0
361 459 m 1
 361 434 l 1
 486 434 l 1
 486 459 l 1
 361 459 l 1
EndSplineSet
EndUndoOperation
EndUndoes
Redoes
EndRedoes
EndUndoRedoHistory
Fore
SplineSet
326 800 m 0
 333 800 340 799 347 799 c 0
 461 791 549 716 652 715 c 0
 688 716 720 734 745 759 c 1
 690 678 627 628 546 628 c 0
 530 628 513 630 496 634 c 1
 496 65 l 1
 502 65 511 64 517 64 c 0
 565 64 639 80 682 100 c 1
 617 36 491 -16 400 -16 c 0
 179 -16 0 163 0 384 c 0
 0 480 57 610 127 675 c 1
 94 666 41 647 0 628 c 1
 83 723 218 800 326 800 c 0
235 688 m 0
 218 688 201 688 184 686 c 1
 147 630 117 531 117 464 c 0
 117 260 283 81 486 65 c 1
 486 424 l 1
 361 424 l 1
 361 386 l 1
 359 383 l 2
 360 383 360 384 361 384 c 1
 361 334 236 221 221 221 c 1
 231 226 261 276 261 286 c 2
 261 360 l 1
 235 358 185 340 176 331 c 1
 176 354 233 404 261 410 c 1
 261 435 l 1
 235 433 185 415 176 406 c 1
 176 429 233 479 261 485 c 1
 261 486 l 2
 261 536 386 651 401 651 c 1
 391 646 361 596 361 586 c 2
 361 469 l 1
 486 469 l 1
 486 637 l 1
 484 637 l 1
 377 667 303 686 235 688 c 0
361 459 m 1
 361 434 l 1
 486 434 l 1
 486 459 l 1
 361 459 l 1
EndSplineSet
EndChar

StartChar: U
Encoding: 85 85 46
Width: 570
VWidth: 0
Flags: HW
LayerCount: 2
UndoRedoHistory
Layer: 1
Undoes
UndoOperation
Index: 0
Type: 1
WasModified: 1
WasOrder2: 0
Layer: 2
Width: 570
VWidth: 0
LBearingChange: 0
UnicodeEnc: 0
InstructionsLength: 0
SplineSet
165 800 m 1
 265 700 l 1
 215 650 l 1
 215 525 l 1
 295 525 l 1
 295 690 l 1
 305 690 l 1
 305 156 l 2
 336 125 366 100 380 100 c 2
 440 100 l 1
 440 650 l 1
 390 700 l 1
 490 800 l 1
 540 750 l 1
 590 700 l 1
 540 650 l 1
 540 100 l 1
 570 100 l 2
 571 100 572 100 573 100 c 0
 592 100 623 124 624 124 c 0
 624 124 624 124 622 122 c 0
 574 88 524 0 470 0 c 2
 440 0 l 1
 290 0 l 2
 265 0 115 150 115 175 c 2
 115 648 l 2
 103 631 90 607 90 600 c 2
 90 165 l 2
 90 115 -35 2 -50 2 c 1
 -40 7 -10 57 -10 67 c 2
 -10 250 l 2
 -36 248 -86 229 -95 220 c 1
 -95 243 -38 293 -10 299 c 2
 -10 400 l 2
 -36 398 -86 379 -95 370 c 1
 -95 393 -38 443 -10 449 c 2
 -10 500 l 2
 -10 541 72 624 111 654 c 1
 65 700 l 1
 165 800 l 1
215 515 m 1
 215 490 l 1
 295 490 l 1
 295 515 l 1
 215 515 l 1
215 480 m 1
 215 275 l 2
 215 261 254 210 295 167 c 1
 295 480 l 1
 215 480 l 1
EndSplineSet
EndUndoOperation
EndUndoes
Redoes
EndRedoes
EndUndoRedoHistory
Fore
SplineSet
165 800 m 1
 265 700 l 1
 215 650 l 1
 215 525 l 1
 295 525 l 1
 295 690 l 1
 305 690 l 1
 305 156 l 2
 336 125 366 100 380 100 c 2
 440 100 l 1
 440 650 l 1
 390 700 l 1
 490 800 l 1
 540 750 l 1
 590 700 l 1
 540 650 l 1
 540 100 l 1
 570 100 l 2
 571 100 572 100 573 100 c 0
 592 100 623 124 624 124 c 0
 624 124 624 124 622 122 c 0
 574 88 524 0 470 0 c 2
 440 0 l 1
 290 0 l 2
 265 0 115 150 115 175 c 2
 115 648 l 2
 103 631 90 607 90 600 c 2
 90 165 l 2
 90 115 -35 2 -50 2 c 1
 -40 7 -10 57 -10 67 c 2
 -10 250 l 2
 -36 248 -86 229 -95 220 c 1
 -95 243 -38 293 -10 299 c 2
 -10 400 l 2
 -36 398 -86 379 -95 370 c 1
 -95 393 -38 443 -10 449 c 2
 -10 500 l 2
 -10 541 72 624 111 654 c 1
 65 700 l 1
 165 800 l 1
215 515 m 1
 215 490 l 1
 295 490 l 1
 295 515 l 1
 215 515 l 1
215 480 m 1
 215 275 l 2
 215 261 254 210 295 167 c 1
 295 480 l 1
 215 480 l 1
EndSplineSet
Validated: 1
EndChar

StartChar: V
Encoding: 86 86 47
Width: 550
VWidth: 0
Flags: HW
LayerCount: 2
UndoRedoHistory
Layer: 1
Undoes
UndoOperation
Index: 0
Type: 1
WasModified: 1
WasOrder2: 0
Layer: 2
Width: 550
VWidth: 0
LBearingChange: 0
UnicodeEnc: 0
InstructionsLength: 0
SplineSet
200 800 m 1
 300 700 l 1
 250 650 l 1
 250 335 l 1
 315 335 l 1
 315 600 l 1
 325 600 l 1
 325 125 l 1
 315 125 l 1
 315 290 l 1
 250 290 l 1
 250 100 l 2
 252 98 266 96 284 96 c 0
 302 96 324 98 340 105 c 2
 425 190 l 1
 425 650 l 1
 375 700 l 1
 475 800 l 1
 575 700 l 1
 525 650 l 1
 525 275 l 1
 455 205 l 1
 250 0 l 1
 150 0 l 1
 150 650 l 1
 148 652 l 2
 136 635 120 607 120 600 c 2
 120 165 l 2
 120 115 -5 2 -20 2 c 1
 -10 7 20 57 20 67 c 2
 20 250 l 2
 -6 248 -56 229 -65 220 c 1
 -65 243 -8 293 20 299 c 2
 20 400 l 2
 -6 398 -56 379 -65 370 c 1
 -65 393 -8 443 20 449 c 2
 20 500 l 2
 20 542 106 628 144 656 c 1
 100 700 l 1
 200 800 l 1
250 325 m 1
 250 300 l 1
 315 300 l 1
 315 325 l 1
 250 325 l 1
EndSplineSet
EndUndoOperation
EndUndoes
Redoes
EndRedoes
EndUndoRedoHistory
Fore
SplineSet
200 800 m 1
 300 700 l 1
 250 650 l 1
 250 335 l 1
 315 335 l 1
 315 600 l 1
 325 600 l 1
 325 125 l 1
 315 125 l 1
 315 290 l 1
 250 290 l 1
 250 100 l 2
 252 98 266 96 284 96 c 0
 302 96 324 98 340 105 c 2
 425 190 l 1
 425 650 l 1
 375 700 l 1
 475 800 l 1
 575 700 l 1
 525 650 l 1
 525 275 l 1
 455 205 l 1
 250 0 l 1
 150 0 l 1
 150 650 l 1
 148 652 l 2
 136 635 120 607 120 600 c 2
 120 165 l 2
 120 115 -5 2 -20 2 c 1
 -10 7 20 57 20 67 c 2
 20 250 l 2
 -6 248 -56 229 -65 220 c 1
 -65 243 -8 293 20 299 c 2
 20 400 l 2
 -6 398 -56 379 -65 370 c 1
 -65 393 -8 443 20 449 c 2
 20 500 l 2
 20 542 106 628 144 656 c 1
 100 700 l 1
 200 800 l 1
250 325 m 1
 250 300 l 1
 315 300 l 1
 315 325 l 1
 250 325 l 1
EndSplineSet
Validated: 1
EndChar

StartChar: W
Encoding: 87 87 48
Width: 660
VWidth: 0
Flags: HW
LayerCount: 2
UndoRedoHistory
Layer: 1
Undoes
UndoOperation
Index: 0
Type: 1
WasModified: 1
WasOrder2: 0
Layer: 2
Width: 660
VWidth: 0
LBearingChange: 0
UnicodeEnc: 0
InstructionsLength: 0
SplineSet
187 800 m 5
 236 749 l 5
 237 750 l 5
 237 749 l 5
 284 700 l 5
 237 651 l 5
 237 200 l 5
 287 150 l 5
 287 490 l 5
 287 500 l 5
 287 525 l 5
 287 535 l 5
 287 600 l 5
 297 600 l 5
 297 535 l 5
 337 535 l 5
 337 651 l 5
 290 700 l 5
 387 800 l 5
 483 700 l 5
 437 652 l 5
 437 535 l 5
 477 535 l 5
 477 600 l 5
 487 600 l 5
 487 150 l 5
 530 107 l 5
 537 115 l 5
 537 651 l 5
 489 700 l 5
 587 800 l 5
 687 700 l 5
 637 650 l 5
 637 200 l 5
 567 130 l 5
 567 130 l 5
 537 100 l 5
 437 0 l 5
 337 100 l 5
 237 0 l 5
 137 100 l 5
 137 648 l 5
 125 631 112 607 112 600 c 6
 112 165 l 6
 112 115 -13 2 -28 2 c 5
 -18 7 12 57 12 67 c 6
 12 250 l 5
 -14 248 -64 229 -73 220 c 5
 -73 243 -16 293 12 299 c 5
 12 400 l 5
 -14 398 -64 379 -73 370 c 5
 -73 393 -16 443 12 449 c 5
 12 500 l 6
 12 541 94 624 133 654 c 5
 87 700 l 5
 187 800 l 5
297 525 m 5
 297 500 l 5
 337 500 l 5
 337 525 l 5
 297 525 l 5
437 525 m 5
 437 500 l 5
 477 500 l 5
 477 525 l 5
 437 525 l 5
297 490 m 5
 297 140 l 5
 330 108 l 5
 337 115 l 5
 337 490 l 5
 297 490 l 5
437 490 m 5
 437 200 l 5
 477 160 l 5
 477 490 l 5
 437 490 l 5
EndSplineSet
EndUndoOperation
EndUndoes
Redoes
EndRedoes
EndUndoRedoHistory
Fore
SplineSet
187 800 m 1
 236 749 l 1
 237 750 l 1
 237 749 l 1
 284 700 l 1
 237 651 l 1
 237 200 l 1
 287 150 l 1
 287 600 l 1
 297 600 l 1
 297 535 l 1
 337 535 l 1
 337 651 l 1
 290 700 l 1
 387 800 l 1
 483 700 l 1
 437 652 l 1
 437 535 l 1
 477 535 l 1
 477 600 l 1
 487 600 l 1
 487 150 l 1
 530 107 l 1
 537 115 l 1
 537 651 l 1
 489 700 l 1
 587 800 l 1
 687 700 l 1
 637 650 l 1
 637 200 l 1
 437 0 l 1
 337 100 l 1
 237 0 l 1
 137 100 l 1
 137 648 l 1
 125 631 112 607 112 600 c 2
 112 165 l 2
 112 115 -13 2 -28 2 c 1
 -18 7 12 57 12 67 c 2
 12 250 l 1
 -14 248 -64 229 -73 220 c 1
 -73 243 -16 293 12 299 c 1
 12 400 l 1
 -14 398 -64 379 -73 370 c 1
 -73 393 -16 443 12 449 c 1
 12 500 l 2
 12 541 94 624 133 654 c 1
 87 700 l 1
 187 800 l 1
297 525 m 1
 297 500 l 1
 337 500 l 1
 337 525 l 1
 297 525 l 1
437 525 m 1
 437 500 l 1
 477 500 l 1
 477 525 l 1
 437 525 l 1
297 490 m 1
 297 140 l 1
 330 108 l 1
 337 115 l 1
 337 490 l 1
 297 490 l 1
437 490 m 1
 437 200 l 1
 477 160 l 1
 477 490 l 1
 437 490 l 1
EndSplineSet
Validated: 1
EndChar

StartChar: X
Encoding: 88 88 49
Width: 540
VWidth: 0
Flags: HW
LayerCount: 2
UndoRedoHistory
Layer: 1
Undoes
UndoOperation
Index: 0
Type: 1
WasModified: 1
WasOrder2: 0
Layer: 2
Width: 540
VWidth: 0
LBearingChange: 0
UnicodeEnc: 0
InstructionsLength: 0
SplineSet
79 800 m 1
 179 700 l 1
 128 649 l 1
 128 575 l 1
 253 450 l 1
 348 450 l 1
 378 480 l 1
 378 650 l 1
 328 700 l 1
 428 800 l 1
 528 700 l 1
 478 650 l 1
 478 565 l 1
 403 490 l 1
 363 450 l 1
 488 325 l 1
 488 152 l 1
 540 100 l 1
 440 0 l 1
 340 100 l 1
 388 148 l 1
 388 225 l 1
 263 350 l 1
 158 350 l 1
 128 320 l 1
 128 150 l 1
 178 100 l 1
 78 0 l 1
 -22 100 l 1
 28 150 l 1
 28 235 l 1
 103 310 l 1
 148 355 l 1
 28 475 l 1
 28 651 l 1
 -21 700 l 1
 79 800 l 1
EndSplineSet
EndUndoOperation
EndUndoes
Redoes
EndRedoes
EndUndoRedoHistory
Fore
SplineSet
79 800 m 1
 179 700 l 1
 128 649 l 1
 128 575 l 1
 253 450 l 1
 348 450 l 1
 378 480 l 1
 378 650 l 1
 328 700 l 1
 428 800 l 1
 528 700 l 1
 478 650 l 1
 478 565 l 1
 403 490 l 1
 363 450 l 1
 488 325 l 1
 488 152 l 1
 540 100 l 1
 440 0 l 1
 340 100 l 1
 388 148 l 1
 388 225 l 1
 263 350 l 1
 158 350 l 1
 128 320 l 1
 128 150 l 1
 178 100 l 1
 78 0 l 1
 -22 100 l 1
 28 150 l 1
 28 235 l 1
 103 310 l 1
 148 355 l 1
 28 475 l 1
 28 651 l 1
 -21 700 l 1
 79 800 l 1
EndSplineSet
Validated: 1
EndChar

StartChar: Y
Encoding: 89 89 50
Width: 600
VWidth: 0
Flags: HW
LayerCount: 2
UndoRedoHistory
Layer: 1
Undoes
UndoOperation
Index: 0
Type: 1
WasModified: 1
WasOrder2: 0
Layer: 2
Width: 600
VWidth: 0
LBearingChange: 0
UnicodeEnc: 0
InstructionsLength: 0
SplineSet
205 775 m 1
 305 675 l 1
 255 625 l 1
 255 500 l 1
 335 500 l 1
 335 665 l 1
 345 665 l 1
 345 206 l 1
 376 175 406 150 420 150 c 2
 480 150 l 1
 480 625 l 1
 430 675 l 1
 530 775 l 1
 563 742 597 708 630 675 c 1
 580 625 l 1
 580 432 580 238.333333333 580 45 c 5
 582 44 l 1
 580 42 l 1
 580 25 l 2
 580 -11 578 -56 575 -60 c 0
 529 -127 457 -205 395 -250 c 0
 360 -277 317 -292 275 -292 c 0
 219 -292 165 -265 132 -205 c 0
 123 -189 119 -167 119 -141 c 0
 119 -79 143 -3 183 19 c 1
 183 13 182 7 182 1 c 0
 182 -113 252 -185 392 -185 c 2
 411 -185 l 1
 479 -173 480 -105 480 -50 c 2
 480 50 l 1
 330 50 l 2
 305 50 155 200 155 225 c 2
 155 625 l 1
 105 675 l 1
 205 775 l 1
130 615 m 1
 120 610 90 560 90 550 c 2
 90 250 l 2
 90 200 -35 87 -50 87 c 1
 -40 92 -10 142 -10 152 c 2
 -10 250 l 1
 -36 248 -86 229 -95 220 c 1
 -95 243 -38 293 -10 299 c 1
 -10 375 l 1
 -36 373 -86 354 -95 345 c 1
 -95 368 -38 418 -10 424 c 1
 -10 450 l 2
 -10 500 115 615 130 615 c 1
255 490 m 1
 255 465 l 1
 335 465 l 1
 335 490 l 1
 255 490 l 1
255 455 m 1
 255 325 l 2
 255 311 294 260 335 217 c 1
 335 455 l 1
 255 455 l 1
EndSplineSet
EndUndoOperation
EndUndoes
Redoes
EndRedoes
EndUndoRedoHistory
Fore
SplineSet
205 775 m 1
 305 675 l 1
 255 625 l 1
 255 500 l 1
 335 500 l 1
 335 665 l 1
 345 665 l 1
 345 206 l 1
 376 175 406 150 420 150 c 2
 480 150 l 1
 480 625 l 1
 430 675 l 1
 530 775 l 1
 563 742 597 708 630 675 c 1
 580 625 l 1
 580 432 580 238 580 45 c 1
 582 44 l 1
 580 42 l 1
 580 25 l 2
 580 -11 578 -56 575 -60 c 0
 529 -127 457 -205 395 -250 c 0
 360 -277 317 -292 275 -292 c 0
 219 -292 165 -265 132 -205 c 0
 123 -189 119 -167 119 -141 c 0
 119 -79 143 -3 183 19 c 1
 183 13 182 7 182 1 c 0
 182 -113 252 -185 392 -185 c 2
 411 -185 l 1
 479 -173 480 -105 480 -50 c 2
 480 50 l 1
 330 50 l 2
 305 50 155 200 155 225 c 2
 155 625 l 1
 105 675 l 1
 205 775 l 1
130 615 m 1
 120 610 90 560 90 550 c 2
 90 250 l 2
 90 200 -35 87 -50 87 c 1
 -40 92 -10 142 -10 152 c 2
 -10 250 l 1
 -36 248 -86 229 -95 220 c 1
 -95 243 -38 293 -10 299 c 1
 -10 375 l 1
 -36 373 -86 354 -95 345 c 1
 -95 368 -38 418 -10 424 c 1
 -10 450 l 2
 -10 500 115 615 130 615 c 1
255 490 m 1
 255 465 l 1
 335 465 l 1
 335 490 l 1
 255 490 l 1
255 455 m 1
 255 325 l 2
 255 311 294 260 335 217 c 1
 335 455 l 1
 255 455 l 1
EndSplineSet
EndChar

StartChar: Z
Encoding: 90 90 51
Width: 560
VWidth: 0
Flags: HW
LayerCount: 2
UndoRedoHistory
Layer: 1
Undoes
UndoOperation
Index: 0
Type: 1
WasModified: 1
WasOrder2: 0
Layer: 2
Width: 560
VWidth: 0
LBearingChange: 0
UnicodeEnc: 0
InstructionsLength: 0
SplineSet
550 800 m 1
 550 725 l 1
 360 475 l 1
 500 475 l 1
 400 375 l 1
 284 375 l 1
 100 132 l 1
 100 100 l 1
 450 100 l 2
 475 100 500 117 520 130 c 1
 498 60 416 2 350 0 c 1
 233 -0 117 0 0 0 c 1
 -0 25 0 50 0 75 c 1
 80 172 153.584425077 274.748908256 230 375 c 5
 50 375 l 1
 150 475 l 1
 305 475 l 1
 450 667 l 1
 450 700 l 1
 75 700 l 2
 50 700 25 683 5 670 c 1
 27 740 109 798 175 800 c 1
 550 800 l 1
450 643 m 1
 322 475 l 1
 343 475 l 1
 450 617 l 1
 450 643 l 1
247 375 m 1
 100 182 l 1
 100 153 l 1
 267 375 l 1
 247 375 l 1
EndSplineSet
EndUndoOperation
EndUndoes
Redoes
EndRedoes
EndUndoRedoHistory
Fore
SplineSet
550 800 m 1
 550 725 l 1
 360 475 l 1
 500 475 l 1
 400 375 l 1
 284 375 l 1
 100 132 l 1
 100 100 l 1
 450 100 l 2
 475 100 500 117 520 130 c 1
 498 60 416 2 350 0 c 1
 233 -0 117 0 0 0 c 1
 -0 25 0 50 0 75 c 1
 80 172 154 275 230 375 c 1
 50 375 l 1
 150 475 l 1
 305 475 l 1
 450 667 l 1
 450 700 l 1
 75 700 l 2
 50 700 25 683 5 670 c 1
 27 740 109 798 175 800 c 1
 550 800 l 1
450 643 m 1
 322 475 l 1
 343 475 l 1
 450 617 l 1
 450 643 l 1
247 375 m 1
 100 182 l 1
 100 153 l 1
 267 375 l 1
 247 375 l 1
EndSplineSet
EndChar

StartChar: one
Encoding: 49 49 52
Width: 270
VWidth: 0
Flags: W
HStem: 0 21G<163.5 192>
VStem: 100 100<115.351 645>
LayerCount: 2
UndoRedoHistory
Layer: 1
Undoes
UndoOperation
Index: 0
Type: 12
WasModified: 0
WasOrder2: 0
Layer: 0
EndUndoOperation
EndUndoes
Redoes
EndRedoes
EndUndoRedoHistory
Fore
SplineSet
200 750 m 1
 200 120 l 1
 227 115 260 108 270 101 c 1
 238 69 208 32 176 0 c 1
 151 17 124 24 98 24 c 0
 69 24 40 16 10 6 c 1
 39 40 70 73 100 103 c 1
 100 645 l 1
 83 645 60 635 30 606 c 1
 31 641 139 745 200 750 c 1
EndSplineSet
Validated: 1
EndChar

StartChar: two
Encoding: 50 50 53
Width: 470
VWidth: 0
Flags: W
HStem: 0 100<123 375.707> 780 20G<289.47 329.2>
VStem: 330 100<430 575>
LayerCount: 2
UndoRedoHistory
Layer: 1
Undoes
UndoOperation
Index: 0
Type: 12
WasModified: 0
WasOrder2: 0
Layer: 0
EndUndoOperation
EndUndoes
Redoes
EndRedoes
EndUndoRedoHistory
Fore
SplineSet
310 800 m 1
 430 675 l 1
 430 442 l 1
 430 430 l 1
 123 100 l 1
 430 100 l 2
 440 100 455 107 466 118 c 1
 455 80 355 0 330 0 c 2
 30 0 l 1
 10 0 l 1
 330 343 l 1
 330 575 l 1
 216 694 l 1
 155 634 l 1
 155 525 l 1
 55 425 l 1
 55 550 l 1
 110 605 l 1
 155 650 l 1
 155 649 l 1
 310 800 l 1
EndSplineSet
Validated: 1
EndChar

StartChar: three
Encoding: 51 51 54
Width: 390
VWidth: 0
Flags: HW
LayerCount: 2
UndoRedoHistory
Layer: 1
Undoes
UndoOperation
Index: 0
Type: 1
WasModified: 1
WasOrder2: 0
Layer: 2
Width: 390
VWidth: 0
LBearingChange: 0
UnicodeEnc: 0
InstructionsLength: 0
SplineSet
265 800 m 1
 385 675 l 1
 385 588 l 1
 385 575 l 1
 275 465 l 1
 385 350 l 1
 385 150 l 1
 335 100 l 1
 235 0 l 1
 135 0 l 1
 15 125 l 1
 15 231 l 1
 115 331 l 1
 115 225 l 1
 235 100 l 1
 285 100 l 1
 285 250 l 1
 165 375 l 1
 190 400 l 1
 285 495 l 1
 285 575 l 1
 171 694 l 1
 110 634 l 1
 110 544 l 1
 10 444 l 1
 10 550 l 1
 65 605 l 1
 110 650 l 1
 110 649 l 1
 265 800 l 1
EndSplineSet
EndUndoOperation
EndUndoes
Redoes
EndRedoes
EndUndoRedoHistory
Fore
SplineSet
265 800 m 1
 385 675 l 1
 385 588 l 1
 385 575 l 1
 275 465 l 1
 385 350 l 1
 385 150 l 1
 335 100 l 1
 235 0 l 1
 135 0 l 1
 15 125 l 1
 15 231 l 1
 115 331 l 1
 115 225 l 1
 235 100 l 1
 285 100 l 1
 285 250 l 1
 165 375 l 1
 190 400 l 1
 285 495 l 1
 285 575 l 1
 171 694 l 1
 110 634 l 1
 110 544 l 1
 10 444 l 1
 10 550 l 1
 65 605 l 1
 110 650 l 1
 110 649 l 1
 265 800 l 1
EndSplineSet
Validated: 1
EndChar

StartChar: four
Encoding: 52 52 55
Width: 440
VWidth: 0
Flags: HW
LayerCount: 2
UndoRedoHistory
Layer: 1
Undoes
UndoOperation
Index: 0
Type: 1
WasModified: 0
WasOrder2: 0
Layer: 2
Width: 440
VWidth: 0
LBearingChange: 0
UnicodeEnc: 0
InstructionsLength: 0
SplineSet
410 800 m 5
 410 799 l 5
 410 780 l 5
 410 110 l 5
 440 80 l 5
 360 0 l 5
 280 80 l 5
 310 110 l 5
 310 305 l 5
 10 305 l 5
 10 405 l 5
 10 410 l 5
 10 430 l 5
 410 800 l 5
310 686 m 5
 110 499 l 5
 110 405 l 5
 310 405 l 5
 310 686 l 5
EndSplineSet
EndUndoOperation
EndUndoes
Redoes
EndRedoes
EndUndoRedoHistory
Fore
SplineSet
410 800 m 1
 410 110 l 1
 440 80 l 1
 360 0 l 1
 280 80 l 1
 310 110 l 1
 310 305 l 1
 10 305 l 1
 10 430 l 1
 410 800 l 1
310 686 m 1
 110 499 l 1
 110 405 l 1
 310 405 l 1
 310 686 l 1
EndSplineSet
Validated: 1
EndChar

StartChar: five
Encoding: 53 53 56
Width: 430
VWidth: 0
Flags: HW
LayerCount: 2
UndoRedoHistory
Layer: 1
Undoes
UndoOperation
Index: 0
Type: 1
WasModified: 1
WasOrder2: 0
Layer: 2
Width: 430
VWidth: 0
LBearingChange: 0
UnicodeEnc: 0
InstructionsLength: 0
SplineSet
135 800 m 1
 385 800 l 1
 435 750 l 1
 435 675 l 1
 335 575 l 1
 335 650 l 1
 285 700 l 1
 140 700 l 1
 140 633 140 567 140 500 c 1
 310 500 l 1
 435 400 l 1
 435 175 l 1
 260 0 l 1
 130 0 l 1
 10 125 l 1
 110 225 l 1
 230 100 l 1
 335 100 l 1
 335 300 l 1
 210 400 l 1
 40 400 l 1
 40 500 40 599.333333333 40 699 c 5
 41 700 l 1
 40 700 l 1
 135 800 l 1
EndSplineSet
EndUndoOperation
EndUndoes
Redoes
EndRedoes
EndUndoRedoHistory
Fore
SplineSet
135 800 m 1
 385 800 l 1
 435 750 l 1
 435 675 l 1
 335 575 l 1
 335 650 l 1
 285 700 l 1
 140 700 l 1
 140 633 140 567 140 500 c 1
 310 500 l 1
 435 400 l 1
 435 175 l 1
 260 0 l 1
 130 0 l 1
 10 125 l 1
 110 225 l 1
 230 100 l 1
 335 100 l 1
 335 300 l 1
 210 400 l 1
 40 400 l 1
 40 500 40 599 40 699 c 1
 41 700 l 1
 40 700 l 1
 135 800 l 1
EndSplineSet
EndChar

StartChar: six
Encoding: 54 54 57
Width: 430
VWidth: 0
Flags: HW
LayerCount: 2
UndoRedoHistory
Layer: 1
Undoes
UndoOperation
Index: 0
Type: 1
WasModified: 1
WasOrder2: 0
Layer: 2
Width: 430
VWidth: 0
LBearingChange: 0
UnicodeEnc: 0
InstructionsLength: 0
SplineSet
195 800 m 1
 345 800 l 1
 410 735 l 1
 410 680 l 1
 310 580 l 1
 310 635 l 1
 245 700 l 1
 100 700 l 1
 100 550 l 1
 100 500 l 1
 270 500 l 1
 395 400 l 1
 395 175 l 1
 320 100 l 1
 295 75 l 1
 220 0 l 1
 120 0 l 1
 0 125 l 1
 0 450 l 1
 0 605 l 1
 95 700 l 1
 195 800 l 1
100 400 m 1
 100 225 l 1
 220 100 l 1
 295 100 l 1
 295 300 l 1
 170 400 l 1
 100 400 l 1
EndSplineSet
EndUndoOperation
EndUndoes
Redoes
EndRedoes
EndUndoRedoHistory
Fore
SplineSet
195 800 m 1
 345 800 l 1
 410 735 l 1
 410 680 l 1
 310 580 l 1
 310 635 l 1
 245 700 l 1
 100 700 l 1
 100 550 l 1
 100 500 l 1
 270 500 l 1
 395 400 l 1
 395 175 l 1
 320 100 l 1
 295 75 l 1
 220 0 l 1
 120 0 l 1
 0 125 l 1
 0 450 l 1
 0 605 l 1
 95 700 l 1
 195 800 l 1
100 400 m 1
 100 225 l 1
 220 100 l 1
 295 100 l 1
 295 300 l 1
 170 400 l 1
 100 400 l 1
EndSplineSet
Validated: 1
EndChar

StartChar: seven
Encoding: 55 55 58
Width: 510
VWidth: 0
Flags: HW
LayerCount: 2
UndoRedoHistory
Layer: 1
Undoes
UndoOperation
Index: 0
Type: 1
WasModified: 1
WasOrder2: 0
Layer: 2
Width: 510
VWidth: 0
LBearingChange: 0
UnicodeEnc: 0
InstructionsLength: 0
SplineSet
110 800 m 1
 510 800 l 1
 510 625 l 1
 510 605 l 1
 310 418 l 1
 310 110 l 1
 340 80 l 1
 260 0 l 1
 180 80 l 1
 210 110 l 1
 210 325 l 1
 210 345 l 1
 410 532 l 1
 410 700 l 1
 85 700 l 1
 10 625 l 1
 10 700 l 1
 110 800 l 1
EndSplineSet
EndUndoOperation
EndUndoes
Redoes
EndRedoes
EndUndoRedoHistory
Fore
SplineSet
110 800 m 1
 510 800 l 1
 510 625 l 1
 510 605 l 1
 310 418 l 1
 310 110 l 1
 340 80 l 1
 260 0 l 1
 180 80 l 1
 210 110 l 1
 210 325 l 1
 210 345 l 1
 410 532 l 1
 410 700 l 1
 85 700 l 1
 10 625 l 1
 10 700 l 1
 110 800 l 1
EndSplineSet
Validated: 1
EndChar

StartChar: nine
Encoding: 57 57 59
Width: 390
VWidth: 0
Flags: HW
LayerCount: 2
UndoRedoHistory
Layer: 1
Undoes
UndoOperation
Index: 0
Type: 1
WasModified: 1
WasOrder2: 0
Layer: 2
Width: 390
VWidth: 0
LBearingChange: 0
UnicodeEnc: 0
InstructionsLength: 0
SplineSet
265 800 m 1
 385 675 l 1
 385 300 l 1
 385 150 l 1
 335 100 l 1
 235 0 l 1
 85 0 l 1
 10 75 l 1
 10 150 l 1
 110 250 l 1
 110 175 l 1
 185 100 l 1
 285 100 l 1
 285 200 l 1
 285 300 l 1
 140 300 l 1
 135 295 l 1
 10 400 l 1
 10 550 l 1
 65 605 l 1
 110 650 l 1
 110 649 l 1
 265 800 l 1
171 694 m 1
 110 634 l 1
 110 500 l 1
 235 400 l 1
 285 400 l 1
 285 575 l 1
 171 694 l 1
EndSplineSet
EndUndoOperation
EndUndoes
Redoes
EndRedoes
EndUndoRedoHistory
Fore
SplineSet
265 800 m 1
 385 675 l 1
 385 300 l 1
 385 150 l 1
 335 100 l 1
 235 0 l 1
 85 0 l 1
 10 75 l 1
 10 150 l 1
 110 250 l 1
 110 175 l 1
 185 100 l 1
 285 100 l 1
 285 200 l 1
 285 300 l 1
 140 300 l 1
 135 295 l 1
 10 400 l 1
 10 550 l 1
 65 605 l 1
 110 650 l 1
 110 649 l 1
 265 800 l 1
171 694 m 1
 110 634 l 1
 110 500 l 1
 235 400 l 1
 285 400 l 1
 285 575 l 1
 171 694 l 1
EndSplineSet
Validated: 1
EndChar

StartChar: eight
Encoding: 56 56 60
Width: 380
VWidth: 0
Flags: HW
LayerCount: 2
UndoRedoHistory
Layer: 1
Undoes
UndoOperation
Index: 0
Type: 1
WasModified: 1
WasOrder2: 0
Layer: 2
Width: 380
VWidth: 0
LBearingChange: 0
UnicodeEnc: 0
InstructionsLength: 0
SplineSet
255 800 m 1
 375 675 l 1
 375 588 l 1
 375 575 l 1
 243 446 l 1
 375 350 l 1
 375 150 l 1
 325 100 l 1
 225 0 l 1
 125 0 l 1
 5 125 l 1
 5 215 l 1
 5 235 l 1
 129 356 l 1
 4 447 l 1
 0 444 l 1
 0 450 l 1
 0 550 l 1
 55 605 l 1
 100 650 l 1
 100 649 l 1
 255 800 l 1
161 694 m 1
 100 634 l 1
 100 550 l 1
 231 455 l 1
 275 498 l 1
 275 575 l 1
 161 694 l 1
141 347 m 1
 105 312 l 1
 105 225 l 1
 225 100 l 1
 275 100 l 1
 275 250 l 1
 141 347 l 1
EndSplineSet
EndUndoOperation
EndUndoes
Redoes
EndRedoes
EndUndoRedoHistory
Fore
SplineSet
255 800 m 1
 375 675 l 1
 375 588 l 1
 375 575 l 1
 243 446 l 1
 375 350 l 1
 375 150 l 1
 325 100 l 1
 225 0 l 1
 125 0 l 1
 5 125 l 1
 5 215 l 1
 5 235 l 1
 129 356 l 1
 4 447 l 1
 0 444 l 1
 0 450 l 1
 0 550 l 1
 55 605 l 1
 100 650 l 1
 100 649 l 1
 255 800 l 1
161 694 m 1
 100 634 l 1
 100 550 l 1
 231 455 l 1
 275 498 l 1
 275 575 l 1
 161 694 l 1
141 347 m 1
 105 312 l 1
 105 225 l 1
 225 100 l 1
 275 100 l 1
 275 250 l 1
 141 347 l 1
EndSplineSet
Validated: 1
EndChar

StartChar: zero
Encoding: 48 48 61
Width: 390
VWidth: 0
Flags: HW
HStem: 0 21G<110.8 150.53> 780 20G<244.47 284.2>
VStem: 10 100<225 550> 285 100<250 575>
LayerCount: 2
UndoRedoHistory
Layer: 1
Undoes
UndoOperation
Index: 0
Type: 1
WasModified: 1
WasOrder2: 0
Layer: 2
Width: 390
VWidth: 0
LBearingChange: 0
UnicodeEnc: 0
InstructionsLength: 0
SplineSet
265 800 m 1
 385 675 l 1
 385 250 l 1
 285 150 l 5
 285 151 l 5
 130 0 l 1
 10 125 l 1
 10 550 l 1
 43 583 77 617 110 650 c 1
 110 649 l 1
 265 800 l 1
171 694 m 1
 110 634 l 1
 110 225 l 1
 224 106 l 1
 285 166 l 1
 285 575 l 1
 171 694 l 1
EndSplineSet
EndUndoOperation
EndUndoes
Redoes
EndRedoes
EndUndoRedoHistory
Fore
SplineSet
265 800 m 1
 385 675 l 1
 385 250 l 1
 285 150 l 1
 285 151 l 1
 130 0 l 1
 10 125 l 1
 10 550 l 1
 110 650 l 1
 110 649 l 1
 265 800 l 1
171 694 m 1
 110 634 l 1
 110 225 l 1
 224 106 l 1
 285 166 l 1
 285 575 l 1
 171 694 l 1
EndSplineSet
Validated: 1
EndChar

StartChar: exclam
Encoding: 33 33 62
Width: 170
VWidth: 0
Flags: W
HStem: 0 21G<70 110>
VStem: 40 100<350 675>
LayerCount: 2
UndoRedoHistory
Layer: 1
Undoes
UndoOperation
Index: 0
Type: 12
WasModified: 0
WasOrder2: 0
Layer: 0
EndUndoOperation
EndUndoes
Redoes
EndRedoes
EndUndoRedoHistory
Fore
SplineSet
140 775 m 1
 140 350 l 1
 40 250 l 1
 40 675 l 1
 140 775 l 1
90 160 m 1
 170 80 l 1
 90 0 l 1
 10 80 l 1
 90 160 l 1
EndSplineSet
Validated: 1
EndChar

StartChar: at
Encoding: 64 64 63
Width: 610
VWidth: 0
Flags: HW
LayerCount: 2
UndoRedoHistory
Layer: 1
Undoes
UndoOperation
Index: 0
Type: 1
WasModified: 1
WasOrder2: 0
Layer: 2
Width: 610
VWidth: 0
LBearingChange: 0
UnicodeEnc: 0
InstructionsLength: 0
SplineSet
260 800 m 1
 410 800 l 1
 610 600 l 1
 610 250 l 1
 510 150 l 1
 360 150 l 1
 360 245 l 1
 265 150 l 1
 115 287 l 1
 125 297 l 1
 125 485 l 1
 115 475 l 1
 103 487 l 1
 315 700 l 1
 319 696 323.666666667 691.333333333 328 687 c 5
 327 687 l 1
 475 535 l 1
 460 520 l 1
 460 250 l 1
 560 250 l 1
 560 550 l 1
 360 750 l 1
 232 750 l 1
 60 595 l 1
 60 250 l 1
 260 50 l 1
 391 50 l 1
 485 125 l 1
 485 100 l 1
 360 0 l 1
 210 0 l 1
 10 200 l 1
 10 325 10 450 10 575 c 1
 260 800 l 1
230 590 m 1
 230 375 l 1
 349 261 l 1
 360 273 l 1
 360 451 l 1
 230 590 l 1
EndSplineSet
EndUndoOperation
EndUndoes
Redoes
EndRedoes
EndUndoRedoHistory
Fore
SplineSet
260 800 m 1
 410 800 l 1
 610 600 l 1
 610 250 l 1
 510 150 l 1
 360 150 l 1
 360 245 l 1
 265 150 l 1
 115 287 l 1
 125 297 l 1
 125 485 l 1
 115 475 l 1
 103 487 l 1
 315 700 l 1
 319 696 324 691 328 687 c 1
 327 687 l 1
 475 535 l 1
 460 520 l 1
 460 250 l 1
 560 250 l 1
 560 550 l 1
 360 750 l 1
 232 750 l 1
 60 595 l 1
 60 250 l 1
 260 50 l 1
 391 50 l 1
 485 125 l 1
 485 100 l 1
 360 0 l 1
 210 0 l 1
 10 200 l 1
 10 325 10 450 10 575 c 1
 260 800 l 1
230 590 m 1
 230 375 l 1
 349 261 l 1
 360 273 l 1
 360 451 l 1
 230 590 l 1
EndSplineSet
EndChar

StartChar: numbersign
Encoding: 35 35 64
Width: 560
VWidth: 0
Flags: W
HStem: 260 100<110 135 235 335 435 460> 410 100<110 135 235 335 435 460>
VStem: 135 100<210 260 360 410 510 560> 335 100<210 260 360 410 510 560>
LayerCount: 2
UndoRedoHistory
Layer: 1
Undoes
UndoOperation
Index: 0
Type: 12
WasModified: 0
WasOrder2: 0
Layer: 0
EndUndoOperation
EndUndoes
Redoes
EndRedoes
EndUndoRedoHistory
Fore
SplineSet
235 660 m 1
 235 510 l 1
 335 510 l 1
 335 560 l 1
 435 660 l 1
 435 510 l 1
 560 510 l 1
 460 410 l 1
 435 410 l 1
 435 360 l 1
 560 360 l 1
 460 260 l 1
 435 260 l 1
 435 210 l 1
 335 110 l 1
 335 260 l 1
 235 260 l 1
 235 210 l 1
 135 110 l 1
 135 260 l 1
 10 260 l 1
 110 360 l 1
 135 360 l 1
 135 410 l 1
 10 410 l 1
 110 510 l 1
 135 510 l 1
 135 560 l 1
 235 660 l 1
235 410 m 1
 235 360 l 1
 335 360 l 1
 335 410 l 1
 235 410 l 1
EndSplineSet
Validated: 1
EndChar

StartChar: dollar
Encoding: 36 36 65
Width: 420
VWidth: 0
Flags: W
HStem: 0 21G<172 192>
VStem: 172 100<100 131 660 675>
LayerCount: 2
UndoRedoHistory
Layer: 1
Undoes
UndoOperation
Index: 0
Type: 12
WasModified: 0
WasOrder2: 0
Layer: 0
EndUndoOperation
EndUndoes
Redoes
EndRedoes
EndUndoRedoHistory
Fore
SplineSet
272 775 m 1
 272 660 l 1
 422 556 l 1
 335 481 l 1
 188 572 l 1
 160 544 l 1
 160 513 l 1
 372 394 l 1
 372 331 l 1
 272 231 l 1
 272 100 l 1
 172 0 l 1
 172 131 l 1
 148 106 l 1
 10 206 l 1
 130 301 l 1
 245 228 l 1
 260 244 l 1
 260 289 l 1
 60 406 l 1
 60 469 l 1
 172 581 l 1
 172 675 l 1
 272 775 l 1
EndSplineSet
Validated: 1
EndChar

StartChar: percent
Encoding: 37 37 66
Width: 460
VWidth: 0
Flags: W
LayerCount: 2
UndoRedoHistory
Layer: 1
Undoes
UndoOperation
Index: 0
Type: 12
WasModified: 0
WasOrder2: 0
Layer: 0
EndUndoOperation
EndUndoes
Redoes
EndRedoes
EndUndoRedoHistory
Fore
SplineSet
110 660 m 1
 190 580 l 1
 110 500 l 1
 30 580 l 1
 110 660 l 1
410 660 m 1
 460 610 l 1
 60 160 l 1
 10 210 l 1
 410 660 l 1
360 320 m 1
 440 240 l 1
 360 160 l 1
 280 240 l 1
 360 320 l 1
EndSplineSet
Validated: 1
EndChar

StartChar: asciicircum
Encoding: 94 94 67
Width: 450
VWidth: 0
Flags: HW
LayerCount: 2
UndoRedoHistory
Layer: 1
Undoes
UndoOperation
Index: 0
Type: 1
WasModified: 1
WasOrder2: 0
Layer: 2
Width: 450
VWidth: 0
LBearingChange: 0
UnicodeEnc: 0
InstructionsLength: 0
SplineSet
241 800 m 1
 447 628 l 1
 344 525 l 1
 155 680 l 1
 17 542 l 1
 0 559 l 1
 241 800 l 1
EndSplineSet
EndUndoOperation
EndUndoes
Redoes
EndRedoes
EndUndoRedoHistory
Fore
SplineSet
241 800 m 1
 447 628 l 1
 344 525 l 1
 155 680 l 1
 17 542 l 1
 0 559 l 1
 241 800 l 1
EndSplineSet
Validated: 1
EndChar

StartChar: ampersand
Encoding: 38 38 68
Width: 610
VWidth: 0
Flags: W
HStem: 0 100<310 348> 325 100<341.458 385> 550 21G<340 380> 780 20G<290 330>
VStem: 60 100<250 300> 385 125<150 325>
LayerCount: 2
UndoRedoHistory
Layer: 1
Undoes
UndoOperation
Index: 0
Type: 12
WasModified: 0
WasOrder2: 0
Layer: 0
EndUndoOperation
EndUndoes
Redoes
EndRedoes
EndUndoRedoHistory
Fore
SplineSet
310 800 m 1
 335 775 l 1
 460 650 l 1
 360 550 l 1
 235 675 l 1
 135 575 l 1
 260 450 l 1
 160 350 l 1
 160 250 l 1
 310 100 l 1
 385 100 l 1
 385 325 l 1
 310 325 l 2
 285 325 235 325 210 300 c 1
 210 325 360 425 410 425 c 2
 610 425 l 1
 510 325 l 1
 510 150 l 1
 448 100 l 1
 348 0 l 1
 210 0 l 1
 60 150 l 1
 60 300 l 1
 135 375 l 1
 10 500 l 1
 110 600 l 1
 210 700 l 1
 310 800 l 1
EndSplineSet
Validated: 1
EndChar

StartChar: parenleft
Encoding: 40 40 69
Width: 210
VWidth: 0
Flags: W
HStem: 0 21G<90 130> 780 20G<140 160>
VStem: 10 100<200 650>
LayerCount: 2
UndoRedoHistory
Layer: 1
Undoes
UndoOperation
Index: 0
Type: 12
WasModified: 0
WasOrder2: 0
Layer: 0
EndUndoOperation
EndUndoes
Redoes
EndRedoes
EndUndoRedoHistory
Fore
SplineSet
160 800 m 1
 160 750 l 1
 110 700 l 1
 110 200 l 1
 210 100 l 1
 110 0 l 1
 10 100 l 1
 10 600 l 1
 10 650 l 1
 160 800 l 1
EndSplineSet
Validated: 1
EndChar

StartChar: parenright
Encoding: 41 41 70
Width: 210
VWidth: 0
Flags: W
HStem: 0 21G<60 80> 780 20G<90 130>
VStem: 110 100<150 600>
LayerCount: 2
UndoRedoHistory
Layer: 1
Undoes
UndoOperation
Index: 0
Type: 12
WasModified: 0
WasOrder2: 0
Layer: 0
EndUndoOperation
EndUndoes
Redoes
EndRedoes
EndUndoRedoHistory
Fore
SplineSet
110 800 m 1
 210 700 l 1
 210 200 l 1
 210 150 l 1
 60 0 l 1
 60 50 l 1
 110 100 l 1
 110 600 l 1
 10 700 l 1
 110 800 l 1
EndSplineSet
Validated: 1
EndChar

StartChar: hyphen
Encoding: 45 45 71
Width: 460
VWidth: 0
Flags: W
HStem: 360 100<110 360>
LayerCount: 2
UndoRedoHistory
Layer: 1
Undoes
UndoOperation
Index: 0
Type: 12
WasModified: 0
WasOrder2: 0
Layer: 0
EndUndoOperation
EndUndoes
Redoes
EndRedoes
EndUndoRedoHistory
Fore
SplineSet
110 460 m 1
 460 460 l 1
 360 360 l 1
 10 360 l 1
 110 460 l 1
EndSplineSet
Validated: 1
EndChar

StartChar: underscore
Encoding: 95 95 72
Width: 610
VWidth: 0
Flags: HW
LayerCount: 2
UndoRedoHistory
Layer: 1
Undoes
UndoOperation
Index: 0
Type: 1
WasModified: 1
WasOrder2: 0
Layer: 2
Width: 610
VWidth: 0
LBearingChange: 0
UnicodeEnc: 0
InstructionsLength: 0
SplineSet
110 0 m 1
 610 0 l 1
 510 -100 l 1
 10 -100 l 1
 110 0 l 1
EndSplineSet
EndUndoOperation
EndUndoes
Redoes
EndRedoes
EndUndoRedoHistory
Fore
SplineSet
110 0 m 1
 610 0 l 1
 510 -100 l 1
 10 -100 l 1
 110 0 l 1
EndSplineSet
Validated: 1
EndChar

StartChar: equal
Encoding: 61 61 73
Width: 460
VWidth: 0
Flags: HW
LayerCount: 2
UndoRedoHistory
Layer: 1
Undoes
UndoOperation
Index: 0
Type: 1
WasModified: 1
WasOrder2: 0
Layer: 2
Width: 460
VWidth: 0
LBearingChange: 0
UnicodeEnc: 0
InstructionsLength: 0
SplineSet
110 470 m 5
 460 470 l 5
 360 370 l 5
 10 370 l 5
 110 470 l 5
110 320 m 5
 460 320 l 5
 360 220 l 5
 10 220 l 5
 110 320 l 5
EndSplineSet
EndUndoOperation
EndUndoes
Redoes
EndRedoes
EndUndoRedoHistory
Fore
SplineSet
110 470 m 1
 460 470 l 1
 360 370 l 1
 10 370 l 1
 110 470 l 1
110 320 m 1
 460 320 l 1
 360 220 l 1
 10 220 l 1
 110 320 l 1
EndSplineSet
Validated: 1
EndChar

StartChar: plus
Encoding: 43 43 74
Width: 460
VWidth: 0
Flags: W
HStem: 340 100<110 185 285 360>
VStem: 185 100<265 340 440 515>
LayerCount: 2
UndoRedoHistory
Layer: 1
Undoes
UndoOperation
Index: 0
Type: 12
WasModified: 0
WasOrder2: 0
Layer: 0
EndUndoOperation
EndUndoes
Redoes
EndRedoes
EndUndoRedoHistory
Fore
SplineSet
285 615 m 1
 285 440 l 1
 460 440 l 1
 360 340 l 1
 285 340 l 1
 285 265 l 1
 185 165 l 1
 185 340 l 1
 10 340 l 1
 110 440 l 1
 185 440 l 1
 185 515 l 1
 285 615 l 1
EndSplineSet
Validated: 1
EndChar

StartChar: slash
Encoding: 47 47 75
Width: 290
VWidth: 0
Flags: W
VStem: 10 275
LayerCount: 2
UndoRedoHistory
Layer: 1
Undoes
UndoOperation
Index: 0
Type: 12
WasModified: 0
WasOrder2: 0
Layer: 0
EndUndoOperation
EndUndoes
Redoes
EndRedoes
EndUndoRedoHistory
Fore
SplineSet
10 120 m 1
 10 195 l 1
 285 595 l 1
 285 520 l 1
 10 120 l 1
EndSplineSet
Validated: 1
EndChar

StartChar: greater
Encoding: 62 62 76
Width: 290
VWidth: 0
Flags: HW
LayerCount: 2
UndoRedoHistory
Layer: 1
Undoes
UndoOperation
Index: 0
Type: 1
WasModified: 1
WasOrder2: 0
Layer: 2
Width: 290
VWidth: 0
LBearingChange: 0
UnicodeEnc: 0
InstructionsLength: 0
SplineSet
110 585 m 5
 260 435 l 5
 285 410 l 5
 60 210 l 5
 35 235 l 5
 154 341 l 5
 10 485 l 5
 110 585 l 5
EndSplineSet
EndUndoOperation
EndUndoes
Redoes
EndRedoes
EndUndoRedoHistory
Fore
SplineSet
110 585 m 1
 260 435 l 1
 285 410 l 1
 60 210 l 1
 35 235 l 1
 154 341 l 1
 10 485 l 1
 110 585 l 1
EndSplineSet
Validated: 1
EndChar

StartChar: bracketleft
Encoding: 91 91 77
Width: 260
VWidth: 0
Flags: HW
LayerCount: 2
UndoRedoHistory
Layer: 1
Undoes
UndoOperation
Index: 0
Type: 1
WasModified: 1
WasOrder2: 0
Layer: 2
Width: 260
VWidth: 0
LBearingChange: 0
UnicodeEnc: 0
InstructionsLength: 0
SplineSet
110 800 m 1
 260 800 l 1
 160 700 l 1
 110 700 l 1
 110 100 l 1
 260 100 l 1
 160 0 l 1
 10 0 l 1
 10 700 l 1
 110 800 l 1
EndSplineSet
EndUndoOperation
EndUndoes
Redoes
EndRedoes
EndUndoRedoHistory
Fore
SplineSet
110 800 m 1
 260 800 l 1
 160 700 l 1
 110 700 l 1
 110 100 l 1
 260 100 l 1
 160 0 l 1
 10 0 l 1
 10 700 l 1
 110 800 l 1
EndSplineSet
Validated: 1
EndChar

StartChar: bracketright
Encoding: 93 93 78
Width: 260
VWidth: 0
Flags: HW
LayerCount: 2
UndoRedoHistory
Layer: 1
Undoes
UndoOperation
Index: 0
Type: 1
WasModified: 1
WasOrder2: 0
Layer: 2
Width: 260
VWidth: 0
LBearingChange: 0
UnicodeEnc: 0
InstructionsLength: 0
SplineSet
110 800 m 1
 260 800 l 1
 260 100 l 1
 160 0 l 1
 10 0 l 1
 110 100 l 1
 160 100 l 1
 160 700 l 1
 10 700 l 1
 110 800 l 1
EndSplineSet
EndUndoOperation
EndUndoes
Redoes
EndRedoes
EndUndoRedoHistory
Fore
SplineSet
110 800 m 1
 260 800 l 1
 260 100 l 1
 160 0 l 1
 10 0 l 1
 110 100 l 1
 160 100 l 1
 160 700 l 1
 10 700 l 1
 110 800 l 1
EndSplineSet
Validated: 1
EndChar

StartChar: braceleft
Encoding: 123 123 79
Width: 390
VWidth: 0
Flags: HW
LayerCount: 2
UndoRedoHistory
Layer: 1
Undoes
UndoOperation
Index: 0
Type: 1
WasModified: 1
WasOrder2: 0
Layer: 2
Width: 390
VWidth: 0
LBearingChange: 0
UnicodeEnc: 0
InstructionsLength: 0
SplineSet
285 800 m 1
 385 800 l 1
 285 700 l 1
 200 700 l 1
 185 685 l 1
 185 500 l 1
 122 438 l 1
 185 375 l 1
 185 175 l 1
 260 100 l 1
 385 100 l 1
 285 0 l 1
 160 0 l 1
 85 75 l 1
 85 275 l 1
 10 350 l 1
 85 425 l 1
 85 585 l 1
 85 600 l 1
 185 700 l 1
 285 800 l 1
EndSplineSet
EndUndoOperation
EndUndoes
Redoes
EndRedoes
EndUndoRedoHistory
Fore
SplineSet
285 800 m 1
 385 800 l 1
 285 700 l 1
 200 700 l 1
 185 685 l 1
 185 500 l 1
 122 438 l 1
 185 375 l 1
 185 175 l 1
 260 100 l 1
 385 100 l 1
 285 0 l 1
 160 0 l 1
 85 75 l 1
 85 275 l 1
 10 350 l 1
 85 425 l 1
 85 585 l 1
 85 600 l 1
 185 700 l 1
 285 800 l 1
EndSplineSet
Validated: 1
EndChar

StartChar: braceright
Encoding: 125 125 80
Width: 390
VWidth: 0
Flags: HW
LayerCount: 2
UndoRedoHistory
Layer: 1
Undoes
UndoOperation
Index: 0
Type: 1
WasModified: 1
WasOrder2: 0
Layer: 2
Width: 390
VWidth: 0
LBearingChange: 0
UnicodeEnc: 0
InstructionsLength: 0
SplineSet
110 800 m 1
 235 800 l 1
 310 725 l 1
 310 525 l 1
 385 450 l 1
 310 375 l 1
 310 215 l 1
 310 200 l 1
 210 100 l 1
 110 0 l 1
 10 0 l 1
 110 100 l 1
 195 100 l 1
 210 115 l 1
 210 300 l 1
 272 362 l 1
 210 425 l 1
 210 625 l 1
 135 700 l 1
 10 700 l 1
 110 800 l 1
EndSplineSet
EndUndoOperation
EndUndoes
Redoes
EndRedoes
EndUndoRedoHistory
Fore
SplineSet
110 800 m 1
 235 800 l 1
 310 725 l 1
 310 525 l 1
 385 450 l 1
 310 375 l 1
 310 215 l 1
 310 200 l 1
 210 100 l 1
 110 0 l 1
 10 0 l 1
 110 100 l 1
 195 100 l 1
 210 115 l 1
 210 300 l 1
 272 362 l 1
 210 425 l 1
 210 625 l 1
 135 700 l 1
 10 700 l 1
 110 800 l 1
EndSplineSet
Validated: 1
EndChar

StartChar: backslash
Encoding: 92 92 81
Width: 560
VWidth: 0
Flags: HW
LayerCount: 2
UndoRedoHistory
Layer: 1
Undoes
UndoOperation
Index: 0
Type: 1
WasModified: 1
WasOrder2: 0
Layer: 2
Width: 560
VWidth: 0
LBearingChange: 0
UnicodeEnc: 0
InstructionsLength: 0
SplineSet
10 580 m 5
 110 680 l 5
 560 180 l 5
 460 80 l 5
 10 580 l 5
EndSplineSet
EndUndoOperation
EndUndoes
Redoes
EndRedoes
EndUndoRedoHistory
Fore
SplineSet
10 580 m 1
 110 680 l 1
 560 180 l 1
 460 80 l 1
 10 580 l 1
EndSplineSet
Validated: 1
EndChar

StartChar: bar
Encoding: 124 124 82
Width: 110
VWidth: 0
Flags: HW
LayerCount: 2
UndoRedoHistory
Layer: 1
Undoes
UndoOperation
Index: 0
Type: 1
WasModified: 1
WasOrder2: 0
Layer: 2
Width: 110
VWidth: 0
LBearingChange: 0
UnicodeEnc: 0
InstructionsLength: 0
SplineSet
10 700 m 1
 110 800 l 1
 110 0 l 1
 10 -100 l 1
 10 700 l 1
EndSplineSet
EndUndoOperation
EndUndoes
Redoes
EndRedoes
EndUndoRedoHistory
Fore
SplineSet
10 700 m 1
 110 800 l 1
 110 0 l 1
 10 -100 l 1
 10 700 l 1
EndSplineSet
Validated: 1
EndChar

StartChar: asciitilde
Encoding: 126 126 83
Width: 490
VWidth: 0
Flags: HW
LayerCount: 2
UndoRedoHistory
Layer: 1
Undoes
UndoOperation
Index: 0
Type: 1
WasModified: 1
WasOrder2: 0
Layer: 2
Width: 490
VWidth: 0
LBearingChange: 0
UnicodeEnc: 0
InstructionsLength: 0
SplineSet
198 514 m 4
 203 515 207 516 212 516 c 0
 276 516 349 430 426 430 c 0
 427 430 l 4
 455 438 470 463 493 484 c 5
 458 428 384 340 306 330 c 4
 247 338 191 412 120 420 c 4
 93 420 20 353 10 349 c 5
 54 393 140 482 198 514 c 4
EndSplineSet
EndUndoOperation
EndUndoes
Redoes
EndRedoes
EndUndoRedoHistory
Fore
SplineSet
198 514 m 0
 203 515 207 516 212 516 c 0
 276 516 349 430 426 430 c 0
 427 430 l 0
 455 438 470 463 493 484 c 1
 458 428 384 340 306 330 c 0
 247 338 191 412 120 420 c 0
 93 420 20 353 10 349 c 1
 54 393 140 482 198 514 c 0
EndSplineSet
Validated: 1
EndChar

StartChar: grave
Encoding: 193 96 84
Width: 140
VWidth: 0
Flags: HW
LayerCount: 2
UndoRedoHistory
Layer: 1
Undoes
UndoOperation
Index: 0
Type: 1
WasModified: 1
WasOrder2: 0
Layer: 2
Width: 140
VWidth: 0
LBearingChange: 0
UnicodeEnc: 0
InstructionsLength: 0
SplineSet
43 800 m 2
 43 800 l 2
 75 763 111 721 143 684 c 1
 135 679 115 670 111 647 c 0
 110 642 109 637 109 632 c 0
 109 615 116 598 122 583 c 1
 89 622 56 660 23 699 c 0
 19 707 16 716 13 725 c 0
 11 732 10 739 10 746 c 0
 10 755 12 764 15 773 c 0
 19 787 31 797 43 800 c 2
EndSplineSet
EndUndoOperation
EndUndoes
Redoes
EndRedoes
EndUndoRedoHistory
Fore
SplineSet
43 800 m 2
 43 800 l 2
 75 763 111 721 143 684 c 1
 135 679 115 670 111 647 c 0
 110 642 109 637 109 632 c 0
 109 615 116 598 122 583 c 1
 89 622 56 660 23 699 c 0
 19 707 16 716 13 725 c 0
 11 732 10 739 10 746 c 0
 10 755 12 764 15 773 c 0
 19 787 31 797 43 800 c 2
EndSplineSet
Validated: 1
EndChar

StartChar: colon
Encoding: 58 58 85
Width: 170
VWidth: 0
Flags: HW
LayerCount: 2
UndoRedoHistory
Layer: 1
Undoes
UndoOperation
Index: 0
Type: 1
WasModified: 1
WasOrder2: 0
Layer: 2
Width: 170
VWidth: 0
LBearingChange: 0
UnicodeEnc: 0
InstructionsLength: 0
SplineSet
90 560 m 1
 170 480 l 1
 90 400 l 1
 10 480 l 1
 90 560 l 1
90 340 m 1
 170 260 l 1
 90 180 l 1
 10 260 l 1
 90 340 l 1
EndSplineSet
EndUndoOperation
EndUndoes
Redoes
EndRedoes
EndUndoRedoHistory
Fore
SplineSet
90 560 m 1
 170 480 l 1
 90 400 l 1
 10 480 l 1
 90 560 l 1
90 340 m 1
 170 260 l 1
 90 180 l 1
 10 260 l 1
 90 340 l 1
EndSplineSet
Validated: 1
EndChar

StartChar: semicolon
Encoding: 59 59 86
Width: 170
VWidth: 0
Flags: HW
LayerCount: 2
UndoRedoHistory
Layer: 1
Undoes
UndoOperation
Index: 0
Type: 1
WasModified: 1
WasOrder2: 0
Layer: 2
Width: 170
VWidth: 0
LBearingChange: 0
UnicodeEnc: 0
InstructionsLength: 0
SplineSet
72 555 m 1
 152 475 l 1
 72 395 l 1
 -8 475 l 1
 72 555 l 1
113 303 m 0
 128 300 140 289 145 272 c 0
 149 262 151 252 151 241 c 0
 151 233 150 224 147 216 c 0
 144 205 140 195 135 185 c 0
 97 140 58 95 20 50 c 1
 28 68 35 86 35 106 c 0
 35 112 35 118 33 124 c 0
 28 151 5 162 -5 168 c 1
 32 212 76 259 113 303 c 0
EndSplineSet
EndUndoOperation
EndUndoes
Redoes
EndRedoes
EndUndoRedoHistory
Fore
SplineSet
72 555 m 1
 152 475 l 1
 72 395 l 1
 -8 475 l 1
 72 555 l 1
113 303 m 0
 128 300 140 289 145 272 c 0
 149 262 151 252 151 241 c 0
 151 233 150 224 147 216 c 0
 144 205 140 195 135 185 c 0
 97 140 58 95 20 50 c 1
 28 68 35 86 35 106 c 0
 35 112 35 118 33 124 c 0
 28 151 5 162 -5 168 c 1
 32 212 76 259 113 303 c 0
EndSplineSet
Validated: 1
EndChar

StartChar: period
Encoding: 46 46 87
Width: 170
VWidth: 0
Flags: W
HStem: 0 160
VStem: 10 160
LayerCount: 2
UndoRedoHistory
Layer: 1
Undoes
UndoOperation
Index: 0
Type: 12
WasModified: 0
WasOrder2: 0
Layer: 0
EndUndoOperation
EndUndoes
Redoes
EndRedoes
EndUndoRedoHistory
Fore
SplineSet
90 160 m 1
 170 80 l 1
 90 0 l 1
 10 80 l 1
 90 160 l 1
EndSplineSet
Validated: 1
EndChar

StartChar: comma
Encoding: 44 44 88
Width: 160
VWidth: 0
Flags: HW
HStem: -112 242
VStem: 2 138
LayerCount: 2
UndoRedoHistory
Layer: 1
Undoes
UndoOperation
Index: 0
Type: 1
WasModified: 1
WasOrder2: 0
Layer: 2
Width: 160
VWidth: 0
LBearingChange: 0
UnicodeEnc: 0
InstructionsLength: 0
SplineSet
108 130 m 0
 130 125 140 100 140 80 c 4
 133 10 52 -87 2 -112 c 1
 14 -82 25 -54 25 -29 c 0
 25 -13 20 3 8 15 c 1
 41 53 75 92 108 130 c 0
EndSplineSet
EndUndoOperation
EndUndoes
Redoes
EndRedoes
EndUndoRedoHistory
Fore
SplineSet
108 130 m 0
 130 125 140 100 140 80 c 0
 140 10 52 -87 2 -112 c 1
 14 -82 25 -54 25 -29 c 0
 25 -13 20 3 8 15 c 1
 41 53 75 92 108 130 c 0
EndSplineSet
Validated: 1
EndChar

StartChar: quotesingle
Encoding: 169 39 89
Width: 110
VWidth: 0
Flags: HW
LayerCount: 2
UndoRedoHistory
Layer: 1
Undoes
UndoOperation
Index: 0
Type: 1
WasModified: 1
WasOrder2: 0
Layer: 2
Width: 110
VWidth: 0
LBearingChange: 0
UnicodeEnc: 0
InstructionsLength: 0
SplineSet
110 800 m 1
 110 600 l 1
 10 500 l 1
 10 700 l 1
 110 800 l 1
EndSplineSet
EndUndoOperation
EndUndoes
Redoes
EndRedoes
EndUndoRedoHistory
Fore
SplineSet
110 800 m 1
 110 600 l 1
 10 500 l 1
 10 700 l 1
 110 800 l 1
EndSplineSet
Validated: 1
EndChar

StartChar: quotedbl
Encoding: 34 34 90
Width: 260
VWidth: 0
Flags: W
HStem: 500 300
VStem: 10 100<600 700> 160 100<600 700>
LayerCount: 2
UndoRedoHistory
Layer: 1
Undoes
UndoOperation
Index: 0
Type: 12
WasModified: 0
WasOrder2: 0
Layer: 0
EndUndoOperation
EndUndoes
Redoes
EndRedoes
EndUndoRedoHistory
Fore
SplineSet
110 800 m 1
 110 600 l 1
 10 500 l 1
 10 700 l 1
 110 800 l 1
260 800 m 1
 260 600 l 1
 160 500 l 1
 160 700 l 1
 260 800 l 1
EndSplineSet
Validated: 1
EndChar

StartChar: less
Encoding: 60 60 91
Width: 290
VWidth: 0
Flags: HW
LayerCount: 2
UndoRedoHistory
Layer: 1
Undoes
UndoOperation
Index: 0
Type: 1
WasModified: 1
WasOrder2: 0
Layer: 2
Width: 290
VWidth: 0
LBearingChange: 0
UnicodeEnc: 0
InstructionsLength: 0
SplineSet
235 615 m 1
 260 590 l 1
 141 484 l 1
 285 340 l 1
 185 240 l 1
 35 390 l 1
 10 415 l 1
 235 615 l 1
EndSplineSet
EndUndoOperation
EndUndoes
Redoes
EndRedoes
EndUndoRedoHistory
Fore
SplineSet
235 615 m 1
 260 590 l 1
 141 484 l 1
 285 340 l 1
 185 240 l 1
 35 390 l 1
 10 415 l 1
 235 615 l 1
EndSplineSet
Validated: 1
EndChar

StartChar: question
Encoding: 63 63 92
Width: 430
VWidth: 0
Flags: HW
LayerCount: 2
UndoRedoHistory
Layer: 1
Undoes
UndoOperation
Index: 0
Type: 1
WasModified: 1
WasOrder2: 0
Layer: 2
Width: 430
VWidth: 0
LBearingChange: 0
UnicodeEnc: 0
InstructionsLength: 0
SplineSet
210 800 m 1
 335 800 l 1
 435 700 l 1
 435 575 l 1
 335 485 l 1
 235 385 l 1
 235 300 l 1
 135 200 l 1
 135 300 l 1
 235 400 l 1
 335 500 l 1
 335 600 l 1
 235 700 l 1
 118 700 l 1
 110 692 l 1
 110 590 l 1
 10 500 l 1
 10 600 l 1
 10 615 l 1
 210 800 l 1
185 150 m 1
 265 70 l 1
 185 -10 l 1
 105 70 l 1
 185 150 l 1
EndSplineSet
EndUndoOperation
EndUndoes
Redoes
EndRedoes
EndUndoRedoHistory
Fore
SplineSet
210 800 m 1
 335 800 l 1
 435 700 l 1
 435 575 l 1
 335 485 l 1
 235 385 l 1
 235 300 l 1
 135 200 l 1
 135 300 l 1
 235 400 l 1
 335 500 l 1
 335 600 l 1
 235 700 l 1
 118 700 l 1
 110 692 l 1
 110 590 l 1
 10 500 l 1
 10 600 l 1
 10 615 l 1
 210 800 l 1
185 150 m 1
 265 70 l 1
 185 -10 l 1
 105 70 l 1
 185 150 l 1
EndSplineSet
Validated: 1
EndChar

StartChar: quotedblleft
Encoding: 170 8220 93
Width: 300
VWidth: 0
Flags: HW
LayerCount: 2
UndoRedoHistory
Layer: 1
Undoes
UndoOperation
Index: 0
Type: 1
WasModified: 0
WasOrder2: 0
Layer: 2
Width: 300
VWidth: 0
LBearingChange: 0
UnicodeEnc: 0
InstructionsLength: 0
SplineSet
43 583 m 6
 31 586 19 596 15 610 c 4
 12 619 10 628 10 637 c 4
 10 644 11 651 13 658 c 4
 16 667 19 676 23 684 c 4
 56 723 89 761 122 800 c 5
 116 785 109 769 109 752 c 4
 109 747 110 742 111 737 c 4
 115 714 135 704 143 699 c 5
 111 662 75 620 43 583 c 6
 43 583 l 6
199 583 m 6
 187 586 176 596 172 610 c 4
 169 619 167 628 167 637 c 4
 167 644 168 651 170 658 c 4
 173 667 176 676 180 684 c 4
 213 723 246 761 279 800 c 5
 273 785 266 769 266 752 c 4
 266 747 267 742 268 737 c 4
 272 714 292 704 300 699 c 5
 268 662 231 620 199 583 c 6
EndSplineSet
EndUndoOperation
EndUndoes
Redoes
EndRedoes
EndUndoRedoHistory
Fore
SplineSet
43 583 m 1
 22.5074726434 588.123131839 10 610.710425371 10 637 c 0
 10 654.908875007 16.6831693656 671.366338731 23 684 c 0
 56 723 89 761 122 800 c 1
 116 785 109 769 109 752 c 0
 109 747 110 742 111 737 c 0
 115 714 135 704 143 699 c 1
 111 662 75 620 43 583 c 1
199 583 m 1
 178.962749976 588.009312506 167 611.320477728 167 637 c 0
 167 654.908875007 173.683169366 671.366338731 180 684 c 0
 213 723 246 761 279 800 c 1
 273 785 266 769 266 752 c 0
 266 747 267 742 268 737 c 0
 272 714 292 704 300 699 c 1
 268 662 231 620 199 583 c 1
EndSplineSet
Validated: 1
EndChar

StartChar: quotedblright
Encoding: 186 8221 94
Width: 300
VWidth: 0
Flags: HW
LayerCount: 2
UndoRedoHistory
Layer: 1
Undoes
UndoOperation
Index: 0
Type: 1
WasModified: 0
WasOrder2: 0
Layer: 2
Width: 300
VWidth: 0
LBearingChange: 0
UnicodeEnc: 0
InstructionsLength: 0
SplineSet
111 800 m 6
 123 797 134 787 138 773 c 4
 141 764 143 755 143 746 c 4
 143 739 142 732 140 725 c 4
 137 716 134 707 130 699 c 4
 97 660 64 622 31 583 c 5
 37 598 44 615 44 632 c 4
 44 637 43 642 42 647 c 4
 38 670 18 679 10 684 c 5
 42 721 79 763 111 800 c 6
267 800 m 6
 279 797 291 787 295 773 c 4
 298 764 300 755 300 746 c 4
 300 739 299 732 297 725 c 4
 294 716 291 707 287 699 c 4
 254 660 221 622 188 583 c 5
 194 598 201 615 201 632 c 4
 201 637 200 642 199 647 c 4
 195 670 175 679 167 684 c 5
 199 721 235 763 267 800 c 6
 267 800 l 6
EndSplineSet
EndUndoOperation
EndUndoes
Redoes
EndRedoes
EndUndoRedoHistory
Fore
SplineSet
111 800 m 1
 131.037250024 794.990687494 143 771.679522272 143 746 c 0
 143 728.091124993 136.316830634 711.633661269 130 699 c 0
 97 660 64 622 31 583 c 1
 37 598 44 615 44 632 c 0
 44 637 43 642 42 647 c 0
 38 670 18 679 10 684 c 1
 42 721 79 763 111 800 c 1
267 800 m 1
 287.492527357 794.876868161 300 772.289574629 300 746 c 0
 300 728.091124993 293.316830634 711.633661269 287 699 c 0
 254 660 221 622 188 583 c 1
 194 598 201 615 201 632 c 0
 201 637 200 642 199 647 c 0
 195 670 175 679 167 684 c 1
 199 721 235 763 267 800 c 1
EndSplineSet
Validated: 1
EndChar

StartChar: quoteleft
Encoding: 96 8216 95
Width: 140
VWidth: 0
Flags: HW
LayerCount: 2
UndoRedoHistory
Layer: 1
Undoes
UndoOperation
Index: 0
Type: 1
WasModified: 1
WasOrder2: 0
Layer: 2
Width: 140
VWidth: 0
LBearingChange: 0
UnicodeEnc: 0
InstructionsLength: 0
SplineSet
43 583 m 1
 23 588 10 611 10 637 c 0
 10 655 16.6831693656 671.366338731 23 684 c 4
 56 723 89 761 122 800 c 1
 116 785 109 769 109 752 c 0
 109 747 110 742 111 737 c 0
 115 714 135 704 143 699 c 1
 111 662 75 620 43 583 c 1
EndSplineSet
EndUndoOperation
EndUndoes
Redoes
EndRedoes
EndUndoRedoHistory
Fore
SplineSet
43 583 m 1
 23 588 10 611 10 637 c 0
 10 655 17 671 23 684 c 0
 56 723 89 761 122 800 c 1
 116 785 109 769 109 752 c 0
 109 747 110 742 111 737 c 0
 115 714 135 704 143 699 c 1
 111 662 75 620 43 583 c 1
EndSplineSet
EndChar

StartChar: quoteright
Encoding: 39 8217 96
Width: 140
VWidth: 0
Flags: W
HStem: 583 217
VStem: 10 133
LayerCount: 2
UndoRedoHistory
Layer: 1
Undoes
UndoOperation
Index: 0
Type: 12
WasModified: 0
WasOrder2: 0
Layer: 0
EndUndoOperation
EndUndoes
Redoes
EndRedoes
EndUndoRedoHistory
Fore
SplineSet
111 800 m 2
 123 797 134 787 138 773 c 0
 141 764 143 755 143 746 c 0
 143 739 142 732 140 725 c 0
 137 716 134 707 130 699 c 0
 97 660 64 622 31 583 c 1
 37 598 44 615 44 632 c 0
 44 637 43 642 42 647 c 0
 38 670 18 679 10 684 c 1
 42 721 79 763 111 800 c 2
EndSplineSet
Validated: 1
EndChar

StartChar: asterisk
Encoding: 42 42 97
Width: 460
VWidth: 0
Flags: W
HStem: 335 100<110 160 310 360>
VStem: 185 100<260 310 460 510>
LayerCount: 2
UndoRedoHistory
Layer: 1
Undoes
UndoOperation
Index: 0
Type: 12
WasModified: 0
WasOrder2: 0
Layer: 0
EndUndoOperation
EndUndoes
Redoes
EndRedoes
EndUndoRedoHistory
Fore
SplineSet
285 610 m 1
 285 460 l 1
 410 585 l 1
 435 560 l 1
 310 435 l 1
 460 435 l 1
 360 335 l 1
 285 335 l 1
 285 260 l 1
 185 160 l 1
 185 200 185 244 185 310 c 1
 60 185 l 1
 35 210 l 1
 160 335 l 1
 10 335 l 1
 110 435 l 1
 185 435 l 1
 185 510 l 1
 285 610 l 1
EndSplineSet
Validated: 1
EndChar

StartChar: NameMe.141
Encoding: 298 -1 141
Width: 160
VWidth: 0
Flags: HW
LayerCount: 2
UndoRedoHistory
Layer: 1
Undoes
UndoOperation
Index: 0
Type: 1
WasModified: 1
WasOrder2: 0
Layer: 2
Width: 160
VWidth: 0
LBearingChange: 0
UnicodeEnc: 0
InstructionsLength: 0
SplineSet
80 539 m 1
 160 459 l 1
 130 428 l 1
 130 111 l 1
 129 111 l 1
 160 80 l 1
 80 0 l 1
 0 80 l 1
 30 110 l 1
 30 429 l 1
 0 459 l 1
 80 539 l 1
EndSplineSet
EndUndoOperation
EndUndoes
Redoes
EndRedoes
EndUndoRedoHistory
Fore
SplineSet
80 539 m 1
 160 459 l 1
 130 428 l 1
 130 111 l 1
 129 111 l 1
 160 80 l 1
 80 0 l 1
 0 80 l 1
 30 110 l 1
 30 429 l 1
 0 459 l 1
 80 539 l 1
EndSplineSet
Validated: 1
EndChar

StartChar: NameMe.143
Encoding: 303 -1 146
Width: 370
VWidth: 0
Flags: HW
LayerCount: 2
UndoRedoHistory
Layer: 1
Undoes
UndoOperation
Index: 0
Type: 1
WasModified: 1
WasOrder2: 0
Layer: 2
Width: 370
VWidth: 0
LBearingChange: 0
UnicodeEnc: 0
InstructionsLength: 0
SplineSet
99 677 m 0
 132 688 163 702 195 715 c 0
 257 740 317 768 375 800 c 1
 342 767 309 734 276 701 c 0
 204 661 129 628 52 598 c 0
 34 591 18 583 0 578 c 1
 33 611 66 644 99 677 c 0
EndSplineSet
EndUndoOperation
EndUndoes
Redoes
EndRedoes
EndUndoRedoHistory
Fore
SplineSet
99 677 m 0
 132 688 163 702 195 715 c 0
 257 740 317 768 375 800 c 1
 342 767 309 734 276 701 c 0
 204 661 129 628 52 598 c 0
 34 591 18 583 0 578 c 1
 33 611 66 644 99 677 c 0
EndSplineSet
Validated: 1
EndChar

StartChar: NameMe.129
Encoding: 304 -1 147
Width: 290
VWidth: 0
Flags: HW
LayerCount: 2
UndoRedoHistory
Layer: 1
Undoes
UndoOperation
Index: 0
Type: 1
WasModified: 1
WasOrder2: 0
Layer: 2
Width: 290
VWidth: 0
LBearingChange: 0
UnicodeEnc: 0
InstructionsLength: 0
SplineSet
98 800 m 1
 134 750 187 715 244 695 c 0
 258 690 273 686 287 682 c 1
 254 649 221 616 188 583 c 0
 116 600 47 638 2 697 c 0
 -4 702 5 706 8 710 c 0
 38 740 68 770 98 800 c 1
EndSplineSet
EndUndoOperation
EndUndoes
Redoes
EndRedoes
EndUndoRedoHistory
Fore
SplineSet
98 800 m 1
 134 750 187 715 244 695 c 0
 258 690 273 686 287 682 c 1
 254 649 221 616 188 583 c 0
 116 600 47 638 2 697 c 0
 -4 702 5 706 8 710 c 0
 38 740 68 770 98 800 c 1
EndSplineSet
Validated: 1
EndChar

StartChar: NameMe.144
Encoding: 309 -1 152
Width: 370
VWidth: 0
Flags: HW
LayerCount: 2
UndoRedoHistory
Layer: 1
Undoes
UndoOperation
Index: 0
Type: 1
WasModified: 1
WasOrder2: 0
Layer: 2
Width: 370
VWidth: 0
LBearingChange: 0
UnicodeEnc: 0
InstructionsLength: 0
SplineSet
80 800 m 1
 160 720 l 1
 80 640 l 1
 0 720 l 1
 80 800 l 1
280 800 m 1
 360 720 l 1
 280 640 l 1
 200 720 l 1
 280 800 l 1
EndSplineSet
EndUndoOperation
EndUndoes
Redoes
EndRedoes
EndUndoRedoHistory
Fore
SplineSet
80 800 m 1
 160 720 l 1
 80 640 l 1
 0 720 l 1
 80 800 l 1
280 800 m 1
 360 720 l 1
 280 640 l 1
 200 720 l 1
 280 800 l 1
EndSplineSet
Validated: 1
EndChar

StartChar: divide
Encoding: 311 247 154
Width: 450
VWidth: 0
Flags: HW
LayerCount: 2
UndoRedoHistory
Layer: 1
Undoes
UndoOperation
Index: 0
Type: 1
WasModified: 1
WasOrder2: 0
Layer: 2
Width: 450
VWidth: 0
LBearingChange: 0
UnicodeEnc: 0
InstructionsLength: 0
SplineSet
210 530 m 1
 290 450 l 1
 210 370 l 1
 130 450 l 1
 210 530 l 1
91 334 m 1
 441 334 l 1
 341 234 l 1
 -9 234 l 1
 91 334 l 1
210 190 m 1
 290 110 l 1
 210 30 l 1
 130 110 l 1
 210 190 l 1
EndSplineSet
EndUndoOperation
EndUndoes
Redoes
EndRedoes
EndUndoRedoHistory
Fore
SplineSet
210 530 m 1
 290 450 l 1
 210 370 l 1
 130 450 l 1
 210 530 l 1
91 334 m 1
 441 334 l 1
 341 234 l 1
 -9 234 l 1
 91 334 l 1
210 190 m 1
 290 110 l 1
 210 30 l 1
 130 110 l 1
 210 190 l 1
EndSplineSet
Validated: 1
EndChar

StartChar: multiply
Encoding: 312 215 155
Width: 380
VWidth: 0
Flags: HW
LayerCount: 2
UndoRedoHistory
Layer: 1
Undoes
UndoOperation
Index: 0
Type: 1
WasModified: 0
WasOrder2: 0
Layer: 2
Width: 380
VWidth: 0
LBearingChange: 0
UnicodeEnc: 0
InstructionsLength: 0
SplineSet
70 561 m 5
 88 543 l 5
 195 436 l 5
 302 543 l 5
 320 561 l 5
 355 526 l 5
 355 526 l 5
 355 525 l 5
 360 521 l 5
 370 511 l 5
 375 506 l 5
 365 496 l 5
 360 501 l 5
 350 511 l 5
 345 515 l 5
 338 508 l 5
 230 400 l 5
 338 293 l 5
 345 285 l 5
 350 290 l 5
 360 300 l 5
 365 305 l 5
 375 295 l 5
 370 290 l 5
 360 280 l 5
 355 275 l 5
 355 275 l 5
 320 240 l 5
 302 258 l 5
 195 365 l 5
 88 258 l 5
 70 240 l 5
 35 275 l 5
 35 275 l 5
 30 280 l 5
 20 290 l 5
 15 295 l 5
 25 305 l 5
 30 300 l 5
 40 290 l 5
 45 285 l 5
 52 293 l 5
 160 400 l 5
 52 508 l 5
 45 515 l 5
 35 505 l 5
 30 500 l 5
 20 510 l 5
 25 515 l 5
 35 525 l 5
 35 525 l 5
 39 530 l 5
 40 530 l 5
 70 561 l 5
EndSplineSet
EndUndoOperation
EndUndoes
Redoes
EndRedoes
EndUndoRedoHistory
Fore
SplineSet
70 561 m 1
 111.666666667 519.333333333 153.333333333 477.666666667 195 436 c 1
 236.666666667 477.666666667 278.333333333 519.333333333 320 561 c 1
 355 526 l 1
 355 525 l 1
 360 521 l 2
 365 516 370 511 375 506 c 1
 365 496 l 1
 360 501 355 506 350 511 c 2
 345 515 l 1
 306.666666667 476.666666667 268.333333333 438.333333333 230 400 c 1
 338 293 l 1
 345 285 l 1
 365 305 l 1
 375 295 l 1
 356.666666667 276.666666667 338.333333333 258.333333333 320 240 c 1
 278.333333333 281.666666667 236.666666667 323.333333333 195 365 c 1
 153.333333333 323.333333333 111.666666667 281.666666667 70 240 c 1
 51.6666666667 258.333333333 33.3333333333 276.666666667 15 295 c 1
 25 305 l 1
 45 285 l 1
 82.2658114793 324.400855187 121.84653849 361.486794844 160 400 c 1
 121.666666667 438.333333333 83.3333333333 476.666666667 45 515 c 1
 40 510 35 505 30 500 c 1
 20 510 l 1
 25 515 30 520 35 525 c 2
 39 530 l 1
 40 530 l 1
 70 561 l 1
EndSplineSet
Validated: 1
EndChar

StartChar: currency
Encoding: 168 164 156
Width: 490
VWidth: 0
Flags: HW
LayerCount: 2
UndoRedoHistory
Layer: 1
Undoes
UndoOperation
Index: 0
Type: 1
WasModified: 1
WasOrder2: 0
Layer: 2
Width: 490
VWidth: 0
LBearingChange: 0
UnicodeEnc: 0
InstructionsLength: 0
SplineSet
-25 608 m 1
 -18 602 l 1
 92 510 l 2
 104 518 117 523 128 532 c 0
 161 564 206 584 252 584 c 0
 281 584 310 576 336 562 c 0
 353 553 367 541 380 527 c 2
 445 577 l 1
 453 583 l 1
 465 567 l 1
 457 561 l 1
 393 512 l 2
 412 486 424 455 426 423 c 0
 426 418 427 414 427 409 c 0
 427 359 403 309 365 276 c 1
 457 202 l 1
 465 195 l 1
 452 180 l 1
 445 186 l 1
 349 262 l 1
 349 263 l 2
 338 256 325 251 315 243 c 0
 301 231 287 218 270 210 c 0
 245 197 218 190 190 190 c 0
 160 190 130 198 104 213 c 0
 87 222 73 234 60 248 c 2
 -18 186 l 1
 -26 180 l 1
 -38 196 l 1
 -30 202 l 1
 48 263 l 2
 30 288 17 320 15 351 c 0
 15 356 14 360 14 365 c 0
 14 415 38 465 76 498 c 1
 -31 586 l 1
 -38 593 l 1
 -25 608 l 1
190 540 m 0
 167 540 144 536 123 527 c 0
 94 496 77 453 77 410 c 0
 77 349 106 293 157 261 c 0
 185 243 218 234 251 234 c 0
 274 234 296 238 317 247 c 0
 330 259 340 275 348 291 c 0
 359 314 364 340 364 365 c 0
 364 402 353 439 330 469 c 0
 298 514 245 540 190 540 c 0
EndSplineSet
EndUndoOperation
EndUndoes
Redoes
EndRedoes
EndUndoRedoHistory
Fore
SplineSet
-25 608 m 1
 -18 602 l 1
 92 510 l 2
 104 518 117 523 128 532 c 0
 161 564 206 584 252 584 c 0
 281 584 310 576 336 562 c 0
 353 553 367 541 380 527 c 2
 445 577 l 1
 453 583 l 1
 465 567 l 1
 457 561 l 1
 393 512 l 2
 412 486 424 455 426 423 c 0
 426 418 427 414 427 409 c 0
 427 359 403 309 365 276 c 1
 457 202 l 1
 465 195 l 1
 452 180 l 1
 445 186 l 1
 349 262 l 1
 349 263 l 2
 338 256 325 251 315 243 c 0
 301 231 287 218 270 210 c 0
 245 197 218 190 190 190 c 0
 160 190 130 198 104 213 c 0
 87 222 73 234 60 248 c 2
 -18 186 l 1
 -26 180 l 1
 -38 196 l 1
 -30 202 l 1
 48 263 l 2
 30 288 17 320 15 351 c 0
 15 356 14 360 14 365 c 0
 14 415 38 465 76 498 c 1
 -31 586 l 1
 -38 593 l 1
 -25 608 l 1
190 540 m 0
 167 540 144 536 123 527 c 0
 94 496 77 453 77 410 c 0
 77 349 106 293 157 261 c 0
 185 243 218 234 251 234 c 0
 274 234 296 238 317 247 c 0
 330 259 340 275 348 291 c 0
 359 314 364 340 364 365 c 0
 364 402 353 439 330 469 c 0
 298 514 245 540 190 540 c 0
EndSplineSet
Validated: 1
EndChar

StartChar: cent
Encoding: 162 162 158
Width: 390
VWidth: 0
Flags: HW
LayerCount: 2
UndoRedoHistory
Layer: 1
Undoes
UndoOperation
Index: 0
Type: 1
WasModified: 1
WasOrder2: 0
Layer: 2
Width: 390
VWidth: 0
LBearingChange: 0
UnicodeEnc: 0
InstructionsLength: 0
SplineSet
265 800 m 1
 265 626 l 1
 385 515 l 1
 285 415 l 1
 132 570 l 1
 125 564 l 1
 125 365 l 1
 260 230 l 1
 265 235 l 1
 265 225 l 1
 271 219 l 1
 348 292 l 1
 362 278 l 1
 265 186 l 1
 265 85 l 1
 165 -15 l 1
 165 125 l 1
 15 275 l 1
 25 285 l 1
 25 471 l 1
 15 462 l 1
 0 477 l 1
 165 620 l 1
 165 700 l 1
 265 800 l 1
EndSplineSet
EndUndoOperation
EndUndoes
Redoes
EndRedoes
EndUndoRedoHistory
Fore
SplineSet
265 800 m 1
 265 626 l 1
 385 515 l 1
 285 415 l 1
 132 570 l 1
 125 564 l 1
 125 365 l 1
 260 230 l 1
 265 235 l 1
 265 225 l 1
 271 219 l 1
 348 292 l 1
 362 278 l 1
 265 186 l 1
 265 85 l 1
 165 -15 l 1
 165 125 l 1
 15 275 l 1
 25 285 l 1
 25 471 l 1
 15 462 l 1
 0 477 l 1
 165 620 l 1
 165 700 l 1
 265 800 l 1
EndSplineSet
Validated: 1
EndChar

StartChar: dagger
Encoding: 178 8224 159
Width: 460
VWidth: 0
Flags: HW
LayerCount: 2
UndoRedoHistory
Layer: 1
Undoes
UndoOperation
Index: 0
Type: 1
WasModified: 1
WasOrder2: 0
Layer: 2
Width: 460
VWidth: 0
LBearingChange: 0
UnicodeEnc: 0
InstructionsLength: 0
SplineSet
261 800 m 1
 261 635 l 1
 450 635 l 1
 350 535 l 1
 261 535 l 1
 261 120 l 1
 161 20 l 1
 161 535 l 1
 0 535 l 1
 100 635 l 1
 161 635 l 1
 161 700 l 1
 261 800 l 1
EndSplineSet
EndUndoOperation
EndUndoes
Redoes
EndRedoes
EndUndoRedoHistory
Fore
SplineSet
261 800 m 1
 261 635 l 1
 450 635 l 1
 350 535 l 1
 261 535 l 1
 261 120 l 1
 161 20 l 1
 161 535 l 1
 0 535 l 1
 100 635 l 1
 161 635 l 1
 161 700 l 1
 261 800 l 1
EndSplineSet
Validated: 1
EndChar

StartChar: daggerdbl
Encoding: 179 8225 160
Width: 450
VWidth: 0
Flags: HW
LayerCount: 2
UndoRedoHistory
Layer: 1
Undoes
UndoOperation
Index: 0
Type: 1
WasModified: 1
WasOrder2: 0
Layer: 2
Width: 450
VWidth: 0
LBearingChange: 0
UnicodeEnc: 0
InstructionsLength: 0
SplineSet
261 800 m 1
 261 635 l 1
 450 635 l 1
 350 535 l 1
 261 535 l 1
 261 385 l 1
 450 385 l 1
 350 285 l 1
 261 285 l 1
 261 120 l 1
 161 20 l 1
 161 285 l 1
 0 285 l 1
 100 385 l 1
 161 385 l 1
 161 535 l 1
 0 535 l 1
 100 635 l 1
 161 635 l 1
 161 700 l 1
 261 800 l 1
EndSplineSet
EndUndoOperation
EndUndoes
Redoes
EndRedoes
EndUndoRedoHistory
Fore
SplineSet
261 800 m 1
 261 635 l 1
 450 635 l 1
 350 535 l 1
 261 535 l 1
 261 385 l 1
 450 385 l 1
 350 285 l 1
 261 285 l 1
 261 120 l 1
 161 20 l 1
 161 285 l 1
 0 285 l 1
 100 385 l 1
 161 385 l 1
 161 535 l 1
 0 535 l 1
 100 635 l 1
 161 635 l 1
 161 700 l 1
 261 800 l 1
EndSplineSet
Validated: 1
EndChar

StartChar: oe
Encoding: 250 339 170
Width: 590
VWidth: 0
Flags: HW
LayerCount: 2
UndoRedoHistory
Layer: 1
Undoes
UndoOperation
Index: 0
Type: 1
WasModified: 0
WasOrder2: 0
Layer: 2
Width: 590
VWidth: 0
LBearingChange: 0
UnicodeEnc: 0
InstructionsLength: 0
SplineSet
204 589 m 5
 211 582 l 5
 337 456 l 5
 456 574 l 5
 463 567 l 5
 586 454 l 5
 586 454 l 5
 600 440 l 5
 390 230 l 5
 509 111 l 5
 586 184 l 5
 600 170 l 5
 420 0 l 5
 413 7 l 5
 413 7 l 5
 333 87 l 5
 293 127 l 5
 286 134 l 5
 168 15 l 5
 154 29 l 5
 1 182 l 5
 11 192 l 5
 11 368 l 5
 -2 355 l 5
 -16 369 l 5
 204 589 l 5
118 475 m 5
 111 468 l 5
 111 272 l 5
 254 129 l 5
 261 136 l 5
 261 332 l 5
 118 475 l 5
371 460 m 5
 363 453 l 5
 363 257 l 5
 372 248 l 5
 374 249 l 5
 377 246 l 5
 486 354 l 5
 371 460 l 5
EndSplineSet
EndUndoOperation
EndUndoes
Redoes
EndRedoes
EndUndoRedoHistory
Fore
SplineSet
204 589 m 1
 248.333333333 544.666666667 292.666666667 500.333333333 337 456 c 1
 456 574 l 1
 498.735708382 533.402375049 542.770677303 494.104010636 586 454 c 1
 600 440 l 1
 390 230 l 1
 509 111 l 1
 586 184 l 1
 600 170 l 1
 420 0 l 1
 375.333333333 44.6666666667 330.666666667 89.3333333333 286 134 c 1
 168 15 l 1
 112.333333333 70.6666666667 56.6666666667 126.333333333 1 182 c 1
 11 192 l 1
 11 368 l 1
 -2 355 l 1
 -16 369 l 1
 204 589 l 1
118 475 m 1
 111 468 l 1
 111 272 l 1
 254 129 l 1
 261 136 l 1
 261 332 l 1
 118 475 l 1
371 460 m 1
 363 453 l 1
 363 257 l 1
 372 248 l 1
 374 249 l 1
 377 246 l 1
 486 354 l 1
 371 460 l 1
EndSplineSet
Validated: 1
EndChar

StartChar: ae
Encoding: 241 230 182
Width: 570
VWidth: 0
Flags: HW
LayerCount: 2
UndoRedoHistory
Layer: 1
Undoes
UndoOperation
Index: 0
Type: 1
WasModified: 0
WasOrder2: 0
Layer: 2
Width: 570
VWidth: 0
LBearingChange: 0
UnicodeEnc: 0
InstructionsLength: 0
SplineSet
426 574 m 5
 433 567 l 5
 556 454 l 5
 556 454 l 5
 570 440 l 5
 360 230 l 5
 479 111 l 5
 556 184 l 5
 570 170 l 5
 390 0 l 5
 383 7 l 5
 383 7 l 5
 324 67 l 5
 284 40 239 9 238 9 c 6
 238 124 l 5
 103 9 l 5
 -7 107 l 5
 3 117 l 5
 3 180 l 5
 -7 172 l 5
 -20 184 l 5
 206 372 l 5
 108 450 l 5
 33 374 l 5
 20 387 l 5
 193 559 l 5
 203 549 l 5
 322 470 l 5
 426 574 l 5
340 460 m 5
 338 458 l 5
 338 253 l 5
 346 244 l 5
 456 354 l 5
 340 460 l 5
220 360 m 5
 108 267 l 5
 108 195 l 5
 195 112 l 5
 238 148 l 5
 238 346 l 5
 220 360 l 5
EndSplineSet
EndUndoOperation
EndUndoes
Redoes
EndRedoes
EndUndoRedoHistory
Fore
SplineSet
426 574 m 1
 468.735708382 533.402375049 512.770677303 494.104010636 556 454 c 1
 570 440 l 1
 360 230 l 1
 479 111 l 1
 556 184 l 1
 570 170 l 1
 390 0 l 1
 367.888865336 22.2221986694 346.015208866 44.681875533 324 67 c 1
 284 40 239 9 238 9 c 1
 238 124 l 1
 103 9 l 1
 -7 107 l 1
 3 117 l 1
 3 180 l 1
 -7 172 l 1
 -20 184 l 1
 206 372 l 1
 108 450 l 1
 33 374 l 1
 20 387 l 1
 193 559 l 1
 203 549 l 1
 322 470 l 1
 426 574 l 1
340 460 m 1
 338 458 l 1
 338 253 l 1
 346 244 l 1
 456 354 l 1
 340 460 l 1
220 360 m 1
 108 267 l 1
 108 195 l 1
 195 112 l 1
 238 148 l 1
 238 346 l 1
 220 360 l 1
EndSplineSet
Validated: 1
EndChar

StartChar: AE
Encoding: 225 198 183
Width: 910
VWidth: 0
Flags: HW
LayerCount: 2
UndoRedoHistory
Layer: 1
Undoes
UndoOperation
Index: 0
Type: 1
WasModified: 0
WasOrder2: 0
Layer: 2
Width: 910
VWidth: 0
LBearingChange: 0
UnicodeEnc: 0
InstructionsLength: 0
SplineSet
430 800 m 6
 935 800 l 5
 933 725 825 655 795 655 c 5
 815 665 835 685 835 700 c 6
 645 700 l 5
 645 475 l 5
 760 475 l 5
 660 375 l 5
 645 375 l 5
 645 100 l 5
 790 100 l 5
 860 100 l 6
 875 100 895 120 905 140 c 5
 905 110 835 2 760 0 c 6
 460 0 l 5
 460 375 l 5
 370 375 l 5
 370 88 l 5
 360 88 l 5
 360 375 l 5
 308 375 l 5
 238 375 l 5
 238 113 l 5
 271 79 l 5
 191 -1 l 5
 140 51 l 5
 138 50 l 5
 138 53 l 5
 111 79 l 5
 138 106 l 5
 138 453 l 5
 138 480 l 5
 138 483 l 6
 164 579 217 662 280 722 c 4
 324 761 376 794 430 800 c 6
355 701 m 6
 355 701 l 6
 324 701 291 693 265 669 c 4
 254 659 245 647 238 634 c 6
 238 475 l 5
 360 475 l 5
 360 533 l 5
 360 543 l 5
 360 568 l 5
 360 578 l 5
 360 701 l 6
 358 701 357 701 355 701 c 6
370 701 m 6
 370 578 l 5
 460 578 l 5
 460 700 l 5
 460 700 l 6
 436 700 407 700 370 701 c 6
560 700 m 5
 560 578 l 5
 635 578 l 5
 635 700 l 5
 560 700 l 5
148 590 m 6
 148 590 l 6
 138 585 108 535 108 525 c 6
 108 170 l 6
 108 120 -17 5 -32 5 c 5
 -22 10 8 60 8 70 c 6
 8 175 l 6
 -18 173 -68 154 -77 145 c 5
 -77 168 -20 218 8 224 c 6
 8 325 l 6
 -18 323 -68 304 -77 295 c 5
 -77 318 -20 368 8 374 c 6
 8 425 l 6
 8 475 133 590 148 590 c 6
370 568 m 5
 370 543 l 5
 460 543 l 5
 460 568 l 5
 370 568 l 5
560 568 m 5
 560 549 l 5
 563 550 l 5
 563 543 l 5
 635 543 l 5
 635 568 l 5
 560 568 l 5
370 533 m 5
 370 475 l 5
 460 475 l 5
 460 533 l 5
 370 533 l 5
563 533 m 5
 563 475 l 5
 635 475 l 5
 635 533 l 5
 563 533 l 5
563 375 m 5
 563 100 l 5
 635 100 l 5
 635 375 l 5
 613 375 l 5
 563 375 l 5
EndSplineSet
EndUndoOperation
EndUndoes
Redoes
EndRedoes
EndUndoRedoHistory
Fore
SplineSet
430 800 m 1
 935 800 l 1
 933 725 825 655 795 655 c 1
 815 665 835 685 835 700 c 1
 645 700 l 1
 645 475 l 1
 760 475 l 1
 660 375 l 1
 645 375 l 1
 645 100 l 1
 716.666666667 100 788.333333333 100 860 100 c 0
 875 100 895 120 905 140 c 1
 905 110 835 2 760 0 c 1
 460 0 l 1
 460 375 l 1
 370 375 l 1
 370 88 l 1
 360 88 l 1
 360 375 l 1
 319.333333333 375 278.666666667 375 238 375 c 1
 238 113 l 1
 271 79 l 1
 191 -1 l 1
 140 51 l 1
 138 50 l 1
 138 53 l 1
 111 79 l 1
 138 106 l 1
 138 483 l 1
 164 579 217 662 280 722 c 0
 324 761 376 794 430 800 c 1
355 701 m 2
 324 701 291 693 265 669 c 0
 254 659 245 647 238 634 c 1
 238 475 l 1
 360 475 l 1
 360 701 l 1
 355 701 l 2
370 701 m 1
 370 578 l 1
 460 578 l 1
 460 700 l 1
 436 700 407 700 370 701 c 1
560 700 m 1
 560 578 l 1
 635 578 l 1
 635 700 l 1
 560 700 l 1
148 590 m 1
 138 585 108 535 108 525 c 2
 108 170 l 2
 108 120 -17 5 -32 5 c 1
 -22 10 8 60 8 70 c 2
 8 175 l 1
 -18 173 -68 154 -77 145 c 1
 -77 168 -20 218 8 224 c 1
 8 325 l 1
 -18 323 -68 304 -77 295 c 1
 -77 318 -20 368 8 374 c 1
 8 425 l 2
 8 475 133 590 148 590 c 1
370 568 m 1
 370 543 l 1
 460 543 l 1
 460 568 l 1
 370 568 l 1
560 568 m 1
 560 549 l 1
 563 550 l 1
 563 543 l 1
 635 543 l 1
 635 568 l 1
 560 568 l 1
370 533 m 1
 370 475 l 1
 460 475 l 1
 460 533 l 1
 370 533 l 1
563 533 m 1
 563 475 l 1
 635 475 l 1
 635 533 l 1
 563 533 l 1
563 375 m 1
 563 100 l 1
 635 100 l 1
 635 375 l 1
 611 375 587 375 563 375 c 1
EndSplineSet
Validated: 1
EndChar

StartChar: copyright
Encoding: 322 169 184
Width: 350
VWidth: 0
Flags: HW
LayerCount: 2
UndoRedoHistory
Layer: 1
Undoes
UndoOperation
Index: 0
Type: 1
WasModified: 1
WasOrder2: 0
Layer: 2
Width: 350
VWidth: 0
LBearingChange: 0
UnicodeEnc: 0
InstructionsLength: 0
SplineSet
200 664 m 1
 350 514 l 1
 350 320 l 1
 328 302 l 1
 170 159 l 1
 150 139 l 1
 0 289 l 1
 0 482 l 1
 22 500 l 1
 180 644 l 1
 200 664 l 1
156 607 m 1
 50 511 l 1
 50 339 l 1
 194 195 l 1
 300 291 l 1
 300 464 l 1
 156 607 l 1
187 552 m 1
 278 468 l 1
 223 413 l 1
 138 499 l 1
 134 495 l 1
 134 385 l 1
 215 305 l 1
 257 345 l 1
 265 337 l 1
 166 243 l 1
 162 247 l 1
 73 335 l 1
 79 341 l 1
 79 444 l 1
 73 439 l 1
 65 447 l 1
 187 552 l 1
EndSplineSet
EndUndoOperation
EndUndoes
Redoes
EndRedoes
EndUndoRedoHistory
Fore
SplineSet
200 664 m 1
 350 514 l 1
 350 320 l 1
 328 302 l 1
 170 159 l 1
 150 139 l 1
 0 289 l 1
 0 482 l 1
 22 500 l 1
 180 644 l 1
 200 664 l 1
156 607 m 1
 50 511 l 1
 50 339 l 1
 194 195 l 1
 300 291 l 1
 300 464 l 1
 156 607 l 1
187 552 m 1
 278 468 l 1
 223 413 l 1
 138 499 l 1
 134 495 l 1
 134 385 l 1
 215 305 l 1
 257 345 l 1
 265 337 l 1
 166 243 l 1
 162 247 l 1
 73 335 l 1
 79 341 l 1
 79 444 l 1
 73 439 l 1
 65 447 l 1
 187 552 l 1
EndSplineSet
Validated: 1
EndChar

StartChar: registered
Encoding: 323 174 185
Width: 350
VWidth: 0
Flags: HW
LayerCount: 2
UndoRedoHistory
Layer: 1
Undoes
UndoOperation
Index: 0
Type: 1
WasModified: 1
WasOrder2: 0
Layer: 2
Width: 350
VWidth: 0
LBearingChange: 0
UnicodeEnc: 0
InstructionsLength: 0
SplineSet
198 669 m 5
 348 519 l 5
 348 325 l 5
 326 308 l 5
 168 164 l 5
 148 144 l 5
 -2 294 l 5
 -2 488 l 5
 20 505 l 5
 178 649 l 5
 198 669 l 5
154 613 m 5
 48 516 l 5
 48 344 l 5
 192 200 l 5
 298 297 l 5
 298 469 l 5
 154 613 l 5
182 538 m 5
 184 536 l 5
 198 536 248 508 248 494 c 6
 248 451 l 5
 248 448 l 5
 215 422 l 5
 235 402 l 5
 235 355 l 5
 250 340 l 5
 222 311 l 5
 194 340 l 5
 207 353 l 5
 207 373 l 5
 185 402 l 5
 154 402 l 5
 154 354 l 5
 169 340 l 5
 140 311 l 5
 112 340 l 5
 126 354 l 5
 126 480 l 5
 127 480 l 5
 125 482 l 5
 182 538 l 5
159 508 m 5
 154 503 l 5
 154 430 l 5
 219 430 l 5
 219 431 l 5
 219 465 l 6
 219 478 176 504 159 508 c 5
128 502 m 5
 125 501 117 486 117 483 c 6
 117 360 l 6
 117 346 83 315 79 315 c 5
 82 316 89 329 89 332 c 6
 89 384 l 5
 82 384 67 378 64 375 c 5
 64 382 81 396 89 398 c 5
 89 426 l 5
 82 426 67 421 64 418 c 5
 64 425 81 438 89 440 c 5
 89 455 l 6
 89 469 124 502 128 502 c 5
EndSplineSet
EndUndoOperation
EndUndoes
Redoes
EndRedoes
EndUndoRedoHistory
Fore
SplineSet
198 669 m 1
 348 519 l 1
 348 325 l 1
 326 308 l 1
 168 164 l 1
 148 144 l 1
 -2 294 l 1
 -2 488 l 1
 20 505 l 1
 178 649 l 1
 198 669 l 1
154 613 m 1
 48 516 l 1
 48 344 l 1
 192 200 l 1
 298 297 l 1
 298 469 l 1
 154 613 l 1
182 538 m 1
 184 536 l 1
 198 536 248 508 248 494 c 0
 248 478.666666667 248 463.333333333 248 448 c 1
 215 422 l 1
 235 402 l 1
 235 355 l 1
 250 340 l 1
 222 311 l 1
 194 340 l 1
 207 353 l 1
 207 373 l 1
 185 402 l 1
 154 402 l 1
 154 354 l 1
 169 340 l 1
 140 311 l 1
 112 340 l 1
 126 354 l 1
 126 480 l 1
 127 480 l 1
 125 482 l 1
 182 538 l 1
159 508 m 1
 154 503 l 1
 154 430 l 1
 219 430 l 1
 219 441.666666667 219 453.333333333 219 465 c 0
 219 478 176 504 159 508 c 1
128 502 m 1
 125 501 117 486 117 483 c 2
 117 360 l 2
 117 346 83 315 79 315 c 1
 82 316 89 329 89 332 c 2
 89 384 l 1
 82 384 67 378 64 375 c 1
 64 382 81 396 89 398 c 1
 89 426 l 1
 82 426 67 421 64 418 c 1
 64 425 81 438 89 440 c 1
 89 455 l 2
 89 469 124 502 128 502 c 1
EndSplineSet
Validated: 1
EndChar

StartChar: endash
Encoding: 177 8211 187
Width: 410
VWidth: 0
Flags: HW
LayerCount: 2
UndoRedoHistory
Layer: 1
Undoes
UndoOperation
Index: 0
Type: 1
WasModified: 1
WasOrder2: 0
Layer: 2
Width: 410
VWidth: 0
LBearingChange: 0
UnicodeEnc: 0
InstructionsLength: 0
SplineSet
110 460 m 5
 400 460 l 5
 300 360 l 5
 10 360 l 5
 110 460 l 5
EndSplineSet
EndUndoOperation
EndUndoes
Redoes
EndRedoes
EndUndoRedoHistory
Fore
SplineSet
110 460 m 1
 400 460 l 1
 300 360 l 1
 10 360 l 1
 110 460 l 1
EndSplineSet
Validated: 1
EndChar

StartChar: emdash
Encoding: 208 8212 188
Width: 590
VWidth: 0
Flags: HW
LayerCount: 2
UndoRedoHistory
Layer: 1
Undoes
UndoOperation
Index: 0
Type: 1
WasModified: 1
WasOrder2: 0
Layer: 2
Width: 590
VWidth: 0
LBearingChange: 0
UnicodeEnc: 0
InstructionsLength: 0
SplineSet
100 460 m 1
 590 460 l 1
 490 360 l 1
 0 360 l 1
 100 460 l 1
EndSplineSet
EndUndoOperation
EndUndoes
Redoes
EndRedoes
EndUndoRedoHistory
Fore
SplineSet
100 460 m 1
 590 460 l 1
 490 360 l 1
 0 360 l 1
 100 460 l 1
EndSplineSet
Validated: 1
EndChar

StartChar: ellipsis
Encoding: 188 8230 189
Width: 530
VWidth: 0
Flags: HW
LayerCount: 2
UndoRedoHistory
Layer: 1
Undoes
UndoOperation
Index: 0
Type: 1
WasModified: 1
WasOrder2: 0
Layer: 2
Width: 530
VWidth: 0
LBearingChange: 0
UnicodeEnc: 0
InstructionsLength: 0
SplineSet
85 160 m 1
 165 80 l 1
 85 0 l 1
 5 80 l 1
 85 160 l 1
260 160 m 1
 340 80 l 1
 260 0 l 1
 180 80 l 1
 260 160 l 1
435 160 m 1
 515 80 l 1
 435 0 l 1
 355 80 l 1
 435 160 l 1
EndSplineSet
EndUndoOperation
EndUndoes
Redoes
EndRedoes
EndUndoRedoHistory
Fore
SplineSet
85 160 m 1
 165 80 l 1
 85 0 l 1
 5 80 l 1
 85 160 l 1
260 160 m 1
 340 80 l 1
 260 0 l 1
 180 80 l 1
 260 160 l 1
435 160 m 1
 515 80 l 1
 435 0 l 1
 355 80 l 1
 435 160 l 1
EndSplineSet
Validated: 1
EndChar

StartChar: florin
Encoding: 166 402 190
Width: 480
VWidth: 0
Flags: HW
LayerCount: 2
UndoRedoHistory
Layer: 1
Undoes
UndoOperation
Index: 0
Type: 1
WasModified: 1
WasOrder2: 0
Layer: 2
Width: 480
VWidth: 0
LBearingChange: 0
UnicodeEnc: 0
InstructionsLength: 0
SplineSet
378 800 m 1
 480 700 l 1
 380 600 l 1
 291 689 l 1
 290 688 l 1
 290 401 l 1
 290 362 l 1
 380 455 l 1
 390 445 l 1
 430 405 l 1
 340 310 l 1
 300 350 l 1
 290 339 l 1
 290 -69 l 1
 290 -81 l 1
 290 -94 l 1
 102 -281 l 1
 0 -181 l 1
 100 -81 l 1
 189 -170 l 1
 190 -169 l 1
 190 -82 l 1
 190 399 l 1
 190 588 l 1
 190 612 l 1
 378 800 l 1
EndSplineSet
EndUndoOperation
EndUndoes
Redoes
EndRedoes
EndUndoRedoHistory
Fore
SplineSet
378 800 m 1
 480 700 l 1
 380 600 l 1
 291 689 l 1
 290 688 l 1
 290 401 l 1
 290 362 l 1
 380 455 l 1
 390 445 l 1
 430 405 l 1
 340 310 l 1
 300 350 l 1
 290 339 l 1
 290 -69 l 1
 290 -81 l 1
 290 -94 l 1
 102 -281 l 1
 0 -181 l 1
 100 -81 l 1
 189 -170 l 1
 190 -169 l 1
 190 -82 l 1
 190 399 l 1
 190 588 l 1
 190 612 l 1
 378 800 l 1
EndSplineSet
Validated: 1
EndChar

StartChar: brokenbar
Encoding: 325 166 191
Width: 110
VWidth: 0
Flags: HW
LayerCount: 2
UndoRedoHistory
Layer: 1
Undoes
UndoOperation
Index: 0
Type: 1
WasModified: 1
WasOrder2: 0
Layer: 2
Width: 110
VWidth: 0
LBearingChange: 0
UnicodeEnc: 0
InstructionsLength: 0
SplineSet
100 800 m 1
 100 350 l 1
 0 250 l 1
 0 700 l 1
 100 800 l 1
100 300 m 1
 100 -180 l 1
 0 -280 l 1
 0 200 l 1
 100 300 l 1
EndSplineSet
EndUndoOperation
EndUndoes
Redoes
EndRedoes
EndUndoRedoHistory
Fore
SplineSet
100 800 m 1
 100 350 l 1
 0 250 l 1
 0 700 l 1
 100 800 l 1
100 300 m 1
 100 -180 l 1
 0 -280 l 1
 0 200 l 1
 100 300 l 1
EndSplineSet
Validated: 1
EndChar

StartChar: degree
Encoding: 326 176 192
Width: 300
VWidth: 0
Flags: HW
LayerCount: 2
UndoRedoHistory
Layer: 1
Undoes
UndoOperation
Index: 0
Type: 1
WasModified: 1
WasOrder2: 0
Layer: 2
Width: 300
VWidth: 0
LBearingChange: 0
UnicodeEnc: 0
InstructionsLength: 0
SplineSet
160 800 m 1
 290 670 l 1
 290 576 l 1
 290 561 l 1
 290 556 l 1
 240 515 l 1
 150 436 l 1
 130 416 l 1
 0 546 l 1
 0 640 l 1
 0 661 l 1
 140 780 l 1
 160 800 l 1
116 744 m 1
 50 685 l 1
 50 596 l 1
 174 473 l 1
 240 532 l 1
 240 620 l 1
 116 744 l 1
EndSplineSet
EndUndoOperation
EndUndoes
Redoes
EndRedoes
EndUndoRedoHistory
Fore
SplineSet
160 800 m 1
 290 670 l 1
 290 576 l 1
 290 561 l 1
 290 556 l 1
 240 515 l 1
 150 436 l 1
 130 416 l 1
 0 546 l 1
 0 640 l 1
 0 661 l 1
 140 780 l 1
 160 800 l 1
116 744 m 1
 50 685 l 1
 50 596 l 1
 174 473 l 1
 240 532 l 1
 240 620 l 1
 116 744 l 1
EndSplineSet
Validated: 1
EndChar

StartChar: OE
Encoding: 234 338 196
Width: 950
VWidth: 0
Flags: HW
LayerCount: 2
UndoRedoHistory
Layer: 1
Undoes
UndoOperation
Index: 0
Type: 1
WasModified: 0
WasOrder2: 0
Layer: 2
Width: 950
VWidth: 0
LBearingChange: 0
UnicodeEnc: 0
InstructionsLength: 0
SplineSet
409 799 m 2
 944 800 l 5
 944 800 l 5
 942 725 834 655 804 655 c 1
 824 665 844 685 844 700 c 1
 810.666666667 700 777.333333333 700 744 700 c 1
 744 475 l 1
 792 475 l 0
 909 475 l 1
 809 375 l 1
 744 375 l 1
 744 106 l 1
 910 106 l 2
 925 106 945 126 955 146 c 1
 955 116 887 6 814 6 c 0
 639 6 464 6 289 6 c 1
 289 7 l 1
 219.539693626 7 179.848256749 29.8818823069 136 61 c 0
 79 107 38 173 16 242 c 1
 6 287 0 334 0 380 c 0
 0 415 4 449 11 483 c 1
 45 579 112 661 193 721 c 0
 258.141063699 765.570201478 320.772059927 799 409 799 c 2
290 700 m 0
 250 700 208 692 175 668 c 0
 109 621 97 533 94 458 c 1
 96 365 141 278 198 207 c 0
 246 149 320 110 395 106 c 1
 423 106 l 1
 432 107 440 107 449 109 c 1
 449 644 l 1
 403 678 348 700 290 700 c 0
734 700 m 1
 606 700 l 1
 640 659 667 611 681 560 c 1
 734 560 l 1
 734 700 l 1
369 665 m 1
 359 660 329 610 329 600 c 2
 329 400 l 1
 327 398 l 1
 329 398 l 1
 329 348 204 235 189 235 c 1
 199 240 229 290 229 300 c 2
 229 375 l 1
 207 374 167 359 150 349 c 0
 147 347 145 346 144 345 c 1
 144 368 201 418 229 424 c 1
 229 450 l 1
 207 449 167 434 150 424 c 0
 147 422 145 421 144 420 c 1
 144 443 201 493 229 499 c 1
 229 500 l 2
 229 550 354 665 369 665 c 1
459 637 m 1
 459 560 l 1
 528 560 l 1
 509 589 486 615 459 637 c 1
459 550 m 1
 534 550 l 1
 538.406413604 541.187172793 544.125785996 533.529874507 549 525 c 1
 459 525 l 1
 459 550 l 1
684 550 m 1
 734 550 l 1
 734 525 l 1
 688 525 l 1
 685.980810126 533.076759497 686.054546282 541.781814871 684 550 c 1
459 515 m 1
 459 111 l 1
 474 114 488 119 502 126 c 0
 566 157 593 231 599 297 c 0
 602 312 603 327 603 342 c 0
 603 402 583 461 554 515 c 1
 459 515 l 1
689 515 m 1
 691 502 693 488 694 475 c 1
 734 475 l 1
 734 515 l 1
 689 515 l 1
694 375 m 1
 692 354 688 333 682 312 c 0
 650 232 597 161 530 106 c 1
 734 106 l 1
 734 375 l 1
 694 375 l 1
EndSplineSet
EndUndoOperation
EndUndoes
Redoes
EndRedoes
EndUndoRedoHistory
Fore
SplineSet
409 799 m 2
 944 800 l 1
 942 725 834 655 804 655 c 1
 824 665 844 685 844 700 c 1
 810.666666667 700 777.333333333 700 744 700 c 1
 744 475 l 1
 799 475 854 475 909 475 c 1
 809 375 l 1
 744 375 l 1
 744 106 l 1
 910 106 l 2
 925 106 945 126 955 146 c 1
 955 116 887 6 814 6 c 0
 639 6 464 6 289 6 c 1
 289 7 l 1
 219.539693626 7 179.848256749 29.8818823069 136 61 c 0
 79 107 38 173 16 242 c 1
 6 287 0 334 0 380 c 0
 0 415 4 449 11 483 c 1
 45 579 112 661 193 721 c 0
 258.141063699 765.570201478 320.772059927 799 409 799 c 2
290 700 m 0
 250 700 208 692 175 668 c 0
 109 621 97 533 94 458 c 1
 96 365 141 278 198 207 c 0
 246 149 320 110 395 106 c 1
 423 106 l 1
 432 107 440 107 449 109 c 1
 449 644 l 1
 403 678 348 700 290 700 c 0
734 700 m 1
 606 700 l 1
 640 659 667 611 681 560 c 1
 734 560 l 1
 734 700 l 1
369 665 m 1
 359 660 329 610 329 600 c 2
 329 400 l 1
 327 398 l 1
 329 398 l 1
 329 348 204 235 189 235 c 1
 199 240 229 290 229 300 c 2
 229 375 l 1
 207 374 167 359 150 349 c 0
 147 347 145 346 144 345 c 1
 144 368 201 418 229 424 c 1
 229 450 l 1
 207 449 167 434 150 424 c 0
 147 422 145 421 144 420 c 1
 144 443 201 493 229 499 c 1
 229 500 l 2
 229 550 354 665 369 665 c 1
459 637 m 1
 459 560 l 1
 528 560 l 1
 509 589 486 615 459 637 c 1
459 550 m 1
 534 550 l 1
 538.406413604 541.187172793 544.125785996 533.529874507 549 525 c 1
 459 525 l 1
 459 550 l 1
684 550 m 1
 734 550 l 1
 734 525 l 1
 688 525 l 1
 685.980810126 533.076759497 686.054546282 541.781814871 684 550 c 1
459 515 m 1
 459 111 l 1
 474 114 488 119 502 126 c 0
 566 157 593 231 599 297 c 0
 602 312 603 327 603 342 c 0
 603 402 583 461 554 515 c 1
 459 515 l 1
689 515 m 1
 691 502 693 488 694 475 c 1
 734 475 l 1
 734 515 l 1
 689 515 l 1
694 375 m 1
 692 354 688 333 682 312 c 0
 650 232 597 161 530 106 c 1
 734 106 l 1
 734 375 l 1
 694 375 l 1
EndSplineSet
Validated: 9
EndChar

StartChar: bullet
Encoding: 183 8226 197
Width: 210
VWidth: 0
Flags: HW
LayerCount: 2
UndoRedoHistory
Layer: 1
Undoes
UndoOperation
Index: 0
Type: 1
WasModified: 1
WasOrder2: 0
Layer: 2
Width: 210
VWidth: 0
LBearingChange: 0
UnicodeEnc: 0
InstructionsLength: 0
SplineSet
100 550 m 1
 200 467 l 1
 200 383 l 1
 100 300 l 1
 0 383 l 1
 0 467 l 1
 100 550 l 1
EndSplineSet
EndUndoOperation
EndUndoes
Redoes
EndRedoes
EndUndoRedoHistory
Fore
SplineSet
100 550 m 1
 200 467 l 1
 200 383 l 1
 100 300 l 1
 0 383 l 1
 0 467 l 1
 100 550 l 1
EndSplineSet
Validated: 1
EndChar

StartChar: cedilla
Encoding: 203 184 199
Width: 230
VWidth: 0
Flags: HW
LayerCount: 2
UndoRedoHistory
Layer: 1
Undoes
UndoOperation
Index: 0
Type: 1
WasModified: 1
WasOrder2: 0
Layer: 2
Width: 230
VWidth: 0
LBearingChange: 0
UnicodeEnc: 0
InstructionsLength: 0
SplineSet
184 201 m 1
 160 177 115 137 111 123 c 0
 111 122 110 120 110 119 c 0
 110 102 151 102 171 88 c 0
 195 69 213 40 213 9 c 0
 213 7 213 4 213 2 c 0
 211 -28 188 -48 170 -70 c 0
 146 -97 69 -163 60 -169 c 0
 48 -177 60 -167 64 -163 c 0
 81 -146 106 -129 113 -106 c 0
 114 -101 115 -95 115 -90 c 0
 115 -61 99 -35 78 -16 c 0
 61 1 37 6 17 18 c 0
 13 21 11 24 11 28 c 0
 11 38 25 49 31 56 c 0
 82 108 123 152 184 201 c 1
EndSplineSet
EndUndoOperation
EndUndoes
Redoes
EndRedoes
EndUndoRedoHistory
Fore
SplineSet
184 201 m 1
 160 177 115 137 111 123 c 0
 111 122 110 120 110 119 c 0
 110 102 151 102 171 88 c 0
 195 69 213 40 213 9 c 0
 213 7 213 4 213 2 c 0
 211 -28 188 -48 170 -70 c 0
 146 -97 69 -163 60 -169 c 0
 48 -177 60 -167 64 -163 c 0
 81 -146 106 -129 113 -106 c 0
 114 -101 115 -95 115 -90 c 0
 115 -61 99 -35 78 -16 c 0
 61 1 37 6 17 18 c 0
 13 21 11 24 11 28 c 0
 11 38 25 49 31 56 c 0
 82 108 123 152 184 201 c 1
EndSplineSet
Validated: 1
EndChar

StartChar: Oslash
Encoding: 233 216 203
Width: 710
VWidth: 0
Flags: HW
LayerCount: 2
UndoRedoHistory
Layer: 1
Undoes
UndoOperation
Index: 0
Type: 1
WasModified: 0
WasOrder2: 0
Layer: 2
Width: 710
VWidth: 0
LBearingChange: 0
UnicodeEnc: 0
InstructionsLength: 0
SplineSet
384 800 m 4
 410 799 437 798 463 794 c 4
 510 780 555 754 589 719 c 4
 594 714 599 708 603 703 c 6
 681 792 l 5
 681 717 l 5
 633 663 l 5
 659 625 678 582 686 537 c 4
 692 499 696 460 696 421 c 4
 696 384 692 347 682 312 c 4
 629 182 521 75 390 24 c 4
 360 11 329 6 298 6 c 4
 278 6 259 8 239 11 c 4
 201 19 167 39 136 61 c 4
 129 67 122 73 115 79 c 6
 6 -43 l 5
 6 32 l 5
 81 117 l 5
 52 154 30 197 16 242 c 4
 6 287 0 334 0 380 c 4
 0 415 4 449 11 483 c 4
 45 579 112 661 193 721 c 4
 250 760 314 794 384 800 c 4
290 700 m 4
 250 700 208 692 175 668 c 4
 109 621 97 533 94 458 c 4
 96 375 132 296 181 229 c 5
 241 296 l 5
 241 302 l 5
 246 302 l 5
 405 480 l 5
 405 672 l 6
 370 690 330 700 290 700 c 4
300 670 m 6
 300 670 l 6
 292 666 266 623 266 615 c 6
 266 447 l 5
 264 445 l 6
 265 445 266 445 266 445 c 5
 266 403 161 308 148 308 c 5
 156 312 182 354 182 362 c 6
 182 425 l 6
 160 424 118 408 110 400 c 5
 110 420 159 462 182 467 c 6
 182 488 l 6
 160 487 118 471 110 463 c 5
 110 483 159 525 182 530 c 6
 182 531 l 6
 182 573 287 670 300 670 c 6
415 667 m 6
 415 492 l 5
 504 592 l 6
 479 622 449 648 415 667 c 6
534 551 m 6
 415 417 l 5
 415 106 l 6
 445 107 474 113 502 126 c 4
 566 157 593 231 599 297 c 4
 602 312 603 327 603 342 c 4
 603 414 575 485 537 545 c 4
 536 547 535 549 534 551 c 6
405 405 m 5
 312 302 l 5
 405 302 l 5
 405 405 l 5
303 292 m 5
 281 267 l 5
 405 267 l 5
 405 292 l 5
 303 292 l 5
272 257 m 5
 213 190 l 5
 263 140 334 107 405 106 c 5
 405 257 l 5
 272 257 l 5
EndSplineSet
EndUndoOperation
EndUndoes
Redoes
EndRedoes
EndUndoRedoHistory
Fore
SplineSet
633 663 m 1
 677.555616712 597.880252498 696 523.241528696 696 421 c 0
 696 384 692 347 682 312 c 0
 629 182 521 75 390 24 c 0
 360 11 329 6 298 6 c 0
 224.640368666 6 181.933526396 28.4020135252 136 61 c 0
 129 67 122 73 115 79 c 1
 6 -43 l 1
 6 32 l 1
 81 117 l 1
 52 154 30 197 16 242 c 0
 6 287 0 334 0 380 c 0
 0 415 4 449 11 483 c 1
 45 579 112 661 193 721 c 0
 250 760 314 794 384 800 c 0
 410 799 437 798 463 794 c 0
 516.789068811 777.977724184 568.864165215 745.669793482 603 703 c 1
 681 792 l 1
 681 717 l 1
 633 663 l 1
290 700 m 0
 250 700 208 692 175 668 c 0
 109 621 97 533 94 458 c 1
 96 375 132 296 181 229 c 1
 241 296 l 1
 241 302 l 1
 246 302 l 1
 405 480 l 1
 405 672 l 1
 370 690 330 700 290 700 c 0
300 670 m 1
 292 666 266 623 266 615 c 2
 266 447 l 1
 264 445 l 1
 266 445 l 1
 266 403 161 308 148 308 c 1
 156 312 182 354 182 362 c 2
 182 425 l 1
 160 424 118 408 110 400 c 1
 110 420 159 462 182 467 c 1
 182 488 l 1
 160 487 118 471 110 463 c 1
 110 483 159 525 182 530 c 1
 182 531 l 2
 182 573 287 670 300 670 c 1
415 667 m 1
 415 492 l 1
 504 592 l 1
 479 622 449 648 415 667 c 1
534 551 m 1
 415 417 l 1
 415 106 l 1
 445 107 474 113 502 126 c 0
 566 157 593 231 599 297 c 0
 602 312 603 327 603 342 c 0
 603 414 575 485 537 545 c 0
 536 547 535 549 534 551 c 1
405 405 m 1
 312 302 l 1
 405 302 l 1
 405 405 l 1
303 292 m 1
 281 267 l 1
 405 267 l 1
 405 292 l 1
 303 292 l 1
272 257 m 1
 213 190 l 1
 263 140 334 107 405 106 c 1
 405 257 l 1
 272 257 l 1
EndSplineSet
Validated: 1
EndChar

StartChar: Thorn
Encoding: 333 222 204
Width: 440
VWidth: 0
Flags: HW
LayerCount: 2
UndoRedoHistory
Layer: 1
Undoes
UndoOperation
Index: 0
Type: 1
WasModified: 1
WasOrder2: 0
Layer: 2
Width: 440
VWidth: 0
LBearingChange: 0
UnicodeEnc: 0
InstructionsLength: 0
SplineSet
100 800 m 1
 100 575 l 1
 275 575 l 1
 435 415 l 1
 425 405 l 1
 425 275 l 1
 430 280 l 1
 440 265 l 1
 200 25 l 1
 175 25 l 1
 100 25 l 1
 100 -180 l 1
 0 -280 l 1
 0 125 l 1
 0 700 l 1
 100 800 l 1
100 475 m 1
 100 225 l 1
 100 125 l 1
 275 125 l 1
 325 175 l 1
 325 325 l 1
 175 475 l 1
 100 475 l 1
EndSplineSet
EndUndoOperation
EndUndoes
Redoes
EndRedoes
EndUndoRedoHistory
Fore
SplineSet
100 800 m 1
 100 575 l 1
 275 575 l 1
 435 415 l 1
 425 405 l 1
 425 275 l 1
 430 280 l 1
 440 265 l 1
 200 25 l 1
 175 25 l 1
 100 25 l 1
 100 -180 l 1
 0 -280 l 1
 0 125 l 1
 0 700 l 1
 100 800 l 1
100 475 m 1
 100 225 l 1
 100 125 l 1
 275 125 l 1
 325 175 l 1
 325 325 l 1
 175 475 l 1
 100 475 l 1
EndSplineSet
Validated: 1
EndChar

StartChar: thorn
Encoding: 334 254 205
Width: 370
VWidth: 0
Flags: HW
LayerCount: 2
UndoRedoHistory
Layer: 1
Undoes
UndoOperation
Index: 0
Type: 1
WasModified: 1
WasOrder2: 0
Layer: 2
Width: 370
VWidth: 0
LBearingChange: 0
UnicodeEnc: 0
InstructionsLength: 0
SplineSet
103 796 m 1
 103 481 l 1
 196 574 l 1
 203 567 l 1
 363 407 l 1
 353 397 l 1
 353 221 l 1
 366 234 l 1
 380 220 l 1
 160 0 l 1
 146 14 l 1
 103 57 l 1
 103 -184 l 1
 3 -284 l 1
 3 157 l 1
 -7 167 l 1
 3 177 l 1
 3 196 l 1
 3 246 l 1
 3 353 l 1
 -10 340 l 1
 -24 354 l 1
 3 381 l 1
 3 696 l 1
 103 796 l 1
110 460 m 1
 103 453 l 1
 103 346 l 1
 103 296 l 1
 103 257 l 1
 246 114 l 1
 253 121 l 1
 253 317 l 1
 110 460 l 1
EndSplineSet
EndUndoOperation
EndUndoes
Redoes
EndRedoes
EndUndoRedoHistory
Fore
SplineSet
103 796 m 1
 103 481 l 1
 196 574 l 1
 203 567 l 1
 363 407 l 1
 353 397 l 1
 353 221 l 1
 366 234 l 1
 380 220 l 1
 160 0 l 1
 146 14 l 1
 103 57 l 1
 103 -184 l 1
 3 -284 l 1
 3 157 l 1
 -7 167 l 1
 3 177 l 1
 3 196 l 1
 3 246 l 1
 3 353 l 1
 -10 340 l 1
 -24 354 l 1
 3 381 l 1
 3 696 l 1
 103 796 l 1
110 460 m 1
 103 453 l 1
 103 346 l 1
 103 296 l 1
 103 257 l 1
 246 114 l 1
 253 121 l 1
 253 317 l 1
 110 460 l 1
EndSplineSet
Validated: 1
EndChar

StartChar: mu
Encoding: 335 181 206
Width: 380
VWidth: 0
Flags: HW
LayerCount: 2
UndoRedoHistory
Layer: 1
Undoes
UndoOperation
Index: 0
Type: 1
WasModified: 1
WasOrder2: 0
Layer: 2
Width: 380
VWidth: 0
LBearingChange: 0
UnicodeEnc: 0
InstructionsLength: 0
SplineSet
61 550 m 1
 141 470 l 1
 110 439 l 1
 110 215 l 1
 236 113 l 1
 240 117 l 1
 240 440 l 1
 210 470 l 1
 290 550 l 1
 370 470 l 1
 340 440 l 1
 340 100 l 1
 340 100 351 93 366 93 c 0
 373 93 382 95 390 100 c 1
 373 70 315 2 240 0 c 1
 240 88 l 1
 152 0 l 1
 150 2 l 1
 148 0 l 1
 135 12 l 1
 136 13 l 1
 110 34 l 1
 110 -149 l 1
 141 -180 l 1
 61 -260 l 1
 -19 -180 l 1
 10 -151 l 1
 10 115 l 1
 -2 125 l 1
 10 138 l 1
 10 441 l 1
 -19 470 l 1
 61 550 l 1
EndSplineSet
EndUndoOperation
EndUndoes
Redoes
EndRedoes
EndUndoRedoHistory
Fore
SplineSet
61 550 m 1
 141 470 l 1
 110 439 l 1
 110 215 l 1
 236 113 l 1
 240 117 l 1
 240 440 l 1
 210 470 l 1
 290 550 l 1
 370 470 l 1
 340 440 l 1
 340 100 l 1
 340 100 351 93 366 93 c 0
 373 93 382 95 390 100 c 1
 373 70 315 2 240 0 c 1
 240 88 l 1
 152 0 l 1
 150 2 l 1
 148 0 l 1
 135 12 l 1
 136 13 l 1
 110 34 l 1
 110 -149 l 1
 141 -180 l 1
 61 -260 l 1
 -19 -180 l 1
 10 -151 l 1
 10 115 l 1
 -2 125 l 1
 10 138 l 1
 10 441 l 1
 -19 470 l 1
 61 550 l 1
EndSplineSet
Validated: 1
EndChar

StartChar: paragraph
Encoding: 182 182 207
Width: 530
VWidth: 0
Flags: HW
LayerCount: 2
UndoRedoHistory
Layer: 1
Undoes
UndoOperation
Index: 0
Type: 1
WasModified: 0
WasOrder2: 0
Layer: 2
Width: 530
VWidth: 0
LBearingChange: 0
UnicodeEnc: 0
InstructionsLength: 0
SplineSet
175 775 m 5
 300 775 l 5
 500 775 l 5
 500 110 l 5
 530 80 l 5
 450 0 l 5
 370 80 l 5
 400 110 l 5
 400 675 l 5
 300 675 l 5
 300 111 l 5
 330 80 l 5
 250 0 l 5
 170 80 l 5
 200 109 l 5
 200 375 l 5
 175 375 l 5
 175 375 l 5
 127 375 84 397 52 432 c 4
 19 469 0 520 -0 577 c 4
 0 630 20 679 50 715 c 4
 81 752 175 775 173 775 c 6
 173 773 l 5
 175 775 l 5
EndSplineSet
EndUndoOperation
EndUndoes
Redoes
EndRedoes
EndUndoRedoHistory
Fore
SplineSet
175 375 m 2
 71.3654271252 375 0 470.976568337 -0 577 c 0
 0 630 20 679 50 715 c 0
 81 752 173 775 173 775 c 1
 173 773 l 1
 175 775 l 1
 283.333333333 775 391.666666667 775 500 775 c 1
 500 110 l 1
 530 80 l 1
 450 0 l 1
 370 80 l 1
 400 110 l 1
 400 675 l 1
 300 675 l 1
 300 111 l 1
 330 80 l 1
 250 0 l 1
 170 80 l 1
 200 109 l 1
 200 375 l 1
 175 375 l 2
EndSplineSet
Validated: 1
EndChar

StartChar: section
Encoding: 167 167 209
Width: 330
VWidth: 0
Flags: HW
LayerCount: 2
UndoRedoHistory
Layer: 1
Undoes
UndoOperation
Index: 0
Type: 1
WasModified: 0
WasOrder2: 0
Layer: 2
Width: 330
VWidth: 0
LBearingChange: 0
UnicodeEnc: 0
InstructionsLength: 0
SplineSet
191 696 m 5
 272 696 l 1
 284 688 l 2
 285 687 286 687 287 687 c 0
 298 687 325 708 325 708 c 1
 325 708 243 597 217 597 c 0
 215 597 213 597 212 599 c 2
 191 615 l 1
 131 615 l 1
 110 595 l 1
 110 575 l 1
 181 504 l 1
 236 558 l 1
 300 494 l 1
 300 467 300 440 300 413 c 1
 254 366 l 1
 325 296 l 1
 325 269 325 242 325 215 c 1
 276.333333333 166.333333333 227.666666667 117.666666667 179 69 c 1
 98 69 l 1
 47 104 l 1
 45 102 l 1
 44 103 43 103 42 103 c 0
 31 103 5 82 5 82 c 1
 5 82 87 193 113 193 c 0
 115 193 117 193 118 191 c 1
 179 150 l 1
 240 150 l 1
 244 154 l 1
 244 174.333333333 244 194.666666667 244 215 c 1
 173 285 l 1
 119 231 l 1
 118 231 l 1
 17 332 l 1
 46.9764103351 360.023589665 75.0085197866 389.991480213 104 419 c 1
 9 514 l 1
 30 534 l 1
 83.4050781881 588.261588479 137.070833293 642.26250004 191 696 c 5
169 463 m 1
 119 413 l 1
 119 393 l 1
 189 322 l 1
 220 352 l 1
 220 413 l 1
 202.578652226 429.245318893 185.805314756 446.138648089 169 463 c 1
EndSplineSet
EndUndoOperation
UndoOperation
Index: 1
Type: 1
WasModified: 1
WasOrder2: 0
Layer: 2
Width: 330
VWidth: 0
LBearingChange: 0
UnicodeEnc: 0
InstructionsLength: 0
SplineSet
191 696 m 5
 272 696 l 5
 284 688 l 6
 285 687 286 687 287 687 c 4
 298 687 325 708 325 708 c 5
 325 708 243 597 217 597 c 4
 215 597 213 597 212 599 c 6
 191 615 l 5
 131 615 l 5
 110 595 l 5
 110 575 l 5
 181 504 l 5
 236 558 l 5
 300 494 l 5
 300 467 300 440 300 413 c 5
 254 366 l 5
 325 296 l 5
 325 269 325 242 325 215 c 5
 276.333333333 166.333333333 227.666666667 117.666666667 179 69 c 5
 98 69 l 5
 47 104 l 5
 45 102 l 5
 44 103 43 103 42 103 c 4
 31 103 5 82 5 82 c 5
 5 82 87 193 113 193 c 4
 115 193 117 193 118 191 c 5
 179 150 l 5
 240 150 l 5
 244 154 l 5
 244 174.333333333 244 194.666666667 244 215 c 5
 173 285 l 5
 119 231 l 5
 118 231 l 5
 17 332 l 5
 46.9764103351 360.023589665 75.0085197866 389.991480213 104 419 c 5
 9 514 l 5
 30 534 l 5
 83.4050781881 588.261588479 137.070833293 642.26250004 191 696 c 5
169 463 m 5
 119 413 l 5
 119 393 l 5
 189 322 l 5
 220 352 l 5
 220 413 l 5
 202.578652226 429.245318893 185.805314756 446.138648089 169 463 c 5
EndSplineSet
EndUndoOperation
EndUndoes
Redoes
EndRedoes
EndUndoRedoHistory
Fore
SplineSet
191 696 m 1
 272 696 l 1
 284 688 l 2
 285 687 286 687 287 687 c 0
 298 687 325 708 325 708 c 1
 325 708 243 597 217 597 c 0
 215 597 213 597 212 599 c 2
 191 615 l 1
 131 615 l 1
 110 595 l 1
 110 575 l 1
 181 504 l 1
 236 558 l 1
 300 494 l 1
 300 467 300 440 300 413 c 1
 254 366 l 1
 325 296 l 1
 325 269 325 242 325 215 c 1
 276.333333333 166.333333333 227.666666667 117.666666667 179 69 c 1
 98 69 l 1
 47 104 l 1
 45 102 l 1
 44 103 43 103 42 103 c 0
 31 103 5 82 5 82 c 1
 5 82 87 193 113 193 c 0
 115 193 117 193 118 191 c 1
 179 150 l 1
 240 150 l 1
 244 154 l 1
 244 174.333333333 244 194.666666667 244 215 c 1
 173 285 l 1
 119 231 l 1
 118 231 l 1
 17 332 l 1
 46.9764103351 360.023589665 75.0085197866 389.991480213 104 419 c 1
 9 514 l 1
 30 534 l 1
 83.4050781881 588.261588479 137 642 191 696 c 1
169 463 m 1
 119 413 l 1
 119 393 l 1
 189 322 l 1
 220 352 l 1
 220 413 l 1
 202.578652226 429.245318893 185.805314756 446.138648089 169 463 c 1
EndSplineSet
EndChar

StartChar: sterling
Encoding: 163 163 210
Width: 480
VWidth: 0
Flags: HW
LayerCount: 2
UndoRedoHistory
Layer: 1
Undoes
UndoOperation
Index: 0
Type: 1
WasModified: 1
WasOrder2: 0
Layer: 2
Width: 480
VWidth: 0
LBearingChange: 0
UnicodeEnc: 0
InstructionsLength: 0
SplineSet
267 794 m 1
 369 694 l 1
 269 594 l 1
 181 682 l 1
 179 681 l 1
 179 425 l 1
 280 425 l 1
 205 350 l 1
 179 350 l 1
 179 100 l 1
 480 100 l 1
 380 0 l 1
 5 0 l 1
 79 99 l 1
 79 350 l 1
 -20 350 l 1
 55 425 l 1
 79 425 l 1
 79 581 l 1
 79 606 l 1
 267 794 l 1
EndSplineSet
EndUndoOperation
EndUndoes
Redoes
EndRedoes
EndUndoRedoHistory
Fore
SplineSet
267 794 m 1
 369 694 l 1
 269 594 l 1
 181 682 l 1
 179 681 l 1
 179 425 l 1
 280 425 l 1
 205 350 l 1
 179 350 l 1
 179 100 l 1
 480 100 l 1
 380 0 l 1
 5 0 l 1
 79 99 l 1
 79 350 l 1
 -20 350 l 1
 55 425 l 1
 79 425 l 1
 79 581 l 1
 79 606 l 1
 267 794 l 1
EndSplineSet
Validated: 1
EndChar

StartChar: yen
Encoding: 165 165 211
Width: 430
VWidth: 0
Flags: HW
LayerCount: 2
UndoRedoHistory
Layer: 1
Undoes
UndoOperation
Index: 0
Type: 1
WasModified: 1
WasOrder2: 0
Layer: 2
Width: 430
VWidth: 0
LBearingChange: 0
UnicodeEnc: 0
InstructionsLength: 0
SplineSet
80 800 m 1
 160 720 l 1
 128 688 l 1
 128 540 l 1
 268 400 l 1
 278 410 l 1
 278 694 l 1
 253 720 l 1
 333 800 l 1
 413 720 l 1
 378 686 l 1
 378 490 l 1
 278 390 l 1
 258 370 l 1
 258 250 l 1
 383 250 l 1
 333 200 l 1
 258 200 l 1
 258 150 l 1
 383 150 l 1
 333 100 l 1
 258 100 l 1
 258 47 l 1
 288 17 l 1
 208 -63 l 1
 128 17 l 1
 158 47 l 1
 158 100 l 1
 33 100 l 1
 83 150 l 1
 158 150 l 1
 158 200 l 1
 33 200 l 1
 83 250 l 1
 158 250 l 1
 158 320 l 1
 28 450 l 1
 28 692 l 1
 0 720 l 1
 80 800 l 1
EndSplineSet
EndUndoOperation
EndUndoes
Redoes
EndRedoes
EndUndoRedoHistory
Fore
SplineSet
80 800 m 1
 160 720 l 1
 128 688 l 1
 128 540 l 1
 268 400 l 1
 278 410 l 1
 278 694 l 1
 253 720 l 1
 333 800 l 1
 413 720 l 1
 378 686 l 1
 378 490 l 1
 278 390 l 1
 258 370 l 1
 258 250 l 1
 383 250 l 1
 333 200 l 1
 258 200 l 1
 258 150 l 1
 383 150 l 1
 333 100 l 1
 258 100 l 1
 258 47 l 1
 288 17 l 1
 208 -63 l 1
 128 17 l 1
 158 47 l 1
 158 100 l 1
 33 100 l 1
 83 150 l 1
 158 150 l 1
 158 200 l 1
 33 200 l 1
 83 250 l 1
 158 250 l 1
 158 320 l 1
 28 450 l 1
 28 692 l 1
 0 720 l 1
 80 800 l 1
EndSplineSet
Validated: 1
EndChar

StartChar: ordfeminine
Encoding: 227 170 212
Width: 200
VWidth: 0
Flags: HW
LayerCount: 2
UndoRedoHistory
Layer: 1
Undoes
UndoOperation
Index: 0
Type: 1
WasModified: 1
WasOrder2: 0
Layer: 2
Width: 200
VWidth: 0
LBearingChange: 0
UnicodeEnc: 0
Refer: 71 45 N 0.4 0 0 0.4 21 366 2
InstructionsLength: 0
SplineSet
112 790 m 1
 116 786 l 1
 170 750 l 1
 170 660 l 1
 170 650 l 1
 170 610 l 1
 170 610 180 604 190 610 c 1
 183 598 160 571 130 570 c 1
 130 616 l 1
 76 570 l 1
 32 609 l 1
 36 613 l 1
 36 638 l 1
 32 635 l 1
 27 640 l 1
 117 715 l 1
 78 746 l 1
 48 716 l 1
 43 721 l 1
 112 790 l 1
123 710 m 1
 78 673 l 1
 78 644 l 1
 113 611 l 1
 130 626 l 1
 130 705 l 1
 123 710 l 1
EndSplineSet
EndUndoOperation
EndUndoes
Redoes
EndRedoes
EndUndoRedoHistory
Fore
SplineSet
112 790 m 1
 116 786 l 1
 170 750 l 1
 170 660 l 1
 170 650 l 1
 170 610 l 1
 170 610 180 604 190 610 c 1
 183 598 160 571 130 570 c 1
 130 616 l 1
 76 570 l 1
 32 609 l 1
 36 613 l 1
 36 638 l 1
 32 635 l 1
 27 640 l 1
 117 715 l 1
 78 746 l 1
 48 716 l 1
 43 721 l 1
 112 790 l 1
123 710 m 1
 78 673 l 1
 78 644 l 1
 113 611 l 1
 130 626 l 1
 130 705 l 1
 123 710 l 1
EndSplineSet
Refer: 71 45 N 0.4 0 0 0.4 21 366 2
Validated: 1
EndChar

StartChar: Euro
Encoding: 336 8364 214
Width: 700
VWidth: 0
Flags: HW
LayerCount: 2
UndoRedoHistory
Layer: 1
Undoes
UndoOperation
Index: 0
Type: 1
WasModified: 1
WasOrder2: 0
Layer: 2
Width: 700
VWidth: 0
LBearingChange: 0
UnicodeEnc: 0
InstructionsLength: 0
SplineSet
493 800 m 0
 506 800 520 799 533 798 c 0
 546 797 559 796 572 794 c 0
 595 787 619 777 640 764 c 0
 661 751 681 737 698 719 c 2
 542 655 l 1
 500 683 451 700 399 700 c 0
 379 700 359 698 339 693 c 0
 319 688 301 680 284 668 c 0
 251 645 231 610 220 573 c 0
 218 568 216 562 215 557 c 2
 425 557 l 1
 350 482 l 1
 204 482 l 2
 203 474 203 466 203 458 c 0
 204 418 213 379 227 342 c 2
 425 342 l 1
 350 267 l 1
 265 267 l 2
 278 246 292 226 307 207 c 0
 343 164 393 132 447 116 c 0
 470 109 494 105 518 105 c 0
 550 105 581 112 611 126 c 0
 643 141 666 167 681 198 c 2
 675 139 l 1
 625 90 565 49 500 24 c 0
 476 13 451 9 425 7 c 0
 418 6 411 6 404 6 c 0
 385 6 366 8 348 11 c 0
 329 15 311 22 294 31 c 0
 277 40 261 50 245 61 c 0
 217 84 192 112 172 143 c 0
 152 174 136 207 125 242 c 0
 123 250 122 258 120 267 c 2
 0 267 l 1
 75 342 l 1
 111 342 l 2
 111 349 109 355 109 362 c 0
 109 367 109 372 109 377 c 0
 109 412 112 448 120 482 c 2
 0 482 l 1
 75 557 l 1
 154 557 l 2
 166 577 179 597 193 615 c 0
 224 655 262 691 302 721 c 0
 330 741 361 759 393 773 c 0
 425 787 458 797 493 800 c 0
EndSplineSet
EndUndoOperation
EndUndoes
Redoes
EndRedoes
EndUndoRedoHistory
Fore
SplineSet
493 800 m 0
 506 800 520 799 533 798 c 0
 546 797 559 796 572 794 c 0
 595 787 619 777 640 764 c 0
 661 751 681 737 698 719 c 2
 542 655 l 1
 500 683 451 700 399 700 c 0
 379 700 359 698 339 693 c 0
 319 688 301 680 284 668 c 0
 251 645 231 610 220 573 c 0
 218 568 216 562 215 557 c 2
 425 557 l 1
 350 482 l 1
 204 482 l 2
 203 474 203 466 203 458 c 0
 204 418 213 379 227 342 c 2
 425 342 l 1
 350 267 l 1
 265 267 l 2
 278 246 292 226 307 207 c 0
 343 164 393 132 447 116 c 0
 470 109 494 105 518 105 c 0
 550 105 581 112 611 126 c 0
 643 141 666 167 681 198 c 2
 675 139 l 1
 625 90 565 49 500 24 c 0
 476 13 451 9 425 7 c 0
 418 6 411 6 404 6 c 0
 385 6 366 8 348 11 c 0
 329 15 311 22 294 31 c 0
 277 40 261 50 245 61 c 0
 217 84 192 112 172 143 c 0
 152 174 136 207 125 242 c 0
 123 250 122 258 120 267 c 2
 0 267 l 1
 75 342 l 1
 111 342 l 2
 111 349 109 355 109 362 c 0
 109 367 109 372 109 377 c 0
 109 412 112 448 120 482 c 2
 0 482 l 1
 75 557 l 1
 154 557 l 2
 166 577 179 597 193 615 c 0
 224 655 262 691 302 721 c 0
 330 741 361 759 393 773 c 0
 425 787 458 797 493 800 c 0
EndSplineSet
Validated: 1
EndChar

StartChar: logicalnot
Encoding: 337 172 215
Width: 600
VWidth: 0
Flags: HW
LayerCount: 2
UndoRedoHistory
Layer: 1
Undoes
UndoOperation
Index: 0
Type: 1
WasModified: 1
WasOrder2: 0
Layer: 2
Width: 600
VWidth: 0
LBearingChange: 0
UnicodeEnc: 0
InstructionsLength: 0
SplineSet
100 475 m 1
 600 475 l 1
 600 250 l 1
 500 150 l 1
 500 375 l 1
 0 375 l 1
 100 475 l 1
EndSplineSet
EndUndoOperation
EndUndoes
Redoes
EndRedoes
EndUndoRedoHistory
Fore
SplineSet
100 475 m 1
 600 475 l 1
 600 250 l 1
 500 150 l 1
 500 375 l 1
 0 375 l 1
 100 475 l 1
EndSplineSet
Validated: 1
EndChar

StartChar: Eth
Encoding: 338 208 217
Width: 540
VWidth: 0
Flags: HW
LayerCount: 2
UndoRedoHistory
Layer: 1
Undoes
UndoOperation
Index: 0
Type: 1
WasModified: 1
WasOrder2: 0
Layer: 2
Width: 540
VWidth: 0
LBearingChange: 0
UnicodeEnc: 0
InstructionsLength: 0
SplineSet
250 805 m 0
 342 804 470 727 517 651 c 1
 517 186 l 1
 322 1 l 2
 314 -4 259 -6 203 -6 c 0
 147 -6 92 -4 87 1 c 2
 87 326 l 1
 -33 326 l 2
 -56 323 -81 322 -101 309 c 0
 -108 305 -115 300 -121 295 c 1
 -88 328 -55 362 -21 395 c 0
 -6 406 10 416 28 420 c 0
 40 422 55 425 67 426 c 2
 87 426 l 1
 87 601 l 1
 187 701 l 1
 187 546 l 1
 327 546 l 1
 327 643 l 1
 276 675 218 701 192 701 c 2
 193 702 l 0
 175 705 156 706 138 706 c 0
 70 699 l 0
 43 694 17 683 -4 665 c 0
 -10 659 -16 653 -22 647 c 1
 8 681 41 713 74 745 c 0
 78 749 81 752 85 756 c 1
 83 754 82 752 80 750 c 1
 85 754 89 760 94 764 c 0
 125 791 168 800 208 803 c 0
 228 804 239 805 250 805 c 0
337 636 m 1
 337 432 l 2
 346 434 355 437 363 442 c 0
 370 446 377 451 383 456 c 1
 368 441 352 425 337 410 c 2
 337 90 l 2
 371 91 400 94 410 100 c 2
 417 107 l 1
 417 551 l 2
 417 574 381 607 337 636 c 1
187 536 m 1
 187 511 l 1
 327 511 l 1
 327 536 l 1
 187 536 l 1
187 501 m 1
 187 426 l 1
 297 426 l 2
 307 427 317 428 327 430 c 2
 327 501 l 1
 187 501 l 1
327 400 m 2
 313 386 299 371 284 357 c 0
 269 346 253 336 235 332 c 0
 223 330 209 327 197 326 c 2
 187 326 l 1
 187 101 l 2
 193 95 266 90 327 90 c 1
 327 400 l 2
EndSplineSet
EndUndoOperation
EndUndoes
Redoes
EndRedoes
EndUndoRedoHistory
Fore
SplineSet
250 805 m 0
 342 804 470 727 517 651 c 1
 517 186 l 1
 322 1 l 2
 314 -4 259 -6 203 -6 c 0
 147 -6 92 -4 87 1 c 2
 87 326 l 1
 -33 326 l 2
 -56 323 -81 322 -101 309 c 0
 -108 305 -115 300 -121 295 c 1
 -88 328 -55 362 -21 395 c 0
 -6 406 10 416 28 420 c 0
 40 422 55 425 67 426 c 2
 87 426 l 1
 87 601 l 1
 187 701 l 1
 187 546 l 1
 327 546 l 1
 327 643 l 1
 276 675 218 701 192 701 c 2
 193 702 l 0
 175 705 156 706 138 706 c 0
 70 699 l 0
 43 694 17 683 -4 665 c 0
 -10 659 -16 653 -22 647 c 1
 8 681 41 713 74 745 c 0
 78 749 81 752 85 756 c 1
 83 754 82 752 80 750 c 1
 85 754 89 760 94 764 c 0
 125 791 168 800 208 803 c 0
 228 804 239 805 250 805 c 0
337 636 m 1
 337 432 l 2
 346 434 355 437 363 442 c 0
 370 446 377 451 383 456 c 1
 368 441 352 425 337 410 c 2
 337 90 l 2
 371 91 400 94 410 100 c 2
 417 107 l 1
 417 551 l 2
 417 574 381 607 337 636 c 1
187 536 m 1
 187 511 l 1
 327 511 l 1
 327 536 l 1
 187 536 l 1
187 501 m 1
 187 426 l 1
 297 426 l 2
 307 427 317 428 327 430 c 2
 327 501 l 1
 187 501 l 1
327 400 m 2
 313 386 299 371 284 357 c 0
 269 346 253 336 235 332 c 0
 223 330 209 327 197 326 c 2
 187 326 l 1
 187 101 l 2
 193 95 266 90 327 90 c 1
 327 400 l 2
EndSplineSet
Validated: 1
EndChar

StartChar: eth
Encoding: 339 240 218
Width: 460
VWidth: 0
Flags: HW
LayerCount: 2
UndoRedoHistory
Layer: 1
Undoes
UndoOperation
Index: 0
Type: 1
WasModified: 1
WasOrder2: 0
Layer: 2
Width: 460
VWidth: 0
LBearingChange: 0
UnicodeEnc: 0
InstructionsLength: 0
SplineSet
88 777 m 5
 128.241532594 731.908199261 169.194646874 687.527980208 210 643 c 5
 328 752 l 5
 353 727 l 5
 234 617 l 5
 433 402 l 5
 423 393 l 5
 423 221 l 5
 436 234 l 5
 450 220 l 5
 230 0 l 5
 174.333333333 55.6666666667 118.666666667 111.333333333 63 167 c 5
 73 177 l 5
 73 353 l 5
 60 340 l 5
 46 354 l 5
 171 480 l 5
 131 522 l 5
 28 427 l 5
 3 452 l 5
 107 548 l 5
 63.2015851034 595.201585103 19.088233701 642.088233701 -27 687 c 5
 83 678 l 5
 88 777 l 5
185 465 m 5
 173 453 l 5
 173 257 l 5
 316 114 l 5
 323 121 l 5
 323 317 l 5
 185 465 l 5
EndSplineSet
EndUndoOperation
EndUndoes
Redoes
EndRedoes
EndUndoRedoHistory
Fore
SplineSet
88 777 m 1
 128.241532594 731.908199261 169.194646874 687.527980208 210 643 c 1
 328 752 l 1
 353 727 l 1
 234 617 l 1
 433 402 l 1
 423 393 l 1
 423 221 l 1
 436 234 l 1
 450 220 l 1
 230 0 l 1
 174.333333333 55.6666666667 118.666666667 111.333333333 63 167 c 1
 73 177 l 1
 73 353 l 1
 60 340 l 1
 46 354 l 1
 171 480 l 1
 131 522 l 1
 28 427 l 1
 3 452 l 1
 107 548 l 1
 63.2015851034 595.201585103 19.088233701 642.088233701 -27 687 c 1
 83 678 l 1
 88 777 l 1
185 465 m 1
 173 453 l 1
 173 257 l 1
 316 114 l 1
 323 121 l 1
 323 317 l 1
 185 465 l 1
EndSplineSet
Validated: 1
EndChar

StartChar: fi
Encoding: 174 64257 221
Width: 410
VWidth: 0
Flags: HW
LayerCount: 2
UndoRedoHistory
Layer: 1
Undoes
UndoOperation
Index: 0
Type: 1
WasModified: 1
WasOrder2: 0
Layer: 2
Width: 410
VWidth: 0
LBearingChange: 0
UnicodeEnc: 0
InstructionsLength: 0
SplineSet
217 800 m 1
 424 674 l 1
 324 574 l 1
 133 691 l 1
 129 688 l 1
 129 362 l 1
 219 455 l 1
 229 445 l 1
 269 405 l 1
 179 310 l 1
 139 350 l 1
 129 339 l 1
 129 107 l 1
 160 76 l 1
 80 -4 l 1
 0 76 l 1
 29 106 l 1
 29 588 l 1
 29 612 l 1
 217 800 l 1
329 528 m 1
 409 448 l 1
 379 417 l 1
 379 100 l 1
 378 100 l 1
 409 69 l 1
 329 -11 l 1
 249 69 l 1
 279 99 l 1
 279 418 l 1
 249 448 l 1
 329 528 l 1
EndSplineSet
EndUndoOperation
EndUndoes
Redoes
EndRedoes
EndUndoRedoHistory
Fore
SplineSet
217 800 m 1
 424 674 l 1
 324 574 l 1
 133 691 l 1
 129 688 l 1
 129 362 l 1
 219 455 l 1
 229 445 l 1
 269 405 l 1
 179 310 l 1
 139 350 l 1
 129 339 l 1
 129 107 l 1
 160 76 l 1
 80 -4 l 1
 0 76 l 1
 29 106 l 1
 29 588 l 1
 29 612 l 1
 217 800 l 1
329 528 m 1
 409 448 l 1
 379 417 l 1
 379 100 l 1
 378 100 l 1
 409 69 l 1
 329 -11 l 1
 249 69 l 1
 279 99 l 1
 279 418 l 1
 249 448 l 1
 329 528 l 1
EndSplineSet
Validated: 1
EndChar

StartChar: fl
Encoding: 175 64258 222
Width: 420
VWidth: 0
Flags: HW
LayerCount: 2
UndoRedoHistory
Layer: 1
Undoes
UndoOperation
Index: 0
Type: 1
WasModified: 1
WasOrder2: 0
Layer: 2
Width: 420
VWidth: 0
LBearingChange: 0
UnicodeEnc: 0
InstructionsLength: 0
SplineSet
217 800 m 5
 379 700 l 5
 379 101 l 5
 414 66 l 5
 334 -14 l 5
 254 66 l 5
 279 91 l 5
 279 600 l 5
 133 691 l 5
 129 688 l 5
 129 362 l 5
 219 455 l 5
 235.666666667 438.333333333 252.333333333 421.666666667 269 405 c 5
 179 310 l 5
 139 350 l 5
 129 339 l 5
 129 107 l 5
 160 76 l 5
 80 -4 l 5
 0 76 l 5
 29 106 l 5
 29 274.666666667 29 443.333333333 29 612 c 5
 217 800 l 5
EndSplineSet
EndUndoOperation
EndUndoes
Redoes
EndRedoes
EndUndoRedoHistory
Fore
SplineSet
217 800 m 1
 379 700 l 1
 379 101 l 1
 414 66 l 1
 334 -14 l 1
 254 66 l 1
 279 91 l 1
 279 600 l 1
 133 691 l 1
 129 688 l 1
 129 362 l 1
 219 455 l 1
 235.666666667 438.333333333 252.333333333 421.666666667 269 405 c 1
 179 310 l 1
 139 350 l 1
 129 339 l 1
 129 107 l 1
 160 76 l 1
 80 -4 l 1
 0 76 l 1
 29 106 l 1
 29 274.666666667 29 443.333333333 29 612 c 1
 217 800 l 1
EndSplineSet
Validated: 1
EndChar

